<svg xmlns="http://www.w3.org/2000/svg" viewBox="0 0 1024 1024" version="1.1">
<g id="Parent-Group"><g id="Group-rgba(0,0,0,0)" fill="rgba(0,0,0,0)">
<path fill="rgba(0,0,0,0)" opacity="1.00" d=" M 0.00 0.00 L 1024.00 0.00 L 1024.00 1024.00 L 0.00 1024.00 L 0.00 0.00 M 685.07 56.74 C 684.37 58.06 683.15 59.26 683.23 60.85 C 683.14 67.85 682.99 74.92 684.22 81.84 C 684.92 81.80 686.30 81.71 686.99 81.67 C 688.26 76.54 687.61 71.21 687.77 65.99 C 687.75 62.74 688.18 58.79 685.07 56.74 M 229.34 134.16 C 229.12 138.49 230.04 142.91 231.26 147.06 C 233.37 147.97 233.44 144.38 233.52 143.01 C 233.13 139.78 233.77 135.67 231.21 133.24 C 230.74 133.47 229.81 133.93 229.34 134.16 M 596.96 196.12 C 595.84 198.59 596.03 201.39 595.83 204.04 C 595.64 214.61 594.16 225.21 595.34 235.77 C 595.71 236.98 596.57 237.31 597.92 236.78 C 599.06 234.68 598.81 232.21 599.03 229.92 C 599.20 221.92 599.98 213.94 599.81 205.93 C 599.65 202.73 600.24 199.31 598.85 196.30 C 598.38 196.26 597.44 196.16 596.96 196.12 M 429.95 207.98 C 422.46 215.65 417.23 225.32 413.87 235.44 C 409.12 233.18 403.56 232.40 398.53 234.21 C 390.31 236.70 385.18 244.87 383.84 252.99 C 383.19 259.30 386.12 266.15 392.02 268.98 C 396.87 272.02 402.68 271.81 408.05 273.16 C 427.65 275.28 447.48 274.82 467.08 273.00 C 478.73 271.87 490.01 268.59 501.08 264.90 C 505.15 263.41 509.15 261.35 512.17 258.18 C 517.61 252.11 518.66 242.88 515.59 235.45 C 512.07 227.34 504.40 221.51 496.11 218.90 C 490.06 217.02 483.50 218.60 478.54 222.39 C 472.06 210.86 460.72 201.12 447.02 200.51 C 440.46 200.32 434.88 204.13 429.95 207.98 M 859.77 255.99 C 859.65 266.37 859.87 276.76 860.40 287.13 C 860.32 288.94 861.65 290.12 863.03 291.08 C 864.34 289.24 865.28 287.15 865.40 284.87 C 865.86 276.92 865.23 268.95 865.34 260.99 C 865.12 258.07 865.59 254.77 863.80 252.26 C 861.45 251.17 859.85 254.00 859.77 255.99 M 477.18 308.17 C 477.39 312.30 480.16 315.71 481.69 319.43 C 487.18 331.34 492.63 343.31 497.26 355.59 C 468.82 354.95 440.33 354.49 411.90 354.91 C 406.30 354.30 400.64 354.93 395.01 354.87 C 372.36 355.44 349.69 355.08 327.05 356.05 C 321.46 356.50 315.46 356.44 310.56 359.53 C 305.09 363.77 301.74 370.34 300.63 377.09 C 298.27 395.29 299.60 413.68 299.01 431.97 C 297.25 481.64 298.52 531.35 298.60 581.03 C 298.34 584.68 298.12 588.34 298.70 591.98 C 298.56 598.96 298.60 605.93 298.49 612.90 C 299.69 628.88 296.19 645.33 301.12 660.90 C 303.65 667.07 309.48 670.70 314.80 674.22 C 323.67 678.31 333.63 677.03 343.08 677.82 C 350.70 677.38 358.35 677.92 366.00 678.03 C 382.65 677.39 399.31 678.21 415.96 677.51 C 422.98 677.83 430.00 677.04 437.03 677.23 C 453.60 675.95 470.22 676.84 486.80 677.16 C 488.66 684.30 488.31 691.81 489.45 699.08 C 490.24 710.65 490.83 722.25 492.14 733.78 C 469.38 734.26 446.61 732.97 423.86 734.03 C 410.60 734.44 397.32 733.74 384.07 734.15 C 375.35 733.90 366.61 734.61 357.92 733.72 C 344.59 733.97 331.23 734.02 317.90 733.55 C 317.70 731.15 317.61 728.75 317.66 726.36 C 318.51 727.50 319.23 728.74 320.16 729.85 C 321.52 730.05 322.88 730.18 324.26 730.23 C 323.81 726.40 322.01 722.45 318.58 720.45 C 315.83 719.12 312.66 721.28 311.99 724.03 C 311.36 727.23 311.96 730.50 312.19 733.72 C 283.99 733.55 255.80 733.74 227.60 733.92 C 227.66 728.78 228.05 723.65 227.63 718.52 C 230.28 716.23 232.55 713.35 233.78 710.05 C 234.17 707.25 233.68 703.55 230.80 702.24 C 228.29 701.00 225.57 702.02 223.16 702.94 C 223.78 695.01 223.21 686.86 220.51 679.34 C 219.61 676.57 217.02 674.27 213.98 674.51 C 210.43 674.35 207.39 677.02 206.41 680.31 C 204.33 687.19 205.10 694.50 203.73 701.51 C 202.76 700.32 201.82 699.12 200.90 697.91 C 198.53 697.71 196.14 697.77 194.02 698.97 C 193.39 692.10 192.49 685.20 190.60 678.55 C 189.61 675.36 187.84 671.45 184.04 671.13 C 179.91 671.01 175.90 673.95 174.69 677.90 C 172.57 684.29 172.94 691.16 173.95 697.73 C 171.14 698.10 168.28 699.43 167.23 702.26 C 165.37 706.88 163.25 712.55 166.45 717.08 C 164.68 718.10 161.62 718.46 161.59 721.05 C 161.54 725.34 161.90 729.63 161.92 733.93 C 156.72 733.94 151.52 733.76 146.33 734.15 C 148.33 732.42 150.64 730.69 151.29 727.97 C 152.11 725.72 151.70 722.24 149.07 721.47 C 144.89 721.68 140.79 724.06 138.64 727.69 C 139.73 728.75 140.85 729.77 142.04 730.74 C 143.05 729.43 144.04 728.11 145.04 726.80 C 144.56 729.13 144.16 731.50 144.26 733.90 C 126.93 734.42 109.57 734.08 92.23 734.12 C 91.57 729.59 91.06 724.85 92.38 720.39 C 94.62 722.23 97.13 724.02 100.19 723.04 C 99.34 720.25 98.31 717.01 95.46 715.67 C 92.57 714.04 88.76 715.68 87.43 718.58 C 85.04 723.34 85.85 728.89 86.75 733.93 C 71.81 733.35 56.84 733.29 41.89 733.37 C 42.95 732.44 44.05 731.58 45.19 730.76 C 44.41 728.43 43.39 726.19 42.56 723.88 C 45.25 723.89 49.18 725.74 50.95 722.85 C 50.31 719.53 46.09 719.52 43.53 718.60 C 40.80 717.55 36.65 718.66 36.27 721.97 C 36.61 725.61 38.65 728.77 40.37 731.90 L 41.06 731.18 C 41.16 732.25 41.26 733.32 41.36 734.40 C 37.91 732.80 33.81 733.95 30.07 733.53 C 27.10 733.76 23.42 732.17 21.18 734.88 C 21.29 737.99 24.91 737.52 27.12 737.56 C 72.14 737.47 117.15 737.97 162.16 737.14 C 162.16 744.16 161.97 751.24 162.97 758.21 C 163.19 760.72 166.04 761.23 168.07 761.33 C 201.38 760.74 234.69 762.54 267.99 761.46 C 276.58 761.50 285.23 761.61 293.76 760.54 C 291.84 763.21 290.53 766.24 288.88 769.07 C 288.51 769.96 287.85 770.42 286.89 770.44 C 282.56 770.87 278.20 770.83 273.86 770.92 C 273.86 771.66 273.86 773.13 273.86 773.87 C 277.76 773.78 281.66 773.78 285.56 773.86 C 283.39 776.73 282.33 780.30 280.00 783.04 C 268.72 784.25 257.31 783.74 245.99 784.28 C 244.78 785.16 245.34 787.09 246.99 786.76 C 257.25 787.62 267.56 786.94 277.84 786.80 C 276.42 789.95 274.54 792.87 273.06 795.98 C 272.24 798.03 273.45 800.03 274.23 801.87 C 281.29 803.98 288.75 803.03 296.00 803.17 C 311.33 803.44 326.66 803.42 341.99 803.33 C 345.57 803.25 349.22 803.56 352.73 802.71 C 355.86 801.49 357.16 798.09 358.26 795.19 C 363.08 781.98 368.41 768.97 374.22 756.17 C 375.62 753.75 373.66 750.82 371.01 750.68 C 348.67 751.10 326.31 749.79 303.98 750.11 C 299.82 750.48 298.17 754.84 295.44 757.32 C 289.39 758.46 283.15 758.27 277.01 758.15 C 259.73 758.26 242.43 758.82 225.16 758.02 C 226.19 751.16 226.44 744.22 227.38 737.36 C 238.54 738.37 249.77 737.54 260.96 737.96 C 304.61 737.90 348.28 737.48 391.93 737.86 C 397.93 738.51 403.92 737.60 409.93 737.79 C 437.34 737.55 464.73 738.18 492.14 738.13 C 492.49 741.81 492.85 745.49 492.93 749.20 C 488.64 749.87 484.30 749.24 480.00 749.60 C 468.39 750.63 456.67 750.06 445.09 751.42 C 440.27 752.08 439.17 757.48 437.90 761.32 C 432.42 761.70 426.88 760.13 421.46 761.48 C 419.55 761.88 417.65 762.80 416.57 764.49 C 411.64 772.67 407.13 781.09 402.24 789.30 C 398.89 796.46 394.00 803.05 392.55 810.98 C 399.43 813.53 406.87 812.34 414.04 812.76 C 425.69 812.51 437.34 812.79 449.00 813.09 C 464.99 812.66 481.04 814.03 497.03 812.82 C 506.33 812.78 515.62 813.33 524.94 813.20 C 562.60 812.06 600.28 812.94 637.96 812.64 C 644.98 812.14 652.54 814.24 659.06 810.80 C 660.34 801.95 660.01 792.93 660.41 784.01 C 660.58 778.38 660.83 772.72 660.27 767.11 C 659.92 764.66 658.96 761.40 656.08 761.03 C 652.22 760.55 648.33 760.81 644.46 760.96 C 644.08 757.81 642.40 755.11 641.05 752.31 C 647.44 752.02 653.97 752.27 660.14 750.29 C 673.63 746.48 686.65 738.45 701.15 740.38 C 711.24 741.14 719.87 747.57 729.97 748.21 C 737.66 748.68 743.49 742.02 751.08 742.06 C 756.92 743.01 761.84 746.63 767.36 748.55 C 778.20 752.90 790.07 752.82 801.56 752.94 C 801.74 756.65 800.27 760.58 801.92 764.12 C 802.96 766.64 805.34 768.45 808.02 768.89 C 825.79 772.61 843.92 774.49 862.05 775.24 C 867.81 774.33 873.85 774.63 879.34 772.37 C 885.95 769.77 892.73 767.56 899.27 764.74 C 912.67 774.87 931.88 774.19 946.03 765.97 C 954.25 761.42 960.34 753.83 964.69 745.65 C 971.14 733.97 975.83 721.19 977.43 707.90 C 978.50 694.15 977.34 679.96 971.97 667.14 C 968.04 658.66 963.00 650.21 955.05 644.94 C 945.62 638.87 934.06 637.48 923.08 638.19 C 923.21 635.57 923.96 632.81 922.91 630.29 C 919.94 626.91 915.00 627.72 911.02 628.01 C 882.05 629.87 853.03 630.63 824.05 632.54 C 817.25 633.12 810.23 632.66 803.65 634.70 C 799.41 636.30 801.23 641.67 801.00 645.11 C 801.42 674.69 801.43 704.24 801.65 733.82 C 751.45 733.89 701.26 733.87 651.06 733.55 C 632.15 733.50 613.23 733.28 594.33 734.30 C 594.80 729.52 593.73 724.80 593.52 720.04 C 592.79 705.91 591.19 691.83 590.43 677.71 C 617.99 676.76 645.47 679.15 673.00 679.45 C 691.95 681.15 711.02 680.20 729.96 678.87 C 738.03 678.65 746.12 678.06 754.08 676.65 C 760.98 676.45 767.30 672.80 772.25 668.23 C 777.16 659.70 776.38 649.54 776.34 640.07 C 775.07 607.72 774.87 575.32 773.73 542.95 C 780.42 541.89 787.23 542.45 793.95 541.63 C 804.59 541.75 815.16 540.30 825.78 540.09 C 826.55 563.01 828.00 585.92 827.59 608.86 C 825.98 606.47 824.78 603.84 823.03 601.57 C 820.57 600.23 817.29 603.49 819.22 605.81 C 821.67 610.58 824.51 615.15 827.14 619.83 C 828.27 621.32 829.59 624.29 831.93 623.02 C 834.21 621.36 835.36 618.62 836.13 616.00 C 837.28 611.83 839.75 608.15 840.47 603.85 C 839.28 603.27 838.09 602.71 836.90 602.18 C 835.58 604.14 834.52 606.25 833.38 608.31 C 833.74 598.55 833.35 588.78 832.74 579.04 C 832.48 566.35 831.92 553.66 831.09 540.99 C 831.05 537.99 829.24 534.66 825.91 534.59 C 818.92 534.47 811.98 535.52 805.00 535.78 C 794.45 536.06 783.92 536.71 773.37 536.97 C 772.75 526.32 772.55 515.65 772.35 505.00 C 771.54 497.72 772.10 490.41 771.67 483.11 C 772.12 473.07 770.95 463.05 770.73 453.02 C 768.97 433.06 768.84 413.01 768.71 392.99 C 768.86 386.34 768.57 379.64 767.09 373.14 C 765.85 369.66 763.75 366.45 760.87 364.13 C 755.67 359.46 749.14 355.46 741.95 355.49 C 731.62 354.55 721.23 355.64 710.88 355.60 C 673.55 356.28 636.21 355.24 598.88 355.18 C 586.24 355.45 573.59 354.60 560.96 355.20 C 542.02 355.26 523.08 355.17 504.15 355.59 C 498.26 342.26 492.95 328.67 486.40 315.63 C 484.57 312.04 483.34 307.94 480.09 305.32 C 479.07 306.22 478.00 307.08 477.18 308.17 M 816.44 387.23 C 815.30 389.98 815.39 393.03 815.31 395.96 C 815.37 402.29 814.81 408.70 816.07 414.97 C 815.33 417.13 818.57 416.24 818.30 414.91 C 818.80 406.92 818.72 398.90 818.75 390.90 C 818.74 389.32 818.81 386.61 816.44 387.23 M 86.19 417.97 C 86.03 424.66 86.50 431.34 86.63 438.03 C 86.82 443.90 86.61 449.85 87.96 455.61 C 88.99 454.64 90.08 453.62 89.98 452.08 C 90.64 444.09 90.26 436.07 90.18 428.07 C 89.92 424.01 90.17 419.68 88.08 416.02 C 87.61 416.51 86.66 417.49 86.19 417.97 M 860.98 453.91 C 858.35 457.24 856.40 461.06 855.09 465.09 C 848.80 459.05 839.57 456.27 830.97 457.39 C 826.11 458.60 820.87 460.74 818.38 465.39 C 814.82 469.83 814.67 475.73 813.93 481.11 C 809.99 481.05 805.59 481.11 802.40 483.76 C 802.96 485.29 803.07 487.42 804.84 488.14 C 807.74 489.23 810.93 489.32 813.99 489.62 C 823.64 489.69 833.28 490.51 842.93 490.33 C 852.94 490.25 862.90 491.36 872.89 491.82 C 878.61 492.27 884.36 492.43 890.10 492.65 C 903.29 492.51 916.63 493.17 929.64 490.57 C 931.88 489.88 935.76 487.99 933.86 485.14 C 932.92 482.96 930.19 483.98 928.36 483.66 C 926.42 476.56 923.55 469.14 917.83 464.22 C 912.74 459.78 905.11 461.29 900.12 465.10 C 894.50 457.00 886.47 449.31 876.21 448.28 C 870.51 447.26 865.11 450.29 860.98 453.91 M 875.43 527.35 C 875.61 535.20 876.38 543.15 877.28 551.00 C 877.21 553.17 880.47 553.41 880.32 551.04 C 881.01 543.99 880.07 536.87 879.13 529.88 C 879.08 527.86 877.21 524.33 875.43 527.35 M 258.19 643.05 C 258.86 648.45 258.12 653.96 259.15 659.32 C 259.60 659.44 260.52 659.68 260.97 659.80 C 263.46 655.80 262.39 650.57 262.57 646.04 C 261.99 641.41 263.12 636.07 260.08 632.12 C 256.54 634.77 258.15 639.35 258.19 643.05 M 67.34 701.34 C 64.97 705.59 63.25 710.60 64.18 715.52 C 64.62 718.75 65.02 722.50 68.03 724.47 C 71.67 723.36 71.29 718.67 69.16 716.25 C 69.25 712.14 69.29 707.65 72.31 704.47 C 76.37 709.33 75.95 716.16 77.94 721.91 C 78.99 721.67 80.04 721.42 81.08 721.18 C 81.62 717.06 81.36 712.86 80.03 708.92 C 78.82 705.22 77.80 700.85 74.25 698.68 C 71.68 697.15 68.61 698.98 67.34 701.34 M 644.24 721.82 C 645.41 723.25 648.32 723.23 649.12 721.36 C 650.16 719.28 650.74 716.99 652.04 715.03 C 653.24 717.72 654.37 720.53 656.39 722.74 C 658.85 723.55 661.12 721.92 663.29 721.01 C 662.86 723.08 662.11 725.18 662.61 727.32 C 666.49 728.21 669.11 724.35 669.92 721.08 C 670.67 718.85 670.72 715.37 667.96 714.57 C 664.71 714.44 661.70 716.07 658.80 717.33 C 657.87 713.89 657.17 708.92 652.92 708.17 C 646.40 708.05 641.87 715.99 644.24 721.82 M 417.72 717.46 C 416.75 721.00 416.98 725.12 419.05 728.24 C 420.29 728.44 421.54 728.47 422.81 728.34 C 423.17 724.92 422.74 721.26 424.59 718.19 C 427.10 721.13 429.32 724.31 432.08 727.04 C 433.24 726.27 435.01 725.88 435.09 724.20 C 433.85 719.47 431.10 714.76 426.65 712.45 C 422.85 710.46 418.87 713.96 417.72 717.46 M 118.70 728.30 C 119.53 728.30 121.18 728.30 122.00 728.29 C 124.00 725.31 124.86 721.68 127.24 718.93 C 127.36 721.64 127.04 724.36 127.20 727.08 C 127.67 728.38 129.23 728.55 130.30 729.14 C 132.73 725.72 133.10 721.09 131.75 717.19 C 130.95 715.00 128.56 712.68 126.10 713.97 C 121.15 716.74 118.48 722.75 118.70 728.30 M 458.28 722.10 C 459.67 725.82 463.64 722.43 465.75 721.19 C 465.27 723.16 464.70 725.14 464.63 727.19 C 465.76 728.87 468.61 728.56 469.58 726.86 C 471.27 724.21 472.06 721.00 471.92 717.88 C 471.91 715.96 470.23 713.77 468.14 714.61 C 464.24 715.86 459.61 717.87 458.28 722.10 M 686.78 721.83 C 686.45 723.40 687.36 724.99 689.08 724.96 C 691.96 724.56 694.64 723.31 697.35 722.31 C 696.41 725.03 694.57 727.97 696.20 730.83 C 701.93 731.30 703.71 724.55 703.56 720.06 C 703.28 716.93 699.54 716.19 697.03 716.82 C 693.33 717.66 689.40 718.95 686.78 721.83 M 106.32 720.32 C 102.71 722.07 105.56 726.18 107.95 727.61 C 112.07 726.97 110.65 717.96 106.32 720.32 M 629.45 720.72 C 626.02 722.93 628.64 727.53 629.68 730.47 C 630.65 733.12 633.58 733.38 635.78 732.14 C 635.55 730.65 635.31 729.18 635.06 727.72 C 637.28 728.16 640.31 727.92 640.81 725.18 C 637.74 722.62 633.77 718.52 629.45 720.72 M 347.06 730.69 C 347.80 730.86 349.30 731.19 350.05 731.35 C 351.60 730.47 352.26 728.69 353.36 727.37 C 353.60 728.28 354.07 730.12 354.30 731.03 C 355.27 731.65 356.25 732.27 357.23 732.90 C 360.01 730.56 359.01 726.85 358.07 723.86 C 357.39 721.82 355.22 719.77 352.97 720.86 C 349.27 722.55 347.08 726.71 347.06 730.69 M 328.65 729.25 C 329.28 731.48 331.98 731.32 333.83 731.19 C 333.82 729.38 334.19 727.39 333.10 725.81 C 330.96 723.92 326.91 726.58 328.65 729.25 M 230.33 749.28 C 230.30 749.93 230.26 751.22 230.23 751.86 C 236.88 752.52 243.57 751.90 250.23 752.34 C 250.21 751.09 250.20 749.86 250.19 748.64 C 243.58 749.08 236.95 748.99 230.33 749.28 M 250.62 748.95 C 250.61 749.71 250.60 751.22 250.59 751.98 C 255.53 751.71 260.54 752.21 265.43 751.29 C 265.76 750.81 266.43 749.85 266.76 749.38 C 261.42 748.52 256.00 748.87 250.62 748.95 M 715.78 772.68 C 716.26 773.68 716.76 774.67 717.30 775.67 C 726.32 773.34 735.71 773.92 744.92 773.28 C 756.90 773.39 768.88 773.16 780.85 772.66 C 783.12 772.18 786.37 773.08 787.56 770.48 C 778.50 769.18 769.32 770.09 760.20 769.84 C 751.15 769.25 742.06 769.96 733.00 769.92 C 727.25 770.73 721.08 769.89 715.78 772.68 M 96.01 772.86 C 94.12 772.97 90.73 772.39 91.65 775.45 C 117.70 776.98 143.80 775.41 169.88 775.33 C 181.90 774.91 193.95 775.91 205.94 774.75 C 205.89 774.12 205.80 772.87 205.75 772.24 C 195.73 772.46 185.73 771.48 175.71 771.82 C 175.65 772.52 175.52 773.91 175.46 774.60 C 175.42 773.91 175.34 772.52 175.30 771.82 C 148.88 772.48 122.45 772.86 96.01 772.86 M 225.48 772.20 C 225.47 772.92 225.45 774.36 225.44 775.08 C 231.07 775.04 236.72 774.87 242.31 774.31 C 242.26 773.78 242.16 772.73 242.11 772.21 C 236.65 770.86 231.00 772.03 225.48 772.20 M 47.07 782.22 C 47.13 782.90 47.26 784.26 47.32 784.93 C 51.75 785.79 56.28 785.77 60.78 785.86 C 60.80 785.11 60.83 783.62 60.84 782.88 C 56.32 781.90 51.65 781.66 47.07 782.22 M 78.67 782.36 C 78.42 783.05 77.93 784.43 77.68 785.12 C 79.77 786.83 82.58 787.01 85.17 787.27 C 97.77 787.95 110.39 787.42 123.00 787.42 C 128.91 787.38 134.82 787.35 140.71 786.80 C 140.64 786.07 140.50 784.60 140.43 783.86 C 129.60 783.59 118.78 784.30 107.95 783.90 C 98.17 783.87 88.32 784.13 78.67 782.36 M 158.82 784.88 C 158.84 785.43 158.90 786.53 158.92 787.08 C 170.07 787.92 181.30 787.27 192.47 787.07 C 192.39 786.35 192.24 784.90 192.17 784.17 C 181.05 784.35 169.91 784.15 158.82 784.88 M 208.25 783.91 C 208.25 784.59 208.24 785.94 208.24 786.62 C 212.45 786.79 216.68 786.94 220.88 786.54 C 222.65 786.39 223.27 783.52 221.00 783.45 C 216.75 783.59 212.50 783.76 208.25 783.91 M 736.02 785.64 C 727.17 786.09 718.26 785.68 709.45 786.80 C 709.71 788.39 710.56 789.20 712.00 789.20 C 726.35 790.08 740.66 788.55 755.01 788.57 C 773.15 788.42 791.30 789.09 809.45 788.79 C 809.27 788.13 808.91 786.82 808.73 786.17 C 802.82 785.46 796.84 786.07 790.92 785.64 C 772.62 785.78 754.31 784.77 736.02 785.64 M 876.07 788.22 C 876.09 788.91 876.12 790.29 876.14 790.98 C 888.76 790.59 901.39 790.54 914.02 790.17 C 916.38 789.79 919.54 790.48 920.85 787.88 C 905.94 787.14 890.96 787.34 876.07 788.22 M 749.96 798.61 C 741.37 798.88 732.77 797.75 724.21 798.47 C 724.29 799.11 724.46 800.37 724.54 801.00 C 746.31 802.84 768.19 802.92 790.03 802.77 C 801.45 802.64 812.95 803.20 824.33 802.13 C 824.11 800.69 824.71 798.62 822.80 798.23 C 798.53 797.85 774.24 799.21 749.96 798.61 M 857.39 799.57 C 857.39 800.13 857.37 801.24 857.37 801.79 C 864.59 803.11 872.04 802.30 879.36 802.91 C 881.08 803.37 882.50 802.41 883.78 801.40 C 884.28 802.00 884.78 802.62 885.29 803.25 C 893.63 803.05 901.99 803.75 910.33 803.12 C 910.22 802.41 909.99 800.98 909.87 800.27 C 894.93 800.19 880.00 799.69 865.07 799.19 C 862.51 799.18 859.88 798.88 857.39 799.57 M 279.81 814.74 C 279.74 815.56 279.59 817.21 279.52 818.04 C 293.94 818.71 308.40 818.43 322.83 818.95 C 322.67 818.12 322.36 816.45 322.20 815.62 C 308.25 814.38 293.90 814.31 279.81 814.74 M 322.82 815.79 C 322.87 816.49 322.97 817.89 323.02 818.58 C 326.60 819.48 330.35 819.03 334.01 819.19 C 341.33 819.08 348.68 819.49 355.98 818.82 C 357.36 818.95 357.66 817.29 358.40 816.51 C 354.80 815.69 351.09 815.68 347.42 815.70 C 347.02 816.57 346.63 817.46 346.24 818.35 C 346.36 817.71 346.59 816.43 346.71 815.79 C 340.77 815.21 334.79 815.72 328.83 815.41 C 326.84 815.53 324.71 814.99 322.82 815.79 M 377.10 816.10 C 377.12 816.77 377.14 818.11 377.15 818.78 C 384.11 819.24 391.10 819.11 398.06 819.60 C 401.12 819.77 404.22 819.80 407.26 819.29 C 407.05 818.71 406.61 817.53 406.39 816.95 C 396.67 815.79 386.87 816.27 377.10 816.10 M 150.78 828.02 C 148.08 828.37 149.45 832.96 152.02 832.07 C 159.98 831.16 167.94 829.94 175.97 829.93 C 195.63 830.82 215.29 829.26 234.96 829.79 C 249.00 829.61 263.01 830.48 277.05 830.21 C 288.69 829.93 300.33 830.90 311.97 830.87 C 313.96 830.91 313.27 828.12 313.72 826.91 C 304.90 825.51 295.92 826.59 287.05 825.92 C 280.39 825.51 273.73 825.56 267.07 825.67 C 240.39 824.47 213.66 825.43 186.96 825.51 C 174.84 824.64 162.69 825.78 150.78 828.02 M 570.03 828.50 C 550.37 828.45 530.71 828.58 511.05 828.53 C 504.02 828.60 496.99 829.08 489.97 828.78 C 487.32 828.66 484.66 828.83 482.10 829.54 C 482.08 831.82 483.69 833.16 485.98 832.79 C 521.02 832.11 556.08 833.38 591.12 832.45 C 598.72 831.71 606.36 831.44 613.99 831.01 C 625.61 829.72 637.31 829.73 648.99 829.69 C 662.99 828.96 677.02 829.10 691.00 830.16 C 705.81 830.56 720.63 830.92 735.43 830.53 L 735.87 829.14 L 735.27 828.19 C 728.09 827.04 720.75 827.45 713.55 826.51 C 691.73 825.78 669.88 823.26 648.04 825.11 C 621.97 824.64 596.09 828.85 570.03 828.50 M 27.92 828.22 C 26.23 828.04 24.90 829.20 23.52 829.97 C 24.35 830.55 25.20 831.10 26.08 831.61 C 48.73 831.60 71.47 832.01 94.13 831.04 C 110.99 829.09 127.99 830.01 144.87 828.64 C 144.09 827.10 142.76 826.07 140.97 826.33 C 128.62 826.59 116.26 826.00 103.92 826.58 C 78.64 828.58 53.25 828.50 27.92 828.22 M 322.83 828.44 C 323.29 829.62 323.20 831.97 325.05 831.79 C 354.50 831.63 383.97 831.93 413.43 831.29 L 414.13 830.84 C 414.44 830.27 415.07 829.12 415.38 828.54 C 413.89 828.18 412.40 828.02 410.89 828.06 C 400.62 828.28 390.34 828.62 380.07 828.50 C 365.04 828.09 349.99 828.90 334.97 828.00 C 330.92 827.80 326.78 827.22 322.83 828.44 M 415.62 828.29 C 415.70 828.69 415.87 829.49 415.95 829.89 C 416.22 830.13 416.77 830.61 417.04 830.85 C 423.03 830.86 429.03 830.50 435.02 830.48 C 439.85 830.28 444.79 830.59 449.50 829.26 C 448.88 828.88 447.65 828.12 447.03 827.74 C 436.58 827.89 426.03 827.33 415.62 828.29 M 818.99 828.59 C 798.98 828.56 778.96 828.29 758.97 829.11 C 757.11 829.07 755.28 829.64 754.63 831.57 C 768.04 832.30 781.51 831.71 794.94 831.88 C 807.62 831.53 820.28 832.21 832.95 832.15 C 847.27 832.02 861.56 832.99 875.87 833.48 C 899.61 833.74 923.41 834.49 947.10 832.52 C 949.24 831.97 952.31 832.53 953.40 830.13 C 953.38 828.16 951.67 827.81 950.09 827.87 C 929.08 828.33 908.06 829.33 887.04 829.14 C 864.35 829.30 841.68 827.64 818.99 828.59 M 454.34 829.40 C 451.94 829.21 453.13 832.14 454.83 832.06 C 461.24 832.27 467.67 832.38 474.09 832.23 C 475.43 832.18 476.02 831.44 475.85 829.99 C 472.32 829.06 468.62 829.69 465.02 829.52 C 461.46 829.62 457.88 829.05 454.34 829.40 Z" />
<path fill="rgba(0,0,0,0)" opacity="1.00" d=" M 439.97 208.81 C 447.14 204.66 455.84 207.78 462.34 211.76 C 471.53 218.61 476.77 229.18 482.13 239.00 C 482.63 240.92 485.39 239.57 485.29 238.02 C 484.98 234.28 482.83 231.05 481.55 227.61 C 484.36 225.71 487.40 223.46 491.03 224.04 C 498.00 224.78 504.62 228.58 508.76 234.25 C 512.64 239.54 512.96 247.47 508.79 252.70 C 505.70 257.09 500.26 258.51 495.51 260.30 C 485.81 263.40 476.01 266.51 465.82 267.43 C 457.97 268.66 450.01 268.73 442.09 269.07 C 427.14 269.72 412.13 268.66 397.47 265.63 C 392.45 263.85 388.48 258.33 389.87 252.90 C 391.30 245.85 397.14 238.33 405.03 238.94 C 408.89 238.83 411.91 241.37 415.20 242.94 C 418.75 242.51 418.91 238.41 419.92 235.77 C 424.45 225.52 429.96 214.70 439.97 208.81 Z" />
<path fill="rgba(0,0,0,0)" opacity="1.00" d=" M 361.01 382.91 C 372.30 382.02 383.62 382.61 394.94 382.16 C 402.61 382.65 410.25 381.55 417.93 381.81 C 424.59 382.35 431.30 382.26 437.97 381.80 C 446.38 382.15 454.79 381.93 463.21 382.17 C 472.06 382.87 480.99 382.61 489.87 382.57 C 495.56 382.82 501.28 382.77 506.96 382.34 C 527.59 383.00 548.36 381.11 569.04 381.67 C 579.08 381.49 589.11 382.83 599.15 382.24 C 605.42 383.05 611.72 382.03 617.99 382.66 C 630.03 382.57 642.07 382.72 654.11 382.65 C 665.09 383.04 676.11 382.36 687.08 383.22 C 691.72 382.65 696.38 383.36 701.06 383.14 C 709.66 383.64 718.26 382.82 726.87 383.26 C 731.88 383.52 736.90 382.64 741.90 383.19 C 740.75 400.51 741.64 417.84 742.28 435.18 C 743.77 461.44 744.11 487.75 744.69 514.03 C 745.55 522.13 744.87 530.31 745.72 538.43 C 732.19 539.51 718.60 539.38 705.04 539.01 C 698.43 538.16 691.24 538.21 685.41 534.58 C 677.86 528.69 675.37 518.98 672.20 510.41 C 669.60 503.74 668.63 496.39 665.02 490.15 C 661.07 488.93 662.57 494.01 663.04 496.15 C 666.49 509.33 669.30 523.26 677.45 534.51 C 682.25 541.33 691.00 543.20 698.82 543.80 C 714.46 545.09 730.18 544.31 745.86 544.15 C 746.16 559.09 747.35 574.00 747.33 588.95 C 748.30 603.64 748.42 618.38 748.15 633.11 C 732.77 633.77 717.36 633.51 701.99 634.19 C 682.31 634.03 662.65 633.09 642.96 632.68 C 607.95 631.87 572.98 633.51 537.97 633.27 C 508.99 633.65 480.06 631.56 451.08 632.14 C 430.74 632.14 410.40 633.14 390.05 632.78 C 368.24 632.23 346.36 632.04 324.65 634.55 C 324.50 626.65 323.91 618.74 324.50 610.84 C 323.84 589.21 324.29 567.54 324.10 545.89 C 323.56 517.53 324.89 489.15 324.65 460.78 C 326.42 434.99 323.53 409.11 325.29 383.33 C 337.20 383.62 349.16 382.05 361.01 382.91 M 509.26 396.87 C 509.24 399.29 510.44 401.47 511.41 403.62 C 516.01 412.99 520.52 422.40 525.43 431.61 C 526.13 432.97 527.16 434.11 528.20 435.23 C 528.77 434.70 529.90 433.64 530.46 433.11 C 525.85 421.04 519.69 409.64 513.98 398.07 C 513.19 395.81 511.03 394.98 509.26 396.87 M 530.31 398.69 C 530.79 402.41 532.32 405.84 533.75 409.26 C 537.39 417.61 540.40 426.25 544.74 434.29 C 545.29 435.33 546.51 437.66 547.92 436.11 C 549.53 435.67 548.25 433.81 548.18 432.77 C 545.01 423.73 541.27 414.91 537.57 406.09 C 536.38 403.38 535.21 400.63 533.44 398.24 C 532.38 398.32 531.34 398.47 530.31 398.69 M 366.53 404.67 C 360.51 407.86 358.46 417.38 364.00 421.97 C 370.14 426.89 380.90 422.20 380.80 414.12 C 381.74 406.87 372.89 400.67 366.53 404.67 M 353.37 406.42 C 351.35 408.55 351.36 412.22 350.61 415.04 C 349.76 417.72 352.74 419.83 355.03 418.25 C 355.91 415.20 356.10 411.98 356.43 408.83 C 357.03 407.07 354.87 405.48 353.37 406.42 M 664.50 436.74 C 671.32 444.48 675.29 454.12 679.54 463.39 C 680.35 464.85 680.95 466.97 682.97 467.04 C 683.96 466.05 685.24 464.66 684.70 463.15 C 682.24 454.19 677.83 445.89 672.74 438.17 C 671.42 436.53 670.02 434.47 667.82 434.08 C 666.07 433.67 665.40 435.71 664.50 436.74 M 655.25 449.33 C 652.75 452.60 651.38 456.55 649.39 460.13 C 648.21 462.69 646.34 465.12 646.27 468.05 C 647.53 469.67 649.74 471.02 651.76 469.80 C 657.83 467.10 664.86 466.79 670.40 462.86 C 669.47 461.63 668.93 459.29 666.96 459.57 C 662.53 459.85 658.47 461.90 654.30 463.22 C 655.67 458.77 659.39 454.88 658.79 449.97 C 657.83 448.89 656.52 448.35 655.25 449.33 M 630.20 450.14 C 627.96 451.68 628.76 454.69 629.05 456.94 C 630.57 466.31 632.62 476.07 638.21 483.94 C 639.77 486.56 643.60 483.46 642.18 481.08 C 637.99 472.49 635.99 463.09 634.23 453.76 C 633.67 452.02 632.68 448.32 630.20 450.14 M 546.61 462.89 C 540.05 462.73 533.53 463.34 526.98 463.44 C 503.64 463.95 480.30 463.47 456.96 463.91 C 454.77 464.07 452.05 463.86 450.53 465.78 C 449.61 467.68 449.41 469.84 449.19 471.92 C 448.60 490.94 449.93 509.94 450.63 528.94 C 450.66 531.79 451.23 534.64 452.28 537.29 C 453.09 537.73 453.95 537.99 454.89 538.05 C 466.93 538.66 478.98 538.44 491.03 538.35 C 499.98 538.95 508.94 538.34 517.90 538.63 C 528.02 538.13 538.17 538.57 548.29 537.87 C 566.44 537.02 584.59 535.80 602.71 534.51 C 603.89 533.36 604.24 531.60 604.24 530.01 C 604.09 519.99 603.18 510.01 602.99 500.01 C 602.14 488.81 602.37 477.50 600.37 466.42 C 598.78 462.95 594.22 463.49 591.08 463.03 C 576.27 462.31 561.43 462.87 546.61 462.89 M 357.19 504.09 C 355.79 505.34 356.35 507.38 356.26 509.03 C 356.65 516.30 356.72 523.81 359.28 530.73 C 359.97 531.66 360.33 534.16 362.05 533.12 C 364.56 532.75 363.95 529.71 363.68 527.94 C 361.92 520.43 362.21 512.64 361.01 505.05 C 361.02 503.17 358.04 502.10 357.19 504.09 M 378.48 518.43 C 376.72 518.64 376.00 520.37 376.23 521.97 C 376.58 528.21 377.26 534.44 378.85 540.50 C 379.54 542.87 379.69 545.75 381.89 547.30 C 385.17 547.19 384.77 543.28 384.27 541.02 C 382.83 534.40 382.06 527.67 380.97 521.00 C 380.76 519.93 379.72 518.00 378.48 518.43 Z" />
<path fill="rgba(0,0,0,0)" opacity="1.00" d=" M 871.36 455.46 C 875.95 453.80 880.78 455.74 884.58 458.35 C 888.99 461.54 892.97 465.36 896.25 469.72 C 898.38 472.48 900.14 475.64 903.07 477.68 C 906.19 475.57 905.25 471.84 903.46 469.18 C 907.12 468.16 911.90 465.86 915.06 469.17 C 919.16 473.67 921.42 479.49 923.29 485.20 C 900.26 488.17 877.12 485.15 854.07 484.36 C 842.85 484.34 831.66 483.79 820.46 483.60 C 820.08 478.06 820.88 472.02 825.02 467.95 C 828.85 463.15 835.78 463.19 841.20 464.73 C 848.53 466.57 853.52 472.59 859.15 477.15 C 860.30 476.18 861.84 475.49 862.49 474.04 C 862.32 470.97 860.45 467.87 861.73 464.82 C 863.43 460.57 866.65 456.43 871.36 455.46 Z" />
<path fill="rgba(0,0,0,0)" opacity="1.00" d=" M 518.27 486.02 C 519.91 485.71 523.37 484.97 522.72 487.82 C 522.78 490.36 520.06 489.80 518.34 489.83 C 518.28 488.56 518.26 487.29 518.27 486.02 Z" />
<path fill="rgba(0,0,0,0)" opacity="1.00" d=" M 500.44 492.61 C 507.04 490.09 515.10 495.92 514.14 503.08 C 514.19 511.73 501.92 515.94 496.19 509.81 C 490.66 504.83 493.19 494.44 500.44 492.61 M 501.15 496.27 C 497.23 498.10 496.70 503.72 498.93 507.05 C 501.72 510.76 508.57 509.28 509.47 504.66 C 511.40 499.68 506.42 493.65 501.15 496.27 Z" />
<path fill="rgba(0,0,0,0)" opacity="1.00" d=" M 549.63 495.57 C 553.07 490.77 561.33 490.49 564.84 495.36 C 566.61 497.53 566.80 500.47 567.26 503.12 C 562.09 503.43 556.92 502.92 551.75 503.14 C 552.73 505.59 554.19 508.36 557.16 508.64 C 560.81 509.86 563.25 504.53 566.76 506.84 C 563.68 514.63 550.81 513.77 548.07 506.13 C 547.27 502.63 547.40 498.55 549.63 495.57 M 552.43 500.77 C 556.01 500.97 559.61 500.94 563.19 500.68 C 562.44 498.95 562.29 496.40 560.16 495.80 C 556.65 494.09 552.17 496.74 552.43 500.77 Z" />
<path fill="rgba(0,0,0,0)" opacity="1.00" d=" M 518.64 493.21 C 519.98 493.21 521.33 493.23 522.68 493.25 C 522.81 499.57 522.86 505.90 522.90 512.23 C 521.51 512.22 520.12 512.21 518.74 512.22 C 518.51 505.88 518.65 499.55 518.64 493.21 Z" />
<path fill="rgba(0,0,0,0)" opacity="1.00" d=" M 527.18 493.19 C 528.94 493.13 530.77 493.19 531.39 495.21 C 534.41 491.30 541.74 491.22 543.42 496.42 C 544.78 501.55 543.85 506.95 544.34 512.20 C 542.91 512.16 541.49 512.14 540.07 512.12 C 539.79 507.32 540.76 502.25 539.18 497.64 C 537.13 494.19 531.96 496.71 531.40 500.07 C 530.94 504.12 531.26 508.22 531.20 512.29 C 529.84 512.25 528.49 512.21 527.15 512.18 C 526.77 505.86 526.70 499.50 527.18 493.19 Z" />
<path fill="rgba(0,0,0,0)" opacity="1.00" d=" M 881.55 646.03 C 893.79 643.86 905.87 640.88 917.71 637.09 C 917.38 638.14 917.41 639.65 915.95 639.76 C 909.82 642.08 902.68 644.21 899.21 650.27 C 898.01 652.61 896.51 655.52 897.88 658.11 C 900.13 662.03 904.35 665.30 909.07 665.05 C 911.68 664.75 913.94 663.29 916.32 662.28 C 915.34 691.13 914.96 720.02 912.58 748.79 C 908.32 746.18 905.30 741.08 899.94 740.70 C 895.22 740.16 891.43 744.63 890.77 748.95 C 890.09 753.11 892.25 756.98 894.72 760.13 C 889.22 762.22 883.74 764.33 878.30 766.58 C 881.61 726.49 881.61 686.23 881.55 646.03 Z" />
<path fill="rgba(0,0,0,0)" opacity="1.00" d=" M 806.61 640.77 C 825.23 641.51 843.66 644.80 862.26 646.00 C 862.19 659.16 862.96 672.32 862.17 685.46 C 860.30 713.44 862.71 741.51 861.12 769.50 C 843.05 768.35 824.94 766.85 807.18 763.23 C 807.64 760.50 807.54 757.74 807.42 755.00 C 807.20 738.66 807.79 722.31 807.26 705.98 C 806.86 684.24 806.95 662.51 806.61 640.77 Z" />
<path fill="rgba(0,0,0,0)" opacity="1.00" d=" M 917.08 644.85 C 927.54 641.36 939.03 642.59 949.00 647.00 C 955.35 650.00 959.88 655.70 963.36 661.63 C 969.92 672.14 972.39 684.67 972.87 696.91 C 973.61 706.25 971.98 715.71 968.56 724.41 C 965.58 732.10 962.24 739.74 957.60 746.60 C 951.16 757.45 939.44 764.52 927.15 766.67 C 920.55 767.48 913.31 768.18 907.35 764.59 C 902.42 761.77 897.39 757.76 895.78 752.08 C 894.88 749.27 897.21 747.38 899.24 746.01 C 905.01 748.98 909.41 754.65 916.17 755.56 C 926.20 756.81 935.23 750.73 941.97 743.92 C 952.23 732.89 960.10 718.59 959.84 703.15 C 959.71 690.63 959.75 676.70 951.50 666.42 C 948.00 661.35 942.61 658.00 936.85 656.09 C 927.71 654.31 917.88 655.04 909.74 659.88 C 905.95 662.43 900.82 658.17 902.83 653.96 C 905.30 648.44 911.85 646.68 917.08 644.85 Z" />
<path fill="rgba(0,0,0,0)" opacity="1.00" d=" M 681.50 646.51 C 686.76 644.70 693.26 650.41 691.23 655.90 C 690.06 659.92 684.90 661.66 681.31 659.75 C 675.72 657.76 675.53 648.15 681.50 646.51 M 681.90 653.93 C 682.05 656.82 684.76 653.89 685.45 652.94 C 684.19 651.78 681.14 651.26 681.90 653.93 Z" />
<path fill="rgba(0,0,0,0)" opacity="1.00" d=" M 868.33 646.08 C 870.79 646.37 873.27 646.69 875.75 647.01 C 876.19 675.68 875.76 704.36 874.75 733.02 C 873.91 744.51 873.21 756.01 872.09 767.48 C 872.33 770.08 869.37 769.70 867.66 770.28 C 867.51 740.19 866.74 710.08 867.87 680.00 C 867.86 668.69 868.27 657.39 868.33 646.08 Z" />
<path fill="rgba(0,0,0,0)" opacity="1.00" d=" M 658.52 647.16 C 662.08 645.54 667.05 646.62 668.43 650.63 C 671.42 656.28 664.42 662.08 659.00 660.29 C 655.69 659.61 654.04 655.99 654.23 652.89 C 654.63 650.40 656.50 648.50 658.52 647.16 M 659.66 651.85 C 659.43 653.32 659.50 654.80 659.94 656.25 C 661.37 655.15 662.15 653.61 662.46 651.86 C 661.52 651.85 660.58 651.84 659.66 651.85 Z" />
<path fill="rgba(0,0,0,0)" opacity="1.00" d=" M 522.24 652.71 C 522.81 650.90 523.44 649.13 524.18 647.39 C 526.10 647.74 528.07 647.85 530.04 647.66 C 534.48 648.62 539.06 647.86 543.54 648.48 C 544.02 650.38 543.05 652.30 542.00 653.85 C 535.43 653.25 528.81 653.31 522.24 652.71 Z" />
<path fill="rgba(0,0,0,0)" opacity="1.00" d=" M 922.13 661.19 C 926.79 660.64 931.81 659.77 936.27 661.71 C 940.21 663.42 944.31 665.42 946.90 669.00 C 950.30 673.58 951.98 679.16 953.23 684.67 C 942.68 684.24 932.03 684.46 921.60 682.83 C 921.89 675.62 922.15 668.41 922.13 661.19 Z" />
<path fill="rgba(0,0,0,0)" opacity="1.00" d=" M 180.35 678.25 C 181.05 676.64 182.77 676.17 184.28 675.67 C 187.52 684.08 188.34 693.14 188.58 702.08 C 188.62 706.07 187.73 710.04 185.93 713.61 C 182.79 710.31 181.97 705.52 180.34 701.39 C 178.68 693.86 177.18 685.60 180.35 678.25 Z" />
<path fill="rgba(0,0,0,0)" opacity="1.00" d=" M 209.65 686.16 C 210.42 682.97 211.01 678.19 215.25 678.15 C 218.71 684.88 218.40 692.66 218.02 700.01 C 217.76 704.99 215.68 709.77 212.66 713.70 C 211.78 714.88 210.05 714.73 208.82 715.30 C 208.12 705.61 208.05 695.76 209.65 686.16 Z" />
<path fill="rgba(0,0,0,0)" opacity="1.00" d=" M 921.55 688.61 C 932.31 688.13 943.07 689.67 953.81 689.85 C 954.60 701.82 955.43 715.02 948.37 725.43 C 945.79 728.34 944.94 732.73 941.12 734.42 C 934.03 733.48 926.85 733.48 919.72 732.89 C 920.75 724.61 920.36 716.25 920.75 707.94 C 921.31 701.51 921.04 695.04 921.55 688.61 Z" />
<path fill="rgba(0,0,0,0)" opacity="1.00" d=" M 193.61 713.95 C 194.71 709.92 195.97 705.82 198.49 702.42 C 200.12 705.58 200.13 709.17 200.33 712.64 C 198.00 712.50 195.75 713.09 193.61 713.95 Z" />
<path fill="rgba(0,0,0,0)" opacity="1.00" d=" M 173.11 703.14 C 175.18 705.55 176.54 708.48 177.58 711.47 C 178.80 714.68 174.61 719.01 171.52 716.45 C 167.84 712.59 170.11 706.68 173.11 703.14 Z" />
<path fill="rgba(0,0,0,0)" opacity="1.00" d=" M 220.11 715.98 C 220.51 711.52 223.68 707.86 227.13 705.29 C 227.72 706.59 229.63 707.95 228.40 709.47 C 226.42 712.36 223.85 715.54 220.11 715.98 Z" />
<path fill="rgba(0,0,0,0)" opacity="1.00" d=" M 186.67 718.32 C 191.16 719.76 195.79 717.90 200.33 717.70 C 203.31 722.29 209.45 720.06 213.66 718.82 C 215.38 719.85 216.93 721.36 218.96 721.76 C 220.54 721.43 222.06 720.84 223.59 720.35 C 223.31 732.97 223.07 745.63 221.10 758.13 C 208.08 757.38 195.01 758.03 181.97 757.53 C 177.13 757.26 172.23 757.84 167.45 756.94 C 167.08 745.20 166.87 733.45 166.71 721.71 C 168.97 721.66 171.24 721.97 173.22 723.12 C 177.48 724.09 179.83 720.19 182.02 717.33 C 183.58 717.61 185.13 717.92 186.67 718.32 M 205.99 726.28 C 205.81 727.10 205.44 728.74 205.25 729.56 C 210.77 729.54 216.31 729.46 221.79 728.77 C 221.78 728.04 221.75 726.59 221.74 725.86 C 216.48 725.73 211.23 725.96 205.99 726.28 M 170.31 728.32 C 169.98 728.79 169.34 729.74 169.02 730.22 C 179.64 731.36 190.33 730.15 200.97 730.05 C 202.75 730.08 206.60 729.88 204.84 727.17 C 204.48 726.98 203.77 726.62 203.41 726.44 C 197.33 726.75 191.24 726.71 185.17 727.08 C 180.20 727.30 175.15 727.00 170.31 728.32 Z" />
<path fill="rgba(0,0,0,0)" opacity="1.00" d=" M 594.85 738.38 C 611.34 738.91 627.86 738.36 644.37 738.63 C 657.33 738.69 670.34 737.80 683.26 738.99 C 672.54 742.53 662.36 748.16 650.95 749.26 C 643.54 749.47 636.38 746.70 628.96 747.18 C 617.80 747.00 606.64 746.68 595.48 746.92 C 594.97 744.10 594.83 741.23 594.85 738.38 Z" />
<path fill="rgba(0,0,0,0)" opacity="1.00" d=" M 919.22 737.65 C 925.93 737.64 932.59 738.44 939.28 738.94 C 936.40 741.21 933.62 743.60 930.73 745.86 C 927.29 748.49 922.91 749.13 918.81 750.03 C 919.15 745.91 919.17 741.78 919.22 737.65 Z" />
<path fill="rgba(0,0,0,0)" opacity="1.00" d=" M 710.44 738.86 C 715.97 738.23 721.53 738.95 727.08 738.87 C 733.41 738.85 739.75 738.46 746.08 738.98 C 741.67 741.63 736.97 744.14 731.80 744.85 C 724.21 745.27 717.16 741.94 710.44 738.86 Z" />
<path fill="rgba(0,0,0,0)" opacity="1.00" d=" M 752.89 739.11 C 769.13 738.21 785.42 738.81 801.68 738.62 C 801.73 741.75 801.79 744.88 801.69 748.02 C 799.19 748.84 796.66 749.71 794.00 749.73 C 784.00 749.95 773.71 748.91 764.57 744.58 C 760.72 742.66 756.71 741.07 752.89 739.11 Z" />
<path fill="rgba(0,0,0,0)" opacity="1.00" d=" M 306.62 753.93 C 327.92 753.52 349.26 754.75 370.56 753.81 C 369.03 757.50 366.97 760.93 365.25 764.52 C 360.46 774.20 357.05 784.47 353.57 794.67 C 338.36 794.28 323.18 793.23 307.98 792.75 C 298.44 792.40 288.93 793.23 279.41 793.42 C 286.36 783.23 292.12 772.30 299.26 762.24 C 301.43 759.22 304.43 756.94 306.62 753.93 M 310.13 770.16 C 308.16 772.70 305.92 775.11 304.52 778.04 C 304.01 780.41 306.94 781.82 308.98 781.47 C 312.57 778.11 314.77 773.56 318.15 769.99 C 319.75 773.67 320.39 777.86 322.89 781.10 C 324.66 783.24 327.84 782.33 329.53 780.58 C 335.51 775.33 341.33 769.89 347.56 764.94 C 346.60 763.63 345.37 761.07 343.37 762.34 C 337.32 766.43 331.48 770.96 326.40 776.22 C 324.06 771.29 323.89 764.92 319.19 761.43 C 315.26 763.25 312.89 767.01 310.13 770.16 Z" />
<path fill="rgba(0,0,0,0)" opacity="1.00" d=" M 421.47 766.52 C 425.09 765.11 429.17 766.12 432.98 765.72 C 450.31 764.51 467.70 764.94 485.06 764.84 C 515.38 766.02 545.71 764.47 576.03 764.50 C 594.34 764.53 612.65 764.56 630.95 764.90 C 639.25 765.12 647.56 765.62 655.87 765.18 C 655.69 771.17 656.15 777.17 655.66 783.15 C 643.39 784.49 631.04 785.38 618.69 785.30 C 619.01 783.28 619.37 781.29 619.80 779.31 C 631.40 778.77 643.05 779.06 654.60 777.61 C 654.35 777.03 653.87 775.86 653.63 775.27 C 646.14 775.14 638.63 775.52 631.17 776.11 C 630.50 774.87 629.82 773.64 629.14 772.43 C 627.97 773.54 626.98 774.80 626.07 776.13 C 619.20 775.99 612.34 776.46 605.47 776.31 C 605.08 775.50 604.30 773.89 603.90 773.08 C 602.83 773.98 601.91 775.02 600.99 776.07 C 597.77 776.22 594.55 776.38 591.33 776.46 C 590.93 775.85 590.13 774.64 589.74 774.04 C 586.28 776.52 581.94 776.69 577.87 776.22 C 577.25 775.06 576.69 773.88 576.18 772.69 C 574.20 774.07 572.73 776.84 569.99 776.46 C 560.55 776.29 551.11 776.36 541.68 776.63 C 540.96 775.39 540.41 773.97 539.05 773.32 C 537.96 774.18 537.01 775.19 535.94 776.08 C 530.95 776.41 525.94 775.97 520.94 776.15 C 520.70 774.67 520.44 773.21 520.18 771.75 C 517.62 772.23 516.43 774.58 515.04 776.50 C 506.74 775.67 498.40 776.10 490.08 776.12 C 489.39 774.70 488.69 773.26 487.99 771.87 C 486.62 773.15 485.44 774.63 484.00 775.83 C 475.04 775.71 466.06 775.45 457.09 775.43 C 454.95 775.67 454.16 773.44 452.98 772.16 C 451.49 772.56 450.67 773.97 449.61 774.97 C 440.73 774.80 431.84 774.70 422.96 774.96 C 422.93 775.76 422.87 777.35 422.83 778.14 C 429.11 778.17 435.38 778.04 441.65 778.53 C 440.11 780.66 438.63 782.85 437.36 785.15 C 429.72 784.55 421.95 784.18 414.34 785.18 C 414.09 785.95 413.59 787.48 413.34 788.25 C 418.10 788.43 422.87 788.21 427.62 788.71 C 425.82 791.48 424.08 794.34 421.83 796.79 C 416.67 797.88 410.98 796.12 406.08 798.57 C 406.53 799.19 407.44 800.43 407.89 801.05 C 416.26 801.64 424.67 800.79 433.05 801.46 C 443.35 801.75 453.67 801.82 463.98 801.84 C 471.68 802.10 479.41 802.63 487.12 802.07 C 491.74 802.79 496.42 802.02 501.08 802.33 C 521.31 802.29 541.52 802.34 561.75 802.37 C 578.45 802.56 595.16 802.99 611.86 802.87 C 626.08 803.71 640.34 803.27 654.58 803.14 C 654.61 802.32 654.69 800.68 654.73 799.86 C 645.88 798.96 636.97 799.40 628.10 799.28 C 628.25 796.26 628.33 793.23 628.17 790.22 C 624.38 791.39 624.78 795.77 623.85 798.86 C 615.88 798.80 607.90 798.84 599.94 798.61 C 600.17 795.48 600.50 792.36 601.21 789.30 C 619.32 788.51 637.53 789.32 655.52 786.71 C 654.98 793.87 654.97 801.07 655.39 808.25 C 635.59 808.72 615.78 808.06 595.97 808.35 C 583.26 808.45 570.55 808.61 557.84 808.10 C 546.92 808.77 535.97 807.90 525.06 808.61 C 514.02 808.81 502.98 808.00 491.95 808.30 C 479.31 809.01 466.67 808.05 454.03 808.37 C 435.23 808.05 416.40 808.24 397.61 807.75 C 402.61 797.87 407.98 788.20 413.60 778.66 C 416.08 774.54 417.81 769.79 421.47 766.52 Z" />
<path fill="rgba(0,0,0,0)" opacity="1.00" d=" M 445.58 778.60 C 454.09 778.46 462.62 778.27 471.10 779.09 C 469.49 781.43 467.76 783.69 466.00 785.94 C 458.10 785.12 450.15 785.55 442.24 785.03 C 443.41 782.91 444.57 780.79 445.58 778.60 Z" />
<path fill="rgba(0,0,0,0)" opacity="1.00" d=" M 475.67 778.89 C 484.74 778.69 493.82 778.74 502.89 779.17 C 501.44 781.56 500.27 784.09 499.06 786.60 C 490.07 786.80 481.06 786.22 472.07 786.06 C 473.18 783.63 474.43 781.26 475.67 778.89 Z" />
<path fill="rgba(0,0,0,0)" opacity="1.00" d=" M 507.19 778.88 C 515.59 779.43 524.01 779.06 532.42 779.03 C 530.67 781.65 529.21 784.45 527.75 787.25 C 519.94 787.39 512.14 786.74 504.33 786.94 C 505.51 784.33 506.50 781.65 507.19 778.88 Z" />
<path fill="rgba(0,0,0,0)" opacity="1.00" d=" M 535.33 779.67 C 542.45 779.21 549.60 779.20 556.73 779.11 C 556.24 781.77 555.70 784.41 555.21 787.07 C 547.71 787.01 540.21 787.24 532.73 786.92 C 533.52 784.47 534.44 782.08 535.33 779.67 Z" />
<path fill="rgba(0,0,0,0)" opacity="1.00" d=" M 562.65 779.49 C 570.61 779.02 578.61 779.12 586.59 779.16 C 585.82 781.83 585.12 784.79 583.03 786.77 C 575.75 786.12 568.47 786.93 561.18 787.04 C 561.63 784.51 561.91 781.94 562.65 779.49 Z" />
<path fill="rgba(0,0,0,0)" opacity="1.00" d=" M 589.49 779.07 C 598.12 779.65 606.77 779.01 615.41 779.52 C 614.88 781.62 614.26 783.70 613.61 785.78 C 605.33 785.82 597.04 786.46 588.77 785.90 C 588.98 783.61 589.25 781.34 589.49 779.07 Z" />
<path fill="rgba(0,0,0,0)" opacity="1.00" d=" M 426.11 797.03 C 427.33 793.83 429.66 791.29 431.97 788.86 C 439.37 788.80 446.79 788.78 454.18 789.39 C 452.09 792.03 450.62 795.25 448.01 797.44 C 440.72 797.43 433.41 797.22 426.11 797.03 Z" />
<path fill="rgba(0,0,0,0)" opacity="1.00" d=" M 575.88 789.82 C 582.88 789.10 589.98 789.52 597.02 789.45 C 596.70 792.59 596.20 795.73 595.17 798.73 C 587.60 798.42 580.05 798.15 572.48 798.30 C 573.02 795.39 573.27 791.63 575.88 789.82 Z" />
<path fill="rgba(0,0,0,0)" opacity="1.00" d=" M 457.44 789.62 C 465.70 789.68 474.00 789.64 482.23 790.36 C 480.94 792.85 480.35 796.00 478.00 797.76 C 469.86 797.56 461.69 797.79 453.58 797.11 C 454.87 794.62 456.16 792.12 457.44 789.62 Z" />
<path fill="rgba(0,0,0,0)" opacity="1.00" d=" M 486.32 790.15 C 495.70 790.65 505.13 789.80 514.49 790.73 C 513.37 793.16 512.16 795.56 510.84 797.90 C 501.61 798.28 492.37 797.58 483.15 798.12 C 483.98 795.37 485.11 792.75 486.32 790.15 Z" />
<path fill="rgba(0,0,0,0)" opacity="1.00" d=" M 515.71 797.76 C 516.87 794.75 517.55 789.42 521.88 789.97 C 528.73 790.29 535.58 789.91 542.44 789.88 C 541.56 792.88 540.45 795.84 538.63 798.41 C 531.01 797.33 523.34 798.39 515.71 797.76 Z" />
<path fill="rgba(0,0,0,0)" opacity="1.00" d=" M 544.47 797.87 C 545.37 795.11 546.37 792.40 547.44 789.72 C 555.20 790.14 562.96 789.56 570.73 789.75 C 569.84 792.61 568.90 795.47 567.74 798.25 C 559.99 797.53 552.22 798.26 544.47 797.87 Z" />
<path fill="rgba(0,0,0,0)" opacity="1.00" d=" M 277.25 799.31 C 278.66 798.37 280.19 797.47 281.95 797.49 C 287.64 797.26 293.35 797.19 299.05 796.87 C 314.39 796.55 329.69 798.02 345.03 798.30 C 347.70 798.48 350.71 798.17 352.94 800.00 C 351.29 800.26 349.63 800.42 347.97 800.46 C 332.31 799.80 316.64 800.32 300.98 799.92 C 293.08 799.70 285.07 800.94 277.25 799.31 Z" />
</g>
<g id="Group-000000" fill="#333F70">
<path fill="#333F70" opacity="1.00" d=" M 685.07 56.74 C 688.18 58.79 687.75 62.74 687.77 65.99 C 687.61 71.21 688.26 76.54 686.99 81.67 C 686.30 81.71 684.92 81.80 684.22 81.84 C 682.99 74.92 683.14 67.85 683.23 60.85 C 683.15 59.26 684.37 58.06 685.07 56.74 Z" />
<path fill="#333F70" opacity="1.00" d=" M 229.34 134.16 C 229.81 133.93 230.74 133.47 231.21 133.24 C 233.77 135.67 233.13 139.78 233.52 143.01 C 233.44 144.38 233.37 147.97 231.26 147.06 C 230.04 142.91 229.12 138.49 229.34 134.16 Z" />
<path fill="#333F70" opacity="1.00" d=" M 596.96 196.12 C 597.44 196.16 598.38 196.26 598.85 196.30 C 600.24 199.31 599.65 202.73 599.81 205.93 C 599.98 213.94 599.20 221.92 599.03 229.92 C 598.81 232.21 599.06 234.68 597.92 236.78 C 596.57 237.31 595.71 236.98 595.34 235.77 C 594.16 225.21 595.64 214.61 595.83 204.04 C 596.03 201.39 595.84 198.59 596.96 196.12 Z" />
<path fill="#333F70" opacity="1.00" d=" M 429.95 207.98 C 434.88 204.13 440.46 200.32 447.02 200.51 C 460.72 201.12 472.06 210.86 478.54 222.39 C 483.50 218.60 490.06 217.02 496.11 218.90 C 504.40 221.51 512.07 227.34 515.59 235.45 C 518.66 242.88 517.61 252.11 512.17 258.18 C 509.15 261.35 505.15 263.41 501.08 264.90 C 490.01 268.59 478.73 271.87 467.08 273.00 C 447.48 274.82 427.65 275.28 408.05 273.16 C 402.68 271.81 396.87 272.02 392.02 268.98 C 386.12 266.15 383.19 259.30 383.84 252.99 C 385.18 244.87 390.31 236.70 398.53 234.21 C 403.56 232.40 409.12 233.18 413.87 235.44 C 417.23 225.32 422.46 215.65 429.95 207.98 M 439.97 208.81 C 429.96 214.70 424.45 225.52 419.92 235.77 C 418.91 238.41 418.75 242.51 415.20 242.94 C 411.91 241.37 408.89 238.83 405.03 238.94 C 397.14 238.33 391.30 245.85 389.87 252.90 C 388.48 258.33 392.45 263.85 397.47 265.63 C 412.13 268.66 427.14 269.72 442.09 269.07 C 450.01 268.73 457.97 268.66 465.82 267.43 C 476.01 266.51 485.81 263.40 495.51 260.30 C 500.26 258.51 505.70 257.09 508.79 252.70 C 512.96 247.47 512.64 239.54 508.76 234.25 C 504.62 228.58 498.00 224.78 491.03 224.04 C 487.40 223.46 484.36 225.71 481.55 227.61 C 482.83 231.05 484.98 234.28 485.29 238.02 C 485.39 239.57 482.63 240.92 482.13 239.00 C 476.77 229.18 471.53 218.61 462.34 211.76 C 455.84 207.78 447.14 204.66 439.97 208.81 Z" />
<path fill="#333F70" opacity="1.00" d=" M 859.77 255.99 C 859.85 254.00 861.45 251.17 863.80 252.26 C 865.59 254.77 865.12 258.07 865.34 260.99 C 865.23 268.95 865.86 276.92 865.40 284.87 C 865.28 287.15 864.34 289.24 863.03 291.08 C 861.65 290.12 860.32 288.94 860.40 287.13 C 859.87 276.76 859.65 266.37 859.77 255.99 Z" />
<path fill="#333F70" opacity="1.00" d=" M 477.18 308.17 C 478.00 307.08 479.07 306.22 480.09 305.32 C 483.34 307.94 484.57 312.04 486.40 315.63 C 492.95 328.67 498.26 342.26 504.15 355.59 C 523.08 355.17 542.02 355.26 560.96 355.20 C 573.59 354.60 586.24 355.45 598.88 355.18 C 636.21 355.24 673.55 356.28 710.88 355.60 C 721.23 355.64 731.62 354.55 741.95 355.49 C 749.14 355.46 755.67 359.46 760.87 364.13 C 763.75 366.45 765.85 369.66 767.09 373.14 C 768.57 379.64 768.86 386.34 768.71 392.99 C 768.84 413.01 768.97 433.06 770.73 453.02 C 770.95 463.05 772.12 473.07 771.67 483.11 C 772.10 490.41 771.54 497.72 772.35 505.00 C 772.55 515.65 772.75 526.32 773.37 536.97 C 783.92 536.71 794.45 536.06 805.00 535.78 C 811.98 535.52 818.92 534.47 825.91 534.59 C 829.24 534.66 831.05 537.99 831.09 540.99 C 831.92 553.66 832.48 566.35 832.74 579.04 C 833.35 588.78 833.74 598.55 833.38 608.31 C 834.52 606.25 835.58 604.14 836.90 602.18 C 838.09 602.71 839.28 603.27 840.47 603.85 C 839.75 608.15 837.28 611.83 836.13 616.00 C 835.36 618.62 834.21 621.36 831.93 623.02 C 829.59 624.29 828.27 621.32 827.14 619.83 C 824.51 615.15 821.67 610.58 819.22 605.81 C 817.29 603.49 820.57 600.23 823.03 601.57 C 824.78 603.84 825.98 606.47 827.59 608.86 C 828.00 585.92 826.55 563.01 825.78 540.09 C 815.16 540.30 804.59 541.75 793.95 541.63 C 787.23 542.45 780.42 541.89 773.73 542.95 C 774.87 575.32 775.07 607.72 776.34 640.07 C 776.38 649.54 777.16 659.70 772.25 668.23 C 767.30 672.80 760.98 676.45 754.08 676.65 C 746.12 678.06 738.03 678.65 729.96 678.87 C 711.02 680.20 691.95 681.15 673.00 679.45 C 645.47 679.15 617.99 676.76 590.43 677.71 C 591.19 691.83 592.79 705.91 593.52 720.04 C 593.73 724.80 594.80 729.52 594.33 734.30 C 613.23 733.28 632.15 733.50 651.06 733.55 C 701.26 733.87 751.45 733.89 801.65 733.82 C 801.43 704.24 801.42 674.69 801.00 645.11 C 801.23 641.67 799.41 636.30 803.65 634.70 C 810.23 632.66 817.25 633.12 824.05 632.54 C 853.03 630.63 882.05 629.87 911.02 628.01 C 915.00 627.72 919.94 626.91 922.91 630.29 C 923.96 632.81 923.21 635.57 923.08 638.19 C 934.06 637.48 945.62 638.87 955.05 644.94 C 963.00 650.21 968.04 658.66 971.97 667.14 C 977.34 679.96 978.50 694.15 977.43 707.90 C 975.83 721.19 971.14 733.97 964.69 745.65 C 960.34 753.83 954.25 761.42 946.03 765.97 C 931.88 774.19 912.67 774.87 899.27 764.74 C 892.73 767.56 885.95 769.77 879.34 772.37 C 873.85 774.63 867.81 774.33 862.05 775.24 C 843.92 774.49 825.79 772.61 808.02 768.89 C 805.34 768.45 802.96 766.64 801.92 764.12 C 800.27 760.58 801.74 756.65 801.56 752.94 C 790.07 752.82 778.20 752.90 767.36 748.55 C 761.84 746.63 756.92 743.01 751.08 742.06 C 743.49 742.02 737.66 748.68 729.97 748.21 C 719.87 747.57 711.24 741.14 701.15 740.38 C 686.65 738.45 673.63 746.48 660.14 750.29 C 653.97 752.27 647.44 752.02 641.05 752.31 C 642.40 755.11 644.08 757.81 644.46 760.96 C 648.33 760.81 652.22 760.55 656.08 761.03 C 658.96 761.40 659.92 764.66 660.27 767.11 C 660.83 772.72 660.58 778.38 660.41 784.01 C 660.01 792.93 660.34 801.95 659.06 810.80 C 652.54 814.24 644.98 812.14 637.96 812.64 C 600.28 812.94 562.60 812.06 524.94 813.20 C 515.62 813.33 506.33 812.78 497.03 812.82 C 481.04 814.03 464.99 812.66 449.00 813.09 C 437.34 812.79 425.69 812.51 414.04 812.76 C 406.87 812.34 399.43 813.53 392.55 810.98 C 394.00 803.05 398.89 796.46 402.24 789.30 C 407.13 781.09 411.64 772.67 416.57 764.49 C 417.65 762.80 419.55 761.88 421.46 761.48 C 426.88 760.13 432.42 761.70 437.90 761.32 C 439.17 757.48 440.27 752.08 445.09 751.42 C 456.67 750.06 468.39 750.63 480.00 749.60 C 484.30 749.24 488.64 749.87 492.93 749.20 C 492.85 745.49 492.49 741.81 492.14 738.13 C 464.73 738.18 437.34 737.55 409.93 737.79 C 403.92 737.60 397.93 738.51 391.93 737.86 C 348.28 737.48 304.61 737.90 260.96 737.96 C 249.77 737.54 238.54 738.37 227.38 737.36 C 226.44 744.22 226.19 751.16 225.16 758.02 C 242.43 758.82 259.73 758.26 277.01 758.15 C 283.15 758.27 289.39 758.46 295.44 757.32 C 298.17 754.84 299.82 750.48 303.98 750.11 C 326.31 749.79 348.67 751.10 371.01 750.68 C 373.66 750.82 375.62 753.75 374.22 756.17 C 368.41 768.97 363.08 781.98 358.26 795.19 C 357.16 798.09 355.86 801.49 352.73 802.71 C 349.22 803.56 345.57 803.25 341.99 803.33 C 326.66 803.42 311.33 803.44 296.00 803.17 C 288.75 803.03 281.29 803.98 274.23 801.87 C 273.45 800.03 272.24 798.03 273.06 795.98 C 274.54 792.87 276.42 789.95 277.84 786.80 C 267.56 786.94 257.25 787.62 246.99 786.76 C 245.34 787.09 244.78 785.16 245.99 784.28 C 257.31 783.74 268.72 784.25 280.00 783.04 C 282.33 780.30 283.39 776.73 285.56 773.86 C 281.66 773.78 277.76 773.78 273.86 773.87 C 273.86 773.13 273.86 771.66 273.86 770.92 C 278.20 770.83 282.56 770.87 286.89 770.44 C 287.85 770.42 288.51 769.96 288.88 769.07 C 290.53 766.24 291.84 763.21 293.76 760.54 C 285.23 761.61 276.58 761.50 267.99 761.46 C 234.69 762.54 201.38 760.74 168.07 761.33 C 166.04 761.23 163.19 760.72 162.97 758.21 C 161.97 751.24 162.16 744.16 162.16 737.14 C 117.15 737.97 72.14 737.47 27.12 737.56 C 24.91 737.52 21.29 737.99 21.18 734.88 C 23.42 732.17 27.10 733.76 30.07 733.53 C 33.81 733.95 37.91 732.80 41.36 734.40 C 41.26 733.32 41.16 732.25 41.06 731.18 L 40.37 731.90 C 38.65 728.77 36.61 725.61 36.27 721.97 C 36.65 718.66 40.80 717.55 43.53 718.60 C 46.09 719.52 50.31 719.53 50.95 722.85 C 49.18 725.74 45.25 723.89 42.56 723.88 C 43.39 726.19 44.41 728.43 45.19 730.76 C 44.05 731.58 42.95 732.44 41.89 733.37 C 56.84 733.29 71.81 733.35 86.75 733.93 C 85.85 728.89 85.04 723.34 87.43 718.58 C 88.76 715.68 92.57 714.04 95.46 715.67 C 98.31 717.01 99.34 720.25 100.19 723.04 C 97.13 724.02 94.62 722.23 92.38 720.39 C 91.06 724.85 91.57 729.59 92.23 734.12 C 109.57 734.08 126.93 734.42 144.26 733.90 C 144.16 731.50 144.56 729.13 145.04 726.80 C 144.04 728.11 143.05 729.43 142.04 730.74 C 140.85 729.77 139.73 728.75 138.64 727.69 C 140.79 724.06 144.89 721.68 149.07 721.47 C 151.70 722.24 152.11 725.72 151.29 727.97 C 150.64 730.69 148.33 732.42 146.33 734.15 C 151.52 733.76 156.72 733.94 161.92 733.93 C 161.90 729.63 161.54 725.34 161.59 721.05 C 161.62 718.46 164.68 718.10 166.45 717.08 C 163.25 712.55 165.37 706.88 167.23 702.26 C 168.28 699.43 171.14 698.10 173.95 697.73 C 172.94 691.16 172.57 684.29 174.69 677.90 C 175.90 673.95 179.91 671.01 184.04 671.13 C 187.84 671.45 189.61 675.36 190.60 678.55 C 192.49 685.20 193.39 692.10 194.02 698.97 C 196.14 697.77 198.53 697.71 200.90 697.91 C 201.82 699.12 202.76 700.32 203.73 701.51 C 205.10 694.50 204.33 687.19 206.41 680.31 C 207.39 677.02 210.43 674.35 213.98 674.51 C 217.02 674.27 219.61 676.57 220.51 679.34 C 223.21 686.86 223.78 695.01 223.16 702.94 C 225.57 702.02 228.29 701.00 230.80 702.24 C 233.68 703.55 234.17 707.25 233.78 710.05 C 232.55 713.35 230.28 716.23 227.63 718.52 C 228.05 723.65 227.66 728.78 227.60 733.92 C 255.80 733.74 283.99 733.55 312.19 733.72 C 311.96 730.50 311.36 727.23 311.99 724.03 C 312.66 721.28 315.83 719.12 318.58 720.45 C 322.01 722.45 323.81 726.40 324.26 730.23 C 322.88 730.18 321.52 730.05 320.16 729.85 C 319.23 728.74 318.51 727.50 317.66 726.36 C 317.61 728.75 317.70 731.15 317.90 733.55 C 331.23 734.02 344.59 733.97 357.92 733.72 C 366.61 734.61 375.35 733.90 384.07 734.15 C 397.32 733.74 410.60 734.44 423.86 734.03 C 446.61 732.97 469.38 734.26 492.14 733.78 C 490.83 722.25 490.24 710.65 489.45 699.08 C 488.31 691.81 488.66 684.30 486.80 677.16 C 470.22 676.84 453.60 675.95 437.03 677.23 C 430.00 677.04 422.98 677.83 415.96 677.51 C 399.31 678.21 382.65 677.39 366.00 678.03 C 358.35 677.92 350.70 677.38 343.08 677.82 C 333.63 677.03 323.67 678.31 314.80 674.22 C 309.48 670.70 303.65 667.07 301.12 660.90 C 296.19 645.33 299.69 628.88 298.49 612.90 C 298.60 605.93 298.56 598.96 298.70 591.98 C 298.12 588.34 298.34 584.68 298.60 581.03 C 298.52 531.35 297.25 481.64 299.01 431.97 C 299.60 413.68 298.27 395.29 300.63 377.09 C 301.74 370.34 305.09 363.77 310.56 359.53 C 315.46 356.44 321.46 356.50 327.05 356.05 C 349.69 355.08 372.36 355.44 395.01 354.87 C 400.64 354.93 406.30 354.30 411.90 354.91 C 440.33 354.49 468.82 354.95 497.26 355.59 C 492.63 343.31 487.18 331.34 481.69 319.43 C 480.16 315.71 477.39 312.30 477.18 308.17 M 361.01 382.91 C 349.16 382.05 337.20 383.62 325.29 383.33 C 323.53 409.11 326.42 434.99 324.65 460.78 C 324.89 489.15 323.56 517.53 324.10 545.89 C 324.29 567.54 323.84 589.21 324.50 610.84 C 323.91 618.74 324.50 626.65 324.65 634.55 C 346.36 632.04 368.24 632.23 390.05 632.78 C 410.40 633.14 430.74 632.14 451.08 632.14 C 480.06 631.56 508.99 633.65 537.97 633.27 C 572.98 633.51 607.95 631.87 642.96 632.68 C 662.65 633.09 682.31 634.03 701.99 634.19 C 717.36 633.51 732.77 633.77 748.15 633.11 C 748.42 618.38 748.30 603.64 747.33 588.95 C 747.35 574.00 746.16 559.09 745.86 544.15 C 730.18 544.31 714.46 545.09 698.82 543.80 C 691.00 543.20 682.25 541.33 677.45 534.51 C 669.30 523.26 666.49 509.33 663.04 496.15 C 662.57 494.01 661.07 488.93 665.02 490.15 C 668.63 496.39 669.60 503.74 672.20 510.41 C 675.37 518.98 677.86 528.69 685.41 534.58 C 691.24 538.21 698.43 538.16 705.04 539.01 C 718.60 539.38 732.19 539.51 745.72 538.43 C 744.87 530.31 745.55 522.13 744.69 514.03 C 744.11 487.75 743.77 461.44 742.28 435.18 C 741.64 417.84 740.75 400.51 741.90 383.19 C 736.90 382.64 731.88 383.52 726.87 383.26 C 718.26 382.82 709.66 383.64 701.06 383.14 C 696.38 383.36 691.72 382.65 687.08 383.22 C 676.11 382.36 665.09 383.04 654.11 382.65 C 642.07 382.72 630.03 382.57 617.99 382.66 C 611.72 382.03 605.42 383.05 599.15 382.24 C 589.11 382.83 579.08 381.49 569.04 381.67 C 548.36 381.11 527.59 383.00 506.96 382.34 C 501.28 382.77 495.56 382.82 489.87 382.57 C 480.99 382.61 472.06 382.87 463.21 382.17 C 454.79 381.93 446.38 382.15 437.97 381.80 C 431.30 382.26 424.59 382.35 417.93 381.81 C 410.25 381.55 402.61 382.65 394.94 382.16 C 383.62 382.61 372.30 382.02 361.01 382.91 M 881.55 646.03 C 881.61 686.23 881.61 726.49 878.30 766.58 C 883.74 764.33 889.22 762.22 894.72 760.13 C 892.25 756.98 890.09 753.11 890.77 748.95 C 891.43 744.63 895.22 740.16 899.94 740.70 C 905.30 741.08 908.32 746.18 912.58 748.79 C 914.96 720.02 915.34 691.13 916.32 662.28 C 913.94 663.29 911.68 664.75 909.07 665.05 C 904.35 665.30 900.13 662.03 897.88 658.11 C 896.51 655.52 898.01 652.61 899.21 650.27 C 902.68 644.21 909.82 642.08 915.95 639.76 C 917.41 639.65 917.38 638.14 917.71 637.09 C 905.87 640.88 893.79 643.86 881.55 646.03 M 806.61 640.77 C 806.95 662.51 806.86 684.24 807.26 705.98 C 807.79 722.31 807.20 738.66 807.42 755.00 C 807.54 757.74 807.64 760.50 807.18 763.23 C 824.94 766.85 843.05 768.35 861.12 769.50 C 862.71 741.51 860.30 713.44 862.17 685.46 C 862.96 672.32 862.19 659.16 862.26 646.00 C 843.66 644.80 825.23 641.51 806.61 640.77 M 917.08 644.85 C 911.85 646.68 905.30 648.44 902.83 653.96 C 900.82 658.17 905.95 662.43 909.74 659.88 C 917.88 655.04 927.71 654.31 936.85 656.09 C 942.61 658.00 948.00 661.35 951.50 666.42 C 959.75 676.70 959.71 690.63 959.84 703.15 C 960.10 718.59 952.23 732.89 941.97 743.92 C 935.23 750.73 926.20 756.81 916.17 755.56 C 909.41 754.65 905.01 748.98 899.24 746.01 C 897.21 747.38 894.88 749.27 895.78 752.08 C 897.39 757.76 902.42 761.77 907.35 764.59 C 913.31 768.18 920.55 767.48 927.15 766.67 C 939.44 764.52 951.16 757.45 957.60 746.60 C 962.24 739.74 965.58 732.10 968.56 724.41 C 971.98 715.71 973.61 706.25 972.87 696.91 C 972.39 684.67 969.92 672.14 963.36 661.63 C 959.88 655.70 955.35 650.00 949.00 647.00 C 939.03 642.59 927.54 641.36 917.08 644.85 M 681.50 646.51 C 675.53 648.15 675.72 657.76 681.31 659.75 C 684.90 661.66 690.06 659.92 691.23 655.90 C 693.26 650.41 686.76 644.70 681.50 646.51 M 868.33 646.08 C 868.27 657.39 867.86 668.69 867.87 680.00 C 866.74 710.08 867.51 740.19 867.66 770.28 C 869.37 769.70 872.33 770.08 872.09 767.48 C 873.21 756.01 873.91 744.51 874.75 733.02 C 875.76 704.36 876.19 675.68 875.75 647.01 C 873.27 646.69 870.79 646.37 868.33 646.08 M 658.52 647.16 C 656.50 648.50 654.63 650.40 654.23 652.89 C 654.04 655.99 655.69 659.61 659.00 660.29 C 664.42 662.08 671.42 656.28 668.43 650.63 C 667.05 646.62 662.08 645.54 658.52 647.16 M 522.24 652.71 C 528.81 653.31 535.43 653.25 542.00 653.85 C 543.05 652.30 544.02 650.38 543.54 648.48 C 539.06 647.86 534.48 648.62 530.04 647.66 C 528.07 647.85 526.10 647.74 524.18 647.39 C 523.44 649.13 522.81 650.90 522.24 652.71 M 922.13 661.19 C 922.15 668.41 921.89 675.62 921.60 682.83 C 932.03 684.46 942.68 684.24 953.23 684.67 C 951.98 679.16 950.30 673.58 946.90 669.00 C 944.31 665.42 940.21 663.42 936.27 661.71 C 931.81 659.77 926.79 660.64 922.13 661.19 M 180.35 678.25 C 177.18 685.60 178.68 693.86 180.34 701.39 C 181.97 705.52 182.79 710.31 185.93 713.61 C 187.73 710.04 188.62 706.07 188.58 702.08 C 188.34 693.14 187.52 684.08 184.28 675.67 C 182.77 676.17 181.05 676.64 180.35 678.25 M 209.65 686.16 C 208.05 695.76 208.12 705.61 208.82 715.30 C 210.05 714.73 211.78 714.88 212.66 713.70 C 215.68 709.77 217.76 704.99 218.02 700.01 C 218.40 692.66 218.71 684.88 215.25 678.15 C 211.01 678.19 210.42 682.97 209.65 686.16 M 921.55 688.61 C 921.04 695.04 921.31 701.51 920.75 707.94 C 920.36 716.25 920.75 724.61 919.72 732.89 C 926.85 733.48 934.03 733.48 941.12 734.42 C 944.94 732.73 945.79 728.34 948.37 725.43 C 955.43 715.02 954.60 701.82 953.81 689.85 C 943.07 689.67 932.31 688.13 921.55 688.61 M 193.61 713.95 C 195.75 713.09 198.00 712.50 200.33 712.64 C 200.13 709.17 200.12 705.58 198.49 702.42 C 195.97 705.82 194.71 709.92 193.61 713.95 M 173.11 703.14 C 170.11 706.68 167.84 712.59 171.52 716.45 C 174.61 719.01 178.80 714.68 177.58 711.47 C 176.54 708.48 175.18 705.55 173.11 703.14 M 220.11 715.98 C 223.85 715.54 226.42 712.36 228.40 709.47 C 229.63 707.95 227.72 706.59 227.13 705.29 C 223.68 707.86 220.51 711.52 220.11 715.98 M 186.67 718.32 C 185.13 717.92 183.58 717.61 182.02 717.33 C 179.83 720.19 177.48 724.09 173.22 723.12 C 171.24 721.97 168.97 721.66 166.71 721.71 C 166.87 733.45 167.08 745.20 167.45 756.94 C 172.23 757.84 177.13 757.26 181.97 757.53 C 195.01 758.03 208.08 757.38 221.10 758.13 C 223.07 745.63 223.31 732.97 223.59 720.35 C 222.06 720.84 220.54 721.43 218.96 721.76 C 216.93 721.36 215.38 719.85 213.66 718.82 C 209.45 720.06 203.31 722.29 200.33 717.70 C 195.79 717.90 191.16 719.76 186.67 718.32 M 594.85 738.38 C 594.83 741.23 594.97 744.10 595.48 746.92 C 606.64 746.68 617.80 747.00 628.96 747.18 C 636.38 746.70 643.54 749.47 650.95 749.26 C 662.36 748.16 672.54 742.53 683.26 738.99 C 670.34 737.80 657.33 738.69 644.37 738.63 C 627.86 738.36 611.34 738.91 594.85 738.38 M 919.22 737.65 C 919.17 741.78 919.15 745.91 918.81 750.03 C 922.91 749.13 927.29 748.49 930.73 745.86 C 933.62 743.60 936.40 741.21 939.28 738.94 C 932.59 738.44 925.93 737.64 919.22 737.65 M 710.44 738.86 C 717.16 741.94 724.21 745.27 731.80 744.85 C 736.97 744.14 741.67 741.63 746.08 738.98 C 739.75 738.46 733.41 738.85 727.08 738.87 C 721.53 738.95 715.97 738.23 710.44 738.86 M 752.89 739.11 C 756.71 741.07 760.72 742.66 764.57 744.58 C 773.71 748.91 784.00 749.95 794.00 749.73 C 796.66 749.71 799.19 748.84 801.69 748.02 C 801.79 744.88 801.73 741.75 801.68 738.62 C 785.42 738.81 769.13 738.21 752.89 739.11 M 306.62 753.93 C 304.43 756.94 301.43 759.22 299.26 762.24 C 292.12 772.30 286.36 783.23 279.41 793.42 C 288.93 793.23 298.44 792.40 307.98 792.75 C 323.18 793.23 338.36 794.28 353.57 794.67 C 357.05 784.47 360.46 774.20 365.25 764.52 C 366.97 760.93 369.03 757.50 370.56 753.81 C 349.26 754.75 327.92 753.52 306.62 753.93 M 421.47 766.52 C 417.81 769.79 416.08 774.54 413.60 778.66 C 407.98 788.20 402.61 797.87 397.61 807.75 C 416.40 808.24 435.23 808.05 454.03 808.37 C 466.67 808.05 479.31 809.01 491.95 808.30 C 502.98 808.00 514.02 808.81 525.06 808.61 C 535.97 807.90 546.92 808.77 557.84 808.10 C 570.55 808.61 583.26 808.45 595.97 808.35 C 615.78 808.06 635.59 808.72 655.39 808.25 C 654.97 801.07 654.98 793.87 655.52 786.71 C 637.53 789.32 619.32 788.51 601.21 789.30 C 600.50 792.36 600.17 795.48 599.94 798.61 C 607.90 798.84 615.88 798.80 623.85 798.86 C 624.78 795.77 624.38 791.39 628.17 790.22 C 628.33 793.23 628.25 796.26 628.10 799.28 C 636.97 799.40 645.88 798.96 654.73 799.86 C 654.69 800.68 654.61 802.32 654.58 803.14 C 640.34 803.27 626.08 803.71 611.86 802.87 C 595.16 802.99 578.45 802.56 561.75 802.37 C 541.52 802.34 521.31 802.29 501.08 802.33 C 496.42 802.02 491.74 802.79 487.12 802.07 C 479.41 802.63 471.68 802.10 463.98 801.84 C 453.67 801.82 443.35 801.75 433.05 801.46 C 424.67 800.79 416.26 801.64 407.89 801.05 C 407.44 800.43 406.53 799.19 406.08 798.57 C 410.98 796.12 416.67 797.88 421.83 796.79 C 424.08 794.34 425.82 791.48 427.62 788.71 C 422.87 788.21 418.10 788.43 413.34 788.25 C 413.59 787.48 414.09 785.95 414.34 785.18 C 421.95 784.18 429.72 784.55 437.36 785.15 C 438.63 782.85 440.11 780.66 441.65 778.53 C 435.38 778.04 429.11 778.17 422.83 778.14 C 422.87 777.35 422.93 775.76 422.96 774.96 C 431.84 774.70 440.73 774.80 449.61 774.97 C 450.67 773.97 451.49 772.56 452.98 772.16 C 454.16 773.44 454.95 775.67 457.09 775.43 C 466.06 775.45 475.04 775.71 484.00 775.83 C 485.44 774.63 486.62 773.15 487.99 771.87 C 488.69 773.26 489.39 774.70 490.08 776.12 C 498.40 776.10 506.74 775.67 515.04 776.50 C 516.43 774.58 517.62 772.23 520.18 771.75 C 520.44 773.21 520.70 774.67 520.94 776.15 C 525.94 775.97 530.95 776.41 535.94 776.08 C 537.01 775.19 537.96 774.18 539.05 773.32 C 540.41 773.97 540.96 775.39 541.68 776.63 C 551.11 776.36 560.55 776.29 569.99 776.46 C 572.73 776.84 574.20 774.07 576.18 772.69 C 576.69 773.88 577.25 775.06 577.87 776.22 C 581.94 776.69 586.28 776.52 589.74 774.04 C 590.13 774.64 590.93 775.85 591.33 776.46 C 594.55 776.38 597.77 776.22 600.99 776.07 C 601.91 775.02 602.83 773.98 603.90 773.08 C 604.30 773.89 605.08 775.50 605.47 776.31 C 612.34 776.46 619.20 775.99 626.07 776.13 C 626.98 774.80 627.97 773.54 629.14 772.43 C 629.82 773.64 630.50 774.87 631.17 776.11 C 638.63 775.52 646.14 775.14 653.63 775.27 C 653.87 775.86 654.35 777.03 654.60 777.61 C 643.05 779.06 631.40 778.77 619.80 779.31 C 619.37 781.29 619.01 783.28 618.69 785.30 C 631.04 785.38 643.39 784.49 655.66 783.15 C 656.15 777.17 655.69 771.17 655.87 765.18 C 647.56 765.62 639.25 765.12 630.95 764.90 C 612.65 764.56 594.34 764.53 576.03 764.50 C 545.71 764.47 515.38 766.02 485.06 764.84 C 467.70 764.94 450.31 764.51 432.98 765.72 C 429.17 766.12 425.09 765.11 421.47 766.52 M 445.58 778.60 C 444.57 780.79 443.41 782.91 442.24 785.03 C 450.15 785.55 458.10 785.12 466.00 785.94 C 467.76 783.69 469.49 781.43 471.10 779.09 C 462.62 778.27 454.09 778.46 445.58 778.60 M 475.67 778.89 C 474.43 781.26 473.18 783.63 472.07 786.06 C 481.06 786.22 490.07 786.80 499.06 786.60 C 500.27 784.09 501.44 781.56 502.89 779.17 C 493.82 778.74 484.74 778.69 475.67 778.89 M 507.19 778.88 C 506.50 781.65 505.51 784.33 504.33 786.94 C 512.14 786.74 519.94 787.39 527.75 787.25 C 529.21 784.45 530.67 781.65 532.42 779.03 C 524.01 779.06 515.59 779.43 507.19 778.88 M 535.33 779.67 C 534.44 782.08 533.52 784.47 532.73 786.92 C 540.21 787.24 547.71 787.01 555.21 787.07 C 555.70 784.41 556.24 781.77 556.73 779.11 C 549.60 779.20 542.45 779.21 535.33 779.67 M 562.65 779.49 C 561.91 781.94 561.63 784.51 561.18 787.04 C 568.47 786.93 575.75 786.12 583.03 786.77 C 585.12 784.79 585.82 781.83 586.59 779.16 C 578.61 779.12 570.61 779.02 562.65 779.49 M 589.49 779.07 C 589.25 781.34 588.98 783.61 588.77 785.90 C 597.04 786.46 605.33 785.82 613.61 785.78 C 614.26 783.70 614.88 781.62 615.41 779.52 C 606.77 779.01 598.12 779.65 589.49 779.07 M 426.11 797.03 C 433.41 797.22 440.72 797.43 448.01 797.44 C 450.62 795.25 452.09 792.03 454.18 789.39 C 446.79 788.78 439.37 788.80 431.97 788.86 C 429.66 791.29 427.33 793.83 426.11 797.03 M 575.88 789.82 C 573.27 791.63 573.02 795.39 572.48 798.30 C 580.05 798.15 587.60 798.42 595.17 798.73 C 596.20 795.73 596.70 792.59 597.02 789.45 C 589.98 789.52 582.88 789.10 575.88 789.82 M 457.44 789.62 C 456.16 792.12 454.87 794.62 453.58 797.11 C 461.69 797.79 469.86 797.56 478.00 797.76 C 480.35 796.00 480.94 792.85 482.23 790.36 C 474.00 789.64 465.70 789.68 457.44 789.62 M 486.32 790.15 C 485.11 792.75 483.98 795.37 483.15 798.12 C 492.37 797.58 501.61 798.28 510.84 797.90 C 512.16 795.56 513.37 793.16 514.49 790.73 C 505.13 789.80 495.70 790.65 486.32 790.15 M 515.71 797.76 C 523.34 798.39 531.01 797.33 538.63 798.41 C 540.45 795.84 541.56 792.88 542.44 789.88 C 535.58 789.91 528.73 790.29 521.88 789.97 C 517.55 789.42 516.87 794.75 515.71 797.76 M 544.47 797.87 C 552.22 798.26 559.99 797.53 567.74 798.25 C 568.90 795.47 569.84 792.61 570.73 789.75 C 562.96 789.56 555.20 790.14 547.44 789.72 C 546.37 792.40 545.37 795.11 544.47 797.87 M 277.25 799.31 C 285.07 800.94 293.08 799.70 300.98 799.92 C 316.64 800.32 332.31 799.80 347.97 800.46 C 349.63 800.42 351.29 800.26 352.94 800.00 C 350.71 798.17 347.70 798.48 345.03 798.30 C 329.69 798.02 314.39 796.55 299.05 796.87 C 293.35 797.19 287.64 797.26 281.95 797.49 C 280.19 797.47 278.66 798.37 277.25 799.31 Z" />
<path fill="#333F70" opacity="1.00" d=" M 816.44 387.23 C 818.81 386.61 818.74 389.32 818.75 390.90 C 818.72 398.90 818.80 406.92 818.30 414.91 C 818.57 416.24 815.33 417.13 816.07 414.97 C 814.81 408.70 815.37 402.29 815.31 395.96 C 815.39 393.03 815.30 389.98 816.44 387.23 Z" />
<path fill="#333F70" opacity="1.00" d=" M 509.26 396.87 C 511.03 394.98 513.19 395.81 513.98 398.07 C 519.69 409.64 525.85 421.04 530.46 433.11 C 529.90 433.64 528.77 434.70 528.20 435.23 C 527.16 434.11 526.13 432.97 525.43 431.61 C 520.52 422.40 516.01 412.99 511.41 403.62 C 510.44 401.47 509.24 399.29 509.26 396.87 Z" />
<path fill="#333F70" opacity="1.00" d=" M 530.31 398.69 C 531.34 398.47 532.38 398.32 533.44 398.24 C 535.21 400.63 536.38 403.38 537.57 406.09 C 541.27 414.91 545.01 423.73 548.18 432.77 C 548.25 433.81 549.53 435.67 547.92 436.11 C 546.51 437.66 545.29 435.33 544.74 434.29 C 540.40 426.25 537.39 417.61 533.75 409.26 C 532.32 405.84 530.79 402.41 530.31 398.69 Z" />
<path fill="#333F70" opacity="1.00" d=" M 366.53 404.67 C 372.89 400.67 381.74 406.87 380.80 414.12 C 380.90 422.20 370.14 426.89 364.00 421.97 C 358.46 417.38 360.51 407.86 366.53 404.67 Z" />
<path fill="#333F70" opacity="1.00" d=" M 353.37 406.42 C 354.87 405.48 357.03 407.07 356.43 408.83 C 356.10 411.98 355.91 415.20 355.03 418.25 C 352.74 419.83 349.76 417.72 350.61 415.04 C 351.36 412.22 351.35 408.55 353.37 406.42 Z" />
<path fill="#333F70" opacity="1.00" d=" M 86.19 417.97 C 86.66 417.49 87.61 416.51 88.08 416.02 C 90.17 419.68 89.92 424.01 90.18 428.07 C 90.26 436.07 90.64 444.09 89.98 452.08 C 90.08 453.62 88.99 454.64 87.96 455.61 C 86.61 449.85 86.82 443.90 86.63 438.03 C 86.50 431.34 86.03 424.66 86.19 417.97 Z" />
<path fill="#333F70" opacity="1.00" d=" M 664.50 436.74 C 665.40 435.71 666.07 433.67 667.82 434.08 C 670.02 434.47 671.42 436.53 672.74 438.17 C 677.83 445.89 682.24 454.19 684.70 463.15 C 685.24 464.66 683.96 466.05 682.97 467.04 C 680.95 466.97 680.35 464.85 679.54 463.39 C 675.29 454.12 671.32 444.48 664.50 436.74 Z" />
<path fill="#333F70" opacity="1.00" d=" M 860.98 453.91 C 865.11 450.29 870.51 447.26 876.21 448.28 C 886.47 449.31 894.50 457.00 900.12 465.10 C 905.11 461.29 912.74 459.78 917.83 464.22 C 923.55 469.14 926.42 476.56 928.36 483.66 C 930.19 483.98 932.92 482.96 933.86 485.14 C 935.76 487.99 931.88 489.88 929.64 490.57 C 916.63 493.17 903.29 492.51 890.10 492.65 C 884.36 492.43 878.61 492.27 872.89 491.82 C 862.90 491.36 852.94 490.25 842.93 490.33 C 833.28 490.51 823.64 489.69 813.99 489.62 C 810.93 489.32 807.74 489.23 804.84 488.14 C 803.07 487.42 802.96 485.29 802.40 483.76 C 805.59 481.11 809.99 481.05 813.93 481.11 C 814.67 475.73 814.82 469.83 818.38 465.39 C 820.87 460.74 826.11 458.60 830.97 457.39 C 839.57 456.27 848.80 459.05 855.09 465.09 C 856.40 461.06 858.35 457.24 860.98 453.91 M 871.36 455.46 C 866.65 456.43 863.43 460.57 861.73 464.82 C 860.45 467.87 862.32 470.97 862.49 474.04 C 861.84 475.49 860.30 476.18 859.15 477.15 C 853.52 472.59 848.53 466.57 841.20 464.73 C 835.78 463.19 828.85 463.15 825.02 467.95 C 820.88 472.02 820.08 478.06 820.46 483.60 C 831.66 483.79 842.85 484.34 854.07 484.36 C 877.12 485.15 900.26 488.17 923.29 485.20 C 921.42 479.49 919.16 473.67 915.06 469.17 C 911.90 465.86 907.12 468.16 903.46 469.18 C 905.25 471.84 906.19 475.57 903.07 477.68 C 900.14 475.64 898.38 472.48 896.25 469.72 C 892.97 465.36 888.99 461.54 884.58 458.35 C 880.78 455.74 875.95 453.80 871.36 455.46 Z" />
<path fill="#333F70" opacity="1.00" d=" M 655.25 449.33 C 656.52 448.35 657.83 448.89 658.79 449.97 C 659.39 454.88 655.67 458.77 654.30 463.22 C 658.47 461.90 662.53 459.85 666.96 459.57 C 668.93 459.29 669.47 461.63 670.40 462.86 C 664.86 466.79 657.83 467.10 651.76 469.80 C 649.74 471.02 647.53 469.67 646.27 468.05 C 646.34 465.12 648.21 462.69 649.39 460.13 C 651.38 456.55 652.75 452.60 655.25 449.33 Z" />
<path fill="#333F70" opacity="1.00" d=" M 630.20 450.14 C 632.68 448.32 633.67 452.02 634.23 453.76 C 635.99 463.09 637.99 472.49 642.18 481.08 C 643.60 483.46 639.77 486.56 638.21 483.94 C 632.62 476.07 630.57 466.31 629.05 456.94 C 628.76 454.69 627.96 451.68 630.20 450.14 Z" />
<path fill="#333F70" opacity="1.00" d=" M 546.61 462.89 C 561.43 462.87 576.27 462.31 591.08 463.03 C 594.22 463.49 598.78 462.95 600.37 466.42 C 602.37 477.50 602.14 488.81 602.99 500.01 C 603.18 510.01 604.09 519.99 604.24 530.01 C 604.24 531.60 603.89 533.36 602.71 534.51 C 584.59 535.80 566.44 537.02 548.29 537.87 C 538.17 538.57 528.02 538.13 517.90 538.63 C 508.94 538.34 499.98 538.95 491.03 538.35 C 478.98 538.44 466.93 538.66 454.89 538.05 C 453.95 537.99 453.09 537.73 452.28 537.29 C 451.23 534.64 450.66 531.79 450.63 528.94 C 449.93 509.94 448.60 490.94 449.19 471.92 C 449.41 469.84 449.61 467.68 450.53 465.78 C 452.05 463.86 454.77 464.07 456.96 463.91 C 480.30 463.47 503.64 463.95 526.98 463.44 C 533.53 463.34 540.05 462.73 546.61 462.89 M 518.27 486.02 C 518.26 487.29 518.28 488.56 518.34 489.83 C 520.06 489.80 522.78 490.36 522.72 487.82 C 523.37 484.97 519.91 485.71 518.27 486.02 M 500.44 492.61 C 493.19 494.44 490.66 504.83 496.19 509.81 C 501.92 515.94 514.19 511.73 514.14 503.08 C 515.10 495.92 507.04 490.09 500.44 492.61 M 549.63 495.57 C 547.40 498.55 547.27 502.63 548.07 506.13 C 550.81 513.77 563.68 514.63 566.76 506.84 C 563.25 504.53 560.81 509.86 557.16 508.64 C 554.19 508.36 552.73 505.59 551.75 503.14 C 556.92 502.92 562.09 503.43 567.26 503.12 C 566.80 500.47 566.61 497.53 564.84 495.36 C 561.33 490.49 553.07 490.77 549.63 495.57 M 518.64 493.21 C 518.65 499.55 518.51 505.88 518.74 512.22 C 520.12 512.21 521.51 512.22 522.90 512.23 C 522.86 505.90 522.81 499.57 522.68 493.25 C 521.33 493.23 519.98 493.21 518.64 493.21 M 527.18 493.19 C 526.70 499.50 526.77 505.86 527.15 512.18 C 528.49 512.21 529.84 512.25 531.20 512.29 C 531.26 508.22 530.94 504.12 531.40 500.07 C 531.96 496.71 537.13 494.19 539.18 497.64 C 540.76 502.25 539.79 507.32 540.07 512.12 C 541.49 512.14 542.91 512.16 544.34 512.20 C 543.85 506.95 544.78 501.55 543.42 496.42 C 541.74 491.22 534.41 491.30 531.39 495.21 C 530.77 493.19 528.94 493.13 527.18 493.19 Z" />
<path fill="#333F70" opacity="1.00" d=" M 552.43 500.77 C 552.17 496.74 556.65 494.09 560.16 495.80 C 562.29 496.40 562.44 498.95 563.19 500.68 C 559.61 500.94 556.01 500.97 552.43 500.77 Z" />
<path fill="#333F70" opacity="1.00" d=" M 501.15 496.27 C 506.42 493.65 511.40 499.68 509.47 504.66 C 508.57 509.28 501.72 510.76 498.93 507.05 C 496.70 503.72 497.23 498.10 501.15 496.27 Z" />
<path fill="#333F70" opacity="1.00" d=" M 357.19 504.09 C 358.04 502.10 361.02 503.17 361.01 505.05 C 362.21 512.64 361.92 520.43 363.68 527.94 C 363.95 529.71 364.56 532.75 362.05 533.12 C 360.33 534.16 359.97 531.66 359.28 530.73 C 356.72 523.81 356.65 516.30 356.26 509.03 C 356.35 507.38 355.79 505.34 357.19 504.09 Z" />
<path fill="#333F70" opacity="1.00" d=" M 378.48 518.43 C 379.72 518.00 380.76 519.93 380.97 521.00 C 382.06 527.67 382.83 534.40 384.27 541.02 C 384.77 543.28 385.17 547.19 381.89 547.30 C 379.69 545.75 379.54 542.87 378.85 540.50 C 377.26 534.44 376.58 528.21 376.23 521.97 C 376.00 520.37 376.72 518.64 378.48 518.43 Z" />
<path fill="#333F70" opacity="1.00" d=" M 875.43 527.35 C 877.21 524.33 879.08 527.86 879.13 529.88 C 880.07 536.87 881.01 543.99 880.32 551.04 C 880.47 553.41 877.21 553.17 877.28 551.00 C 876.38 543.15 875.61 535.20 875.43 527.35 Z" />
<path fill="#333F70" opacity="1.00" d=" M 258.19 643.05 C 258.15 639.35 256.54 634.77 260.08 632.12 C 263.12 636.07 261.99 641.41 262.57 646.04 C 262.39 650.57 263.46 655.80 260.97 659.80 C 260.52 659.68 259.60 659.44 259.15 659.32 C 258.12 653.96 258.86 648.45 258.19 643.05 Z" />
<path fill="#333F70" opacity="1.00" d=" M 659.66 651.85 C 660.58 651.84 661.52 651.85 662.46 651.86 C 662.15 653.61 661.37 655.15 659.94 656.25 C 659.50 654.80 659.43 653.32 659.66 651.85 Z" />
<path fill="#333F70" opacity="1.00" d=" M 681.90 653.93 C 681.14 651.26 684.19 651.78 685.45 652.94 C 684.76 653.89 682.05 656.82 681.90 653.93 Z" />
<path fill="#333F70" opacity="1.00" d=" M 67.34 701.34 C 68.61 698.98 71.68 697.15 74.25 698.68 C 77.80 700.85 78.82 705.22 80.03 708.92 C 81.36 712.86 81.62 717.06 81.08 721.18 C 80.04 721.42 78.99 721.67 77.94 721.91 C 75.95 716.16 76.37 709.33 72.31 704.47 C 69.29 707.65 69.25 712.14 69.16 716.25 C 71.29 718.67 71.67 723.36 68.03 724.47 C 65.02 722.50 64.62 718.75 64.18 715.52 C 63.25 710.60 64.97 705.59 67.34 701.34 Z" />
<path fill="#333F70" opacity="1.00" d=" M 644.24 721.82 C 641.87 715.99 646.40 708.05 652.92 708.17 C 657.17 708.92 657.87 713.89 658.80 717.33 C 661.70 716.07 664.71 714.44 667.96 714.57 C 670.72 715.37 670.67 718.85 669.92 721.08 C 669.11 724.35 666.49 728.21 662.61 727.32 C 662.11 725.18 662.86 723.08 663.29 721.01 C 661.12 721.92 658.85 723.55 656.39 722.74 C 654.37 720.53 653.24 717.72 652.04 715.03 C 650.74 716.99 650.16 719.28 649.12 721.36 C 648.32 723.23 645.41 723.25 644.24 721.82 Z" />
<path fill="#333F70" opacity="1.00" d=" M 417.72 717.46 C 418.87 713.96 422.85 710.46 426.65 712.45 C 431.10 714.76 433.85 719.47 435.09 724.20 C 435.01 725.88 433.24 726.27 432.08 727.04 C 429.32 724.31 427.10 721.13 424.59 718.19 C 422.74 721.26 423.17 724.92 422.81 728.34 C 421.54 728.47 420.29 728.44 419.05 728.24 C 416.98 725.12 416.75 721.00 417.72 717.46 Z" />
<path fill="#333F70" opacity="1.00" d=" M 118.70 728.30 C 118.48 722.75 121.15 716.74 126.10 713.97 C 128.56 712.68 130.95 715.00 131.75 717.19 C 133.10 721.09 132.73 725.72 130.30 729.14 C 129.23 728.55 127.67 728.38 127.20 727.08 C 127.04 724.36 127.36 721.64 127.24 718.93 C 124.86 721.68 124.00 725.31 122.00 728.29 C 121.18 728.30 119.53 728.30 118.70 728.30 Z" />
<path fill="#333F70" opacity="1.00" d=" M 458.28 722.10 C 459.61 717.87 464.24 715.86 468.14 714.61 C 470.23 713.77 471.91 715.96 471.92 717.88 C 472.06 721.00 471.27 724.21 469.58 726.86 C 468.61 728.56 465.76 728.87 464.63 727.19 C 464.70 725.14 465.27 723.16 465.75 721.19 C 463.64 722.43 459.67 725.82 458.28 722.10 Z" />
<path fill="#333F70" opacity="1.00" d=" M 686.78 721.83 C 689.40 718.95 693.33 717.66 697.03 716.82 C 699.54 716.19 703.28 716.93 703.56 720.06 C 703.71 724.55 701.93 731.30 696.20 730.83 C 694.57 727.97 696.41 725.03 697.35 722.31 C 694.64 723.31 691.96 724.56 689.08 724.96 C 687.36 724.99 686.45 723.40 686.78 721.83 Z" />
<path fill="#333F70" opacity="1.00" d=" M 106.32 720.32 C 110.65 717.96 112.07 726.97 107.95 727.61 C 105.56 726.18 102.71 722.07 106.32 720.32 Z" />
<path fill="#333F70" opacity="1.00" d=" M 629.45 720.72 C 633.77 718.52 637.74 722.62 640.81 725.18 C 640.31 727.92 637.28 728.16 635.06 727.72 C 635.31 729.18 635.55 730.65 635.78 732.14 C 633.58 733.38 630.65 733.12 629.68 730.47 C 628.64 727.53 626.02 722.93 629.45 720.72 Z" />
<path fill="#333F70" opacity="1.00" d=" M 347.06 730.69 C 347.08 726.71 349.27 722.55 352.97 720.86 C 355.22 719.77 357.39 721.82 358.07 723.86 C 359.01 726.85 360.01 730.56 357.23 732.90 C 356.25 732.27 355.27 731.65 354.30 731.03 C 354.07 730.12 353.60 728.28 353.36 727.37 C 352.26 728.69 351.60 730.47 350.05 731.35 C 349.30 731.19 347.80 730.86 347.06 730.69 Z" />
<path fill="#333F70" opacity="1.00" d=" M 328.65 729.25 C 326.91 726.58 330.96 723.92 333.10 725.81 C 334.19 727.39 333.82 729.38 333.83 731.19 C 331.98 731.32 329.28 731.48 328.65 729.25 Z" />
<path fill="#333F70" opacity="1.00" d=" M 205.99 726.28 C 211.23 725.96 216.48 725.73 221.74 725.86 C 221.75 726.59 221.78 728.04 221.79 728.77 C 216.31 729.46 210.77 729.54 205.25 729.56 C 205.44 728.74 205.81 727.10 205.99 726.28 Z" />
<path fill="#333F70" opacity="1.00" d=" M 170.31 728.32 C 175.15 727.00 180.20 727.30 185.17 727.08 C 191.24 726.71 197.33 726.75 203.41 726.44 C 203.77 726.62 204.48 726.98 204.84 727.17 C 206.60 729.88 202.75 730.08 200.97 730.05 C 190.33 730.15 179.64 731.36 169.02 730.22 C 169.34 729.74 169.98 728.79 170.31 728.32 Z" />
<path fill="#333F70" opacity="1.00" d=" M 230.33 749.28 C 236.95 748.99 243.58 749.08 250.19 748.64 C 250.20 749.86 250.21 751.09 250.23 752.34 C 243.57 751.90 236.88 752.52 230.23 751.86 C 230.26 751.22 230.30 749.93 230.33 749.28 Z" />
<path fill="#333F70" opacity="1.00" d=" M 250.62 748.95 C 256.00 748.87 261.42 748.52 266.76 749.38 C 266.43 749.85 265.76 750.81 265.43 751.29 C 260.54 752.21 255.53 751.71 250.59 751.98 C 250.60 751.22 250.61 749.71 250.62 748.95 Z" />
<path fill="#333F70" opacity="1.00" d=" M 310.13 770.16 C 312.89 767.01 315.26 763.25 319.19 761.43 C 323.89 764.92 324.06 771.29 326.40 776.22 C 331.48 770.96 337.32 766.43 343.37 762.34 C 345.37 761.07 346.60 763.63 347.56 764.94 C 341.33 769.89 335.51 775.33 329.53 780.58 C 327.84 782.33 324.66 783.24 322.89 781.10 C 320.39 777.86 319.75 773.67 318.15 769.99 C 314.77 773.56 312.57 778.11 308.98 781.47 C 306.94 781.82 304.01 780.41 304.52 778.04 C 305.92 775.11 308.16 772.70 310.13 770.16 Z" />
<path fill="#333F70" opacity="1.00" d=" M 715.78 772.68 C 721.08 769.89 727.25 770.73 733.00 769.92 C 742.06 769.96 751.15 769.25 760.20 769.84 C 769.32 770.09 778.50 769.18 787.56 770.48 C 786.37 773.08 783.12 772.18 780.85 772.66 C 768.88 773.16 756.90 773.39 744.92 773.28 C 735.71 773.92 726.32 773.34 717.30 775.67 C 716.76 774.67 716.26 773.68 715.78 772.68 Z" />
<path fill="#333F70" opacity="1.00" d=" M 96.01 772.86 C 122.45 772.86 148.88 772.48 175.30 771.82 C 175.34 772.52 175.42 773.91 175.46 774.60 C 175.52 773.91 175.65 772.52 175.71 771.82 C 185.73 771.48 195.73 772.46 205.75 772.24 C 205.80 772.87 205.89 774.12 205.94 774.75 C 193.95 775.91 181.90 774.91 169.88 775.33 C 143.80 775.41 117.70 776.98 91.65 775.45 C 90.73 772.39 94.12 772.97 96.01 772.86 Z" />
<path fill="#333F70" opacity="1.00" d=" M 225.48 772.20 C 231.00 772.03 236.65 770.86 242.11 772.21 C 242.16 772.73 242.26 773.78 242.31 774.31 C 236.72 774.87 231.07 775.04 225.44 775.08 C 225.45 774.36 225.47 772.92 225.48 772.20 Z" />
<path fill="#333F70" opacity="1.00" d=" M 47.07 782.22 C 51.65 781.66 56.32 781.90 60.84 782.88 C 60.83 783.62 60.80 785.11 60.78 785.86 C 56.28 785.77 51.75 785.79 47.32 784.93 C 47.26 784.26 47.13 782.90 47.07 782.22 Z" />
<path fill="#333F70" opacity="1.00" d=" M 78.67 782.36 C 88.32 784.13 98.17 783.87 107.95 783.90 C 118.78 784.30 129.60 783.59 140.43 783.86 C 140.50 784.60 140.64 786.07 140.71 786.80 C 134.82 787.35 128.91 787.38 123.00 787.42 C 110.39 787.42 97.77 787.95 85.17 787.27 C 82.58 787.01 79.77 786.83 77.68 785.12 C 77.93 784.43 78.42 783.05 78.67 782.36 Z" />
<path fill="#333F70" opacity="1.00" d=" M 158.82 784.88 C 169.91 784.15 181.05 784.35 192.17 784.17 C 192.24 784.90 192.39 786.35 192.47 787.07 C 181.30 787.27 170.07 787.92 158.92 787.08 C 158.90 786.53 158.84 785.43 158.82 784.88 Z" />
<path fill="#333F70" opacity="1.00" d=" M 208.25 783.91 C 212.50 783.76 216.75 783.59 221.00 783.45 C 223.27 783.52 222.65 786.39 220.88 786.54 C 216.68 786.94 212.45 786.79 208.24 786.62 C 208.24 785.94 208.25 784.59 208.25 783.91 Z" />
<path fill="#333F70" opacity="1.00" d=" M 736.02 785.64 C 754.31 784.77 772.62 785.78 790.92 785.64 C 796.84 786.07 802.82 785.46 808.73 786.17 C 808.91 786.82 809.27 788.13 809.45 788.79 C 791.30 789.09 773.15 788.42 755.01 788.57 C 740.66 788.55 726.35 790.08 712.00 789.20 C 710.56 789.20 709.71 788.39 709.45 786.80 C 718.26 785.68 727.17 786.09 736.02 785.64 Z" />
<path fill="#333F70" opacity="1.00" d=" M 876.07 788.22 C 890.96 787.34 905.94 787.14 920.85 787.88 C 919.54 790.48 916.38 789.79 914.02 790.17 C 901.39 790.54 888.76 790.59 876.14 790.98 C 876.12 790.29 876.09 788.91 876.07 788.22 Z" />
<path fill="#333F70" opacity="1.00" d=" M 749.96 798.61 C 774.24 799.21 798.53 797.85 822.80 798.23 C 824.71 798.62 824.11 800.69 824.33 802.13 C 812.95 803.20 801.45 802.64 790.03 802.77 C 768.19 802.92 746.31 802.84 724.54 801.00 C 724.46 800.37 724.29 799.11 724.21 798.47 C 732.77 797.75 741.37 798.88 749.96 798.61 Z" />
<path fill="#333F70" opacity="1.00" d=" M 857.39 799.57 C 859.88 798.88 862.51 799.18 865.07 799.19 C 880.00 799.69 894.93 800.19 909.87 800.27 C 909.99 800.98 910.22 802.41 910.33 803.12 C 901.99 803.75 893.63 803.05 885.29 803.25 C 884.78 802.62 884.28 802.00 883.78 801.40 C 882.50 802.41 881.08 803.37 879.36 802.91 C 872.04 802.30 864.59 803.11 857.37 801.79 C 857.37 801.24 857.39 800.13 857.39 799.57 Z" />
<path fill="#333F70" opacity="1.00" d=" M 279.81 814.74 C 293.90 814.31 308.25 814.38 322.20 815.62 C 322.36 816.45 322.67 818.12 322.83 818.95 C 308.40 818.43 293.94 818.71 279.52 818.04 C 279.59 817.21 279.74 815.56 279.81 814.74 Z" />
<path fill="#333F70" opacity="1.00" d=" M 322.82 815.79 C 324.71 814.99 326.84 815.53 328.83 815.41 C 334.79 815.72 340.77 815.21 346.71 815.79 C 346.59 816.43 346.36 817.71 346.24 818.35 C 346.63 817.46 347.02 816.57 347.42 815.70 C 351.09 815.68 354.80 815.69 358.40 816.51 C 357.66 817.29 357.36 818.95 355.98 818.82 C 348.68 819.49 341.33 819.08 334.01 819.19 C 330.35 819.03 326.60 819.48 323.02 818.58 C 322.97 817.89 322.87 816.49 322.82 815.79 Z" />
<path fill="#333F70" opacity="1.00" d=" M 377.10 816.10 C 386.87 816.27 396.67 815.79 406.39 816.95 C 406.61 817.53 407.05 818.71 407.26 819.29 C 404.22 819.80 401.12 819.77 398.06 819.60 C 391.10 819.11 384.11 819.24 377.15 818.78 C 377.14 818.11 377.12 816.77 377.10 816.10 Z" />
<path fill="#333F70" opacity="1.00" d=" M 150.78 828.02 C 162.69 825.78 174.84 824.64 186.96 825.51 C 213.66 825.43 240.39 824.47 267.07 825.67 C 273.73 825.56 280.39 825.51 287.05 825.92 C 295.92 826.59 304.90 825.51 313.72 826.91 C 313.27 828.12 313.96 830.91 311.97 830.87 C 300.33 830.90 288.69 829.93 277.05 830.21 C 263.01 830.48 249.00 829.61 234.96 829.79 C 215.29 829.26 195.63 830.82 175.97 829.93 C 167.94 829.94 159.98 831.16 152.02 832.07 C 149.45 832.96 148.08 828.37 150.78 828.02 Z" />
<path fill="#333F70" opacity="1.00" d=" M 570.03 828.50 C 596.09 828.85 621.97 824.64 648.04 825.11 C 669.88 823.26 691.73 825.78 713.55 826.51 C 720.75 827.45 728.09 827.04 735.27 828.19 L 735.87 829.14 L 735.43 830.53 C 720.63 830.92 705.81 830.56 691.00 830.16 C 677.02 829.10 662.99 828.96 648.99 829.69 C 637.31 829.73 625.61 829.72 613.99 831.01 C 606.36 831.44 598.72 831.71 591.12 832.45 C 556.08 833.38 521.02 832.11 485.98 832.79 C 483.69 833.16 482.08 831.82 482.10 829.54 C 484.66 828.83 487.32 828.66 489.97 828.78 C 496.99 829.08 504.02 828.60 511.05 828.53 C 530.71 828.58 550.37 828.45 570.03 828.50 Z" />
<path fill="#333F70" opacity="1.00" d=" M 27.92 828.22 C 53.25 828.50 78.64 828.58 103.92 826.58 C 116.26 826.00 128.62 826.59 140.97 826.33 C 142.76 826.07 144.09 827.10 144.87 828.64 C 127.99 830.01 110.99 829.09 94.13 831.04 C 71.47 832.01 48.73 831.60 26.08 831.61 C 25.20 831.10 24.35 830.55 23.52 829.97 C 24.90 829.20 26.23 828.04 27.92 828.22 Z" />
<path fill="#333F70" opacity="1.00" d=" M 322.83 828.44 C 326.78 827.22 330.92 827.80 334.97 828.00 C 349.99 828.90 365.04 828.09 380.07 828.50 C 390.34 828.62 400.62 828.28 410.89 828.06 C 412.40 828.02 413.89 828.18 415.38 828.54 C 415.07 829.12 414.44 830.27 414.13 830.84 L 413.43 831.29 C 383.97 831.93 354.50 831.63 325.05 831.79 C 323.20 831.97 323.29 829.62 322.83 828.44 Z" />
<path fill="#333F70" opacity="1.00" d=" M 415.62 828.29 C 426.03 827.33 436.58 827.89 447.03 827.74 C 447.65 828.12 448.88 828.88 449.50 829.26 C 444.79 830.59 439.85 830.28 435.02 830.48 C 429.03 830.50 423.03 830.86 417.04 830.85 C 416.77 830.61 416.22 830.13 415.95 829.89 C 415.87 829.49 415.70 828.69 415.62 828.29 Z" />
<path fill="#333F70" opacity="1.00" d=" M 818.99 828.59 C 841.68 827.64 864.35 829.30 887.04 829.14 C 908.06 829.33 929.08 828.33 950.09 827.87 C 951.67 827.81 953.38 828.16 953.40 830.13 C 952.31 832.53 949.24 831.97 947.10 832.52 C 923.41 834.49 899.61 833.74 875.87 833.48 C 861.56 832.99 847.27 832.02 832.95 832.15 C 820.28 832.21 807.62 831.53 794.94 831.88 C 781.51 831.71 768.04 832.30 754.63 831.57 C 755.28 829.64 757.11 829.07 758.97 829.11 C 778.96 828.29 798.98 828.56 818.99 828.59 Z" />
<path fill="#333F70" opacity="1.00" d=" M 454.34 829.40 C 457.88 829.05 461.46 829.62 465.02 829.52 C 468.62 829.69 472.32 829.06 475.85 829.99 C 476.02 831.44 475.43 832.18 474.09 832.23 C 467.67 832.38 461.24 832.27 454.83 832.06 C 453.13 832.14 451.94 829.21 454.34 829.40 Z" />
</g>
</g></svg>