<svg xmlns="http://www.w3.org/2000/svg" viewBox="0 0 1024 1024" version="1.1">
<g id="Parent-Group"><g id="Group-rgba(0,0,0,0)" fill="rgba(0,0,0,0)">
<path fill="rgba(0,0,0,0)" opacity="1.00" d=" M 0.00 0.00 L 1024.00 0.00 L 1024.00 1024.00 L 976.33 1024.00 C 976.33 952.00 976.38 880.01 976.44 808.01 C 976.25 798.31 976.87 788.58 976.16 778.91 C 975.84 776.32 973.09 776.11 971.04 776.15 C 950.73 776.10 930.42 776.18 910.11 776.17 C 910.70 771.42 909.72 766.56 911.01 761.90 C 912.18 755.32 910.73 748.66 910.74 742.06 C 910.79 739.29 910.26 736.59 909.90 733.87 C 910.43 723.93 908.76 713.99 908.75 704.03 C 908.14 690.68 907.14 677.34 906.49 663.99 C 905.99 648.01 904.46 632.08 904.25 616.09 C 904.13 609.98 902.40 603.85 903.29 597.76 C 902.91 596.36 902.43 595.00 901.50 593.89 L 902.84 594.76 C 901.69 590.56 902.66 586.20 901.94 581.96 C 900.52 574.69 900.56 567.20 898.39 560.08 C 895.26 545.60 889.50 531.70 881.13 519.46 C 878.09 513.04 872.95 508.07 868.42 502.73 C 863.76 498.65 859.73 493.80 854.45 490.46 C 853.53 489.79 852.54 489.74 851.48 490.33 C 851.14 487.46 847.95 486.60 846.02 485.01 C 842.97 482.56 838.80 482.59 835.69 480.28 C 831.16 477.18 825.67 476.21 820.69 474.09 L 820.58 476.09 C 820.52 475.61 820.40 474.65 820.34 474.17 C 813.77 471.11 806.60 468.81 801.20 463.76 C 797.99 461.06 795.24 457.86 793.15 454.22 C 812.39 453.10 831.69 453.92 850.95 453.31 C 859.32 453.34 867.70 453.17 876.08 453.21 C 888.62 453.50 901.50 456.54 913.81 452.75 C 924.40 449.52 934.76 442.13 937.68 430.92 C 941.20 417.56 939.16 403.45 936.26 390.16 C 933.89 381.97 931.92 373.42 926.69 366.48 C 921.59 358.57 913.26 353.27 904.45 350.37 C 897.64 347.90 889.95 347.32 884.02 342.85 C 879.88 339.84 878.02 334.72 877.20 329.85 C 875.52 318.62 875.58 307.23 874.55 295.93 C 872.40 272.95 868.58 249.98 861.15 228.07 C 856.02 214.29 849.47 200.53 838.96 190.01 C 832.63 183.25 823.58 179.69 818.09 172.03 C 807.40 157.52 791.07 148.07 773.88 143.41 C 752.98 137.92 731.07 139.46 709.90 142.35 C 683.26 147.28 657.40 157.55 629.99 157.51 C 622.50 157.66 615.05 155.35 607.58 156.72 C 596.45 157.74 586.33 163.81 578.74 171.80 C 570.43 180.97 564.80 192.47 562.37 204.59 C 559.64 216.19 560.08 228.80 565.17 239.72 C 571.47 255.44 587.12 266.44 603.83 268.21 C 601.61 279.68 601.04 291.37 600.25 303.01 C 600.00 307.74 600.08 312.52 599.13 317.18 C 596.07 328.14 588.62 337.01 581.38 345.49 C 570.11 356.96 559.73 369.40 551.16 383.03 C 548.88 387.57 545.99 391.85 544.66 396.81 C 540.52 407.06 535.98 418.53 539.39 429.62 C 541.89 437.80 549.98 442.13 557.59 444.57 C 565.09 446.99 572.54 450.48 580.55 450.50 C 580.11 447.97 579.31 445.53 578.85 443.02 C 579.54 441.42 582.33 440.87 583.32 442.54 C 585.47 445.35 586.74 449.68 590.81 450.19 C 595.50 450.80 600.31 450.38 604.92 451.68 C 626.49 454.28 648.29 452.86 669.96 454.00 C 681.76 454.64 693.58 454.28 705.39 454.43 C 699.22 463.17 688.25 465.91 679.38 470.98 C 677.73 471.15 676.29 471.84 675.02 472.84 C 663.65 476.88 652.39 481.66 642.06 487.99 C 632.14 494.56 621.86 501.06 614.19 510.31 C 609.97 513.77 606.89 518.30 603.77 522.72 C 597.42 533.01 591.20 543.46 586.68 554.70 C 581.10 568.26 575.71 581.92 570.87 595.74 C 564.65 609.94 559.39 624.56 554.06 639.11 C 550.75 646.81 547.14 654.45 545.00 662.59 C 540.14 656.04 533.88 650.70 527.35 645.89 L 527.64 648.86 C 526.74 647.76 526.33 646.41 525.96 645.09 C 523.55 643.73 521.05 642.57 518.55 641.41 C 517.69 642.43 516.83 643.46 515.98 644.49 C 521.12 647.39 526.57 649.96 530.83 654.16 C 538.88 661.96 547.65 669.53 552.54 679.85 C 542.55 700.50 533.15 721.41 523.03 741.98 C 521.20 745.58 519.49 749.24 517.93 752.97 C 514.60 750.20 511.82 746.20 507.48 745.08 C 507.65 744.55 507.83 744.04 508.02 743.55 C 507.36 742.92 506.05 741.65 505.39 741.02 C 505.15 741.57 504.67 742.69 504.43 743.24 C 505.80 740.06 502.20 738.54 500.41 736.61 C 491.85 728.79 482.72 721.64 473.89 714.14 C 466.58 708.25 459.19 699.83 460.46 689.75 C 459.24 689.68 458.03 689.61 456.82 689.55 C 457.26 690.19 458.14 691.46 458.58 692.10 L 456.96 691.23 C 457.64 695.89 458.72 700.60 461.32 704.61 C 465.85 712.37 473.52 717.34 480.01 723.29 C 492.42 733.86 504.65 744.73 515.76 756.68 C 512.66 763.18 509.42 769.62 506.26 776.09 C 473.51 775.87 440.77 776.22 408.01 776.17 C 381.99 776.02 355.98 776.27 329.96 776.21 C 315.81 776.35 301.65 775.99 287.51 776.50 C 285.35 769.23 285.85 761.52 284.50 754.09 C 282.97 738.59 280.20 723.20 275.76 708.26 C 270.33 690.24 263.52 672.47 253.34 656.56 C 246.53 645.62 238.79 635.26 230.34 625.53 C 228.56 623.41 226.40 621.67 224.25 619.96 C 224.75 619.41 225.76 618.30 226.26 617.75 C 214.20 616.87 202.08 617.60 190.00 617.19 C 178.00 617.40 166.01 616.59 154.01 616.53 C 146.02 616.17 138.00 616.59 130.03 615.80 C 130.72 608.30 130.77 600.74 131.92 593.28 C 147.27 593.69 162.63 593.45 177.98 594.02 C 190.98 594.67 203.99 594.83 217.00 594.88 C 220.71 595.02 224.61 594.56 228.16 595.78 C 228.42 603.62 227.51 611.51 226.21 619.24 C 227.54 620.72 229.55 623.72 231.21 620.30 C 228.15 619.00 230.93 616.58 231.05 614.56 C 231.69 609.05 231.43 603.47 232.22 597.97 C 232.35 595.88 232.78 592.47 230.05 591.94 C 226.51 591.56 222.94 591.81 219.40 591.65 C 219.56 583.48 220.03 575.33 220.58 567.19 C 221.68 561.27 225.65 555.68 231.29 553.34 C 235.71 552.25 240.31 552.63 244.81 552.35 C 260.75 551.00 277.30 547.33 290.04 537.10 C 303.90 526.46 311.28 509.61 315.06 492.98 C 316.75 485.12 317.71 477.13 318.53 469.15 C 318.79 467.17 318.07 464.93 319.09 463.14 C 323.96 459.52 330.34 458.76 335.31 455.31 C 337.43 453.78 335.88 450.90 334.46 449.44 C 329.04 443.88 322.86 438.96 318.36 432.56 C 314.40 427.08 311.27 420.94 309.76 414.32 C 306.62 401.90 304.60 389.17 303.97 376.36 C 303.54 376.47 302.66 376.71 302.23 376.82 L 303.71 375.91 C 304.10 371.19 303.37 366.45 303.57 361.72 C 305.09 364.33 304.41 369.24 307.96 369.76 C 313.02 368.18 316.69 363.68 319.25 359.24 C 323.07 348.21 319.75 335.83 313.76 326.19 C 303.43 309.39 285.60 298.87 267.43 292.39 C 242.21 283.90 215.20 282.45 188.80 283.76 C 171.64 284.79 154.46 287.19 138.04 292.39 C 120.56 297.92 104.21 308.57 94.28 324.24 C 92.71 326.57 91.95 329.78 89.17 331.01 C 74.22 338.73 62.27 352.54 58.06 368.96 C 55.37 379.06 54.11 389.51 54.14 399.96 C 55.43 434.91 68.20 469.42 90.47 496.47 C 101.61 510.92 115.42 523.02 126.59 537.45 C 129.32 541.19 133.25 543.78 137.64 545.17 C 138.03 560.13 138.25 575.12 137.24 590.05 C 134.70 589.87 132.16 589.63 129.63 589.33 C 126.77 597.75 127.97 606.95 126.78 615.68 C 127.38 616.18 127.98 616.68 128.57 617.21 C 127.45 617.79 126.17 618.22 125.40 619.31 C 118.98 632.44 109.56 644.02 104.62 657.90 C 101.16 667.98 98.04 678.19 95.36 688.50 C 90.61 709.33 90.17 730.80 89.66 752.05 C 89.21 773.71 89.32 795.38 88.36 817.02 C 88.36 834.19 87.20 851.34 87.26 868.51 C 86.51 888.65 86.99 908.81 86.85 928.97 C 86.84 937.20 87.03 945.43 87.27 953.67 C 87.93 953.65 89.26 953.61 89.92 953.59 C 89.41 911.05 89.84 868.49 91.22 825.97 C 91.84 799.01 92.25 772.04 92.90 745.08 C 94.09 723.60 94.42 701.69 100.94 681.00 C 103.59 671.83 106.08 662.58 109.72 653.74 C 115.54 641.81 123.40 631.01 129.17 619.04 C 159.44 620.01 189.73 620.67 220.02 620.64 C 222.47 620.64 224.11 622.77 225.62 624.41 C 235.26 636.26 244.70 648.36 252.44 661.56 C 268.06 688.33 276.20 718.79 280.57 749.27 C 280.79 750.46 281.99 751.04 282.77 751.86 C 282.28 751.66 281.28 751.26 280.78 751.06 C 282.84 767.32 284.08 783.67 286.60 799.87 C 287.20 803.09 287.64 806.34 287.96 809.61 C 279.85 809.19 271.21 810.54 264.72 815.77 C 257.52 821.44 253.34 830.32 252.59 839.36 C 255.46 833.24 257.99 826.73 262.84 821.86 C 269.11 815.11 278.59 812.42 287.58 812.66 C 289.89 812.87 290.78 815.40 292.10 816.97 C 284.93 819.39 277.64 823.67 274.87 831.13 C 274.00 833.04 272.32 837.38 276.03 836.81 C 278.73 832.96 280.13 828.05 284.15 825.25 C 288.21 822.44 292.96 820.09 298.00 820.14 C 316.02 820.55 334.01 818.92 351.99 817.83 C 351.87 817.02 351.63 815.40 351.52 814.59 C 342.36 815.53 333.16 815.58 323.98 816.18 C 314.45 816.73 304.87 817.20 295.33 816.46 C 293.93 815.61 293.36 813.87 292.48 812.56 C 289.88 808.55 290.99 803.59 290.23 799.13 C 312.64 797.26 335.09 795.78 357.48 793.69 C 368.64 792.82 379.76 791.49 390.94 790.83 C 390.29 798.06 389.93 805.31 389.51 812.55 C 382.05 813.88 374.41 812.91 366.95 814.25 C 362.10 814.12 357.25 814.35 352.41 814.73 C 352.38 815.52 352.30 817.09 352.26 817.88 C 362.49 817.58 372.69 816.59 382.92 816.40 C 391.24 816.22 399.57 815.39 407.87 816.33 C 409.60 826.66 408.44 837.27 409.96 847.61 C 409.90 847.87 409.77 848.39 409.70 848.66 C 409.48 863.36 410.27 878.09 409.28 892.78 C 426.18 892.12 443.11 892.70 460.02 892.56 C 502.52 892.59 545.02 892.73 587.52 892.73 C 582.01 934.65 574.94 976.32 567.43 1017.92 C 567.04 1019.95 566.64 1021.99 566.12 1024.00 L 282.33 1024.00 C 281.96 1015.88 282.32 1007.76 281.71 999.65 C 259.82 998.58 237.87 999.48 215.96 999.14 C 175.99 999.53 136.03 999.03 96.06 999.26 C 94.35 999.37 92.49 999.10 90.97 1000.07 C 90.60 1008.03 90.28 1016.03 90.68 1024.00 L 0.00 1024.00 L 0.00 0.00 M 431.13 575.24 C 422.87 576.65 413.34 576.76 406.91 582.88 C 403.87 585.55 403.27 589.84 403.39 593.68 C 400.05 594.82 396.85 597.01 395.47 600.37 C 394.15 603.18 395.06 606.35 396.23 609.04 C 394.09 611.23 391.45 613.65 391.93 617.06 C 391.82 619.15 393.66 620.42 394.87 621.85 C 390.96 623.88 387.19 627.31 386.82 631.97 C 386.21 636.71 390.14 641.06 394.68 641.83 C 391.54 649.08 387.32 655.79 383.96 662.94 C 375.67 679.42 367.03 695.74 359.09 712.38 C 360.18 713.61 361.53 714.35 362.60 712.66 C 369.14 704.50 375.54 696.22 382.18 688.13 C 392.17 676.10 401.65 663.63 411.84 651.78 C 419.39 657.13 426.80 662.83 435.19 666.84 C 441.13 669.34 447.68 670.17 454.09 669.76 C 456.40 671.05 458.27 672.97 460.31 674.64 C 458.42 679.08 457.35 683.82 456.93 688.63 C 458.06 688.42 459.18 688.69 460.23 689.12 C 459.82 685.11 461.07 681.22 461.86 677.35 C 467.83 681.21 471.67 687.40 476.80 692.20 C 479.51 694.56 481.49 698.14 485.06 699.26 C 486.12 699.14 487.06 698.73 487.89 698.02 C 485.76 694.95 482.90 692.53 480.60 689.62 C 490.58 682.76 497.32 671.52 498.81 659.50 C 498.07 660.04 496.60 661.11 495.86 661.65 C 496.68 660.80 497.51 659.97 498.35 659.15 C 498.25 657.41 498.18 655.68 498.16 653.95 C 502.33 657.37 505.87 661.49 510.02 664.95 C 511.77 671.03 509.69 677.66 507.37 683.37 C 503.96 691.42 496.14 696.57 487.90 698.68 C 487.81 698.88 487.65 699.27 487.56 699.47 C 486.17 699.69 484.79 700.30 484.59 701.88 C 486.24 703.35 488.55 702.57 490.48 702.22 C 495.82 700.48 501.42 698.58 505.31 694.31 C 513.93 685.70 516.22 672.51 514.10 660.85 C 512.80 660.32 511.44 660.01 510.05 660.10 C 506.32 653.51 499.03 650.17 494.72 644.01 C 501.74 643.12 508.90 642.71 515.73 645.02 C 516.04 643.65 516.38 642.30 516.75 640.97 C 508.12 638.33 498.45 638.42 490.00 641.58 C 486.50 635.97 483.24 630.21 480.78 624.06 C 476.58 615.79 474.89 606.30 469.28 598.75 C 465.05 593.07 458.21 589.77 451.25 589.12 C 453.82 584.45 454.68 579.09 455.53 573.90 C 455.84 571.99 455.98 569.11 453.51 568.66 C 449.72 567.66 446.03 565.79 442.11 565.61 C 438.03 568.29 434.69 571.93 431.13 575.24 M 179.92 716.97 C 176.70 728.33 175.91 740.46 178.15 752.09 C 180.81 765.50 184.73 778.62 188.38 791.79 C 194.22 812.09 199.86 832.44 205.21 852.87 C 208.88 865.33 211.87 878.52 219.82 889.10 C 226.32 897.27 236.62 902.35 247.09 902.30 C 260.36 902.50 273.58 901.04 286.81 900.17 C 286.32 910.08 286.40 920.01 286.16 929.93 C 286.50 937.56 285.45 945.16 285.68 952.79 C 286.42 952.74 287.90 952.63 288.64 952.58 C 289.56 935.04 289.23 917.45 290.04 899.92 C 296.57 899.11 303.39 899.74 309.72 897.85 C 312.81 898.76 315.99 897.76 319.13 897.79 C 319.48 896.65 319.92 895.56 320.37 894.48 C 309.28 895.61 298.11 895.73 287.02 896.92 C 273.68 897.80 260.43 899.64 247.05 899.77 C 236.38 899.66 226.23 893.45 220.52 884.58 C 213.57 873.05 210.52 859.81 206.88 847.00 C 200.15 822.29 192.92 797.73 186.06 773.05 C 182.37 758.76 178.04 743.97 180.62 729.09 C 180.83 724.73 182.93 720.62 182.66 716.23 C 182.25 714.17 179.89 715.35 179.92 716.97 M 158.22 739.26 L 160.03 739.37 C 159.54 739.41 158.57 739.47 158.08 739.50 C 158.79 746.70 159.86 754.12 163.58 760.47 C 164.11 761.42 164.91 762.06 166.00 762.40 C 165.54 758.44 163.82 754.81 162.92 750.97 C 161.77 746.71 161.41 742.31 160.87 737.96 C 160.95 736.24 161.45 734.51 160.58 732.92 C 162.47 729.13 161.06 724.25 161.50 720.07 C 158.61 725.93 158.77 732.84 158.22 739.26 M 362.83 892.60 C 362.79 893.63 362.75 894.67 362.71 895.73 C 377.67 895.03 392.68 895.49 407.60 894.44 C 407.99 894.02 408.76 893.17 409.15 892.75 C 393.72 892.36 378.26 892.23 362.83 892.60 M 330.76 894.17 C 330.77 895.23 330.79 896.31 330.80 897.40 C 341.26 896.29 351.81 895.89 362.32 895.75 C 362.25 894.62 362.19 893.50 362.14 892.38 C 351.69 893.14 341.19 893.16 330.76 894.17 M 320.85 894.55 C 320.73 895.67 320.61 896.80 320.48 897.94 C 323.68 897.51 326.92 897.15 330.16 897.41 C 330.20 896.24 330.24 895.09 330.30 893.95 C 327.15 894.16 324.00 894.51 320.85 894.55 M 285.50 953.49 C 285.29 965.03 284.92 976.58 285.04 988.11 C 284.43 992.25 284.05 996.48 284.37 1000.67 C 285.48 1001.04 286.63 1001.21 287.81 1001.17 C 288.60 994.48 287.83 987.75 288.34 981.05 C 288.38 971.57 288.89 962.11 288.72 952.64 C 287.92 952.85 286.31 953.28 285.50 953.49 M 86.98 953.65 C 86.91 958.55 87.13 963.45 87.19 968.36 C 87.95 968.37 89.46 968.38 90.22 968.39 C 90.28 963.71 90.08 959.03 90.25 954.36 C 89.16 954.11 88.07 953.87 86.98 953.65 M 87.46 968.94 C 86.68 977.28 87.90 985.66 87.36 994.02 C 87.33 996.26 87.04 999.99 90.21 1000.13 C 90.43 989.57 90.29 978.97 90.20 968.39 C 89.52 968.53 88.15 968.80 87.46 968.94 Z" />
<path fill="rgba(0,0,0,0)" opacity="1.00" d=" M 751.89 234.02 C 754.57 227.38 758.89 220.45 765.94 217.92 C 770.30 216.71 771.96 222.20 774.01 225.00 C 780.05 239.85 780.51 256.40 787.00 271.12 C 789.16 277.59 792.57 283.80 797.08 288.92 C 799.41 291.66 802.48 288.98 805.02 288.10 C 809.54 286.72 814.37 285.46 819.11 286.43 C 822.66 287.04 826.48 287.28 829.37 289.71 C 836.53 294.23 840.86 301.96 842.98 309.98 C 843.41 311.65 843.30 313.47 844.22 315.00 C 842.47 322.43 842.64 330.61 838.35 337.26 C 836.28 341.28 832.56 343.97 829.73 347.39 C 825.63 348.88 822.13 351.55 818.14 353.27 C 816.78 348.02 814.53 342.02 808.94 340.06 C 807.07 338.90 804.43 339.75 804.40 342.17 C 806.01 345.04 809.69 345.90 811.27 348.81 C 812.42 350.53 812.90 352.56 812.97 354.62 C 804.84 357.49 796.26 356.00 787.96 354.98 C 788.45 366.28 781.12 376.05 773.00 383.13 C 755.29 398.74 731.86 405.55 709.10 409.74 C 700.91 411.98 692.29 411.20 683.92 410.73 C 666.73 409.76 649.90 403.33 636.45 392.58 C 625.16 383.79 616.83 371.59 611.67 358.31 C 604.55 340.12 605.26 320.22 604.82 301.03 C 604.61 290.21 605.09 279.28 607.48 268.70 C 611.99 269.13 616.50 269.62 621.04 269.59 C 622.73 269.50 625.23 269.31 625.33 267.09 C 624.43 260.68 621.37 254.86 619.52 248.71 C 620.53 247.98 621.62 246.21 623.09 247.13 C 624.99 248.62 625.76 251.05 626.85 253.13 C 629.12 258.21 632.83 262.48 636.76 266.36 C 640.50 270.09 646.22 269.03 650.99 269.42 C 664.03 269.39 677.09 269.78 690.10 268.70 C 692.76 268.30 696.03 268.68 697.77 266.16 C 694.37 261.44 691.39 256.44 688.59 251.35 C 686.44 245.40 684.84 239.20 684.21 232.90 C 684.05 231.18 685.91 230.80 687.00 229.99 C 689.84 232.93 689.75 237.20 691.13 240.82 C 694.41 251.65 703.24 260.25 713.60 264.48 C 729.43 271.19 747.03 271.45 763.94 270.62 C 766.01 270.88 766.98 267.75 765.43 266.54 C 761.00 262.29 755.56 258.71 752.76 253.06 C 750.31 247.09 749.25 240.12 751.89 234.02 M 720.25 273.35 C 717.58 274.24 712.65 274.95 713.20 278.76 C 714.23 280.62 716.62 279.98 718.17 279.20 C 723.47 276.61 730.05 276.72 735.14 279.77 C 737.08 280.69 738.81 282.41 741.05 282.51 C 742.81 281.16 741.20 279.10 740.05 278.02 C 734.99 273.06 726.99 271.07 720.25 273.35 M 617.28 280.31 C 616.33 281.24 615.22 282.57 615.92 284.00 C 619.26 285.81 620.88 281.15 623.94 280.80 C 628.23 279.33 632.57 281.17 636.36 283.12 C 636.73 281.11 635.92 278.86 634.03 277.93 C 628.67 275.13 621.63 276.09 617.28 280.31 M 719.47 289.60 C 718.01 290.06 717.16 291.45 716.66 292.80 C 714.49 299.02 715.71 305.64 715.07 312.06 C 714.81 314.23 716.68 316.71 719.05 316.29 C 722.53 315.51 726.49 313.05 726.71 309.11 C 727.10 304.10 727.00 299.03 726.42 294.04 C 726.18 290.81 722.55 288.18 719.47 289.60 M 668.21 300.94 C 667.74 309.59 663.46 318.31 656.12 323.13 C 653.85 324.73 650.86 327.50 652.64 330.53 C 654.73 332.95 658.14 333.64 661.08 334.59 C 662.75 335.32 664.99 334.11 664.87 332.18 C 663.82 329.64 660.69 329.39 658.48 328.49 C 661.47 325.14 665.34 322.53 667.49 318.46 C 670.25 314.65 670.72 309.93 672.08 305.56 C 671.60 305.39 670.62 305.06 670.13 304.89 C 670.59 304.90 671.50 304.91 671.96 304.92 C 671.93 299.84 671.59 294.63 669.64 289.89 C 668.63 293.49 668.86 297.27 668.21 300.94 M 628.19 292.08 C 623.89 295.75 625.17 302.07 624.90 307.07 C 625.16 310.22 623.86 313.69 625.41 316.60 C 629.03 319.47 634.33 315.36 635.46 311.62 C 636.00 306.76 635.82 301.82 635.79 296.93 C 635.86 293.29 631.45 290.43 628.19 292.08 M 810.01 307.98 C 800.74 313.22 794.46 322.73 791.97 332.94 C 791.24 335.64 794.16 339.24 797.00 337.79 C 800.44 336.10 803.25 333.41 806.45 331.34 C 811.92 327.37 818.48 324.53 822.53 318.91 C 821.22 317.65 819.34 316.01 817.57 317.56 C 810.89 322.37 804.10 327.04 797.28 331.66 C 799.88 324.81 803.79 318.12 809.88 313.82 C 813.85 311.16 818.28 309.26 822.81 307.74 C 824.08 307.18 825.89 306.86 826.03 305.14 C 825.63 303.98 824.91 303.09 823.88 302.48 C 818.87 303.11 814.39 305.64 810.01 307.98 M 675.20 348.39 C 672.57 351.42 677.07 354.52 680.01 354.09 C 685.61 353.51 691.06 356.09 696.56 355.53 C 700.36 353.26 696.78 348.92 693.48 348.79 C 687.52 348.03 681.02 346.40 675.20 348.39 Z" />
<path fill="rgba(0,0,0,0)" opacity="1.00" d=" M 268.51 355.60 C 270.29 353.76 271.81 356.32 272.36 357.80 C 276.40 367.15 276.55 377.57 276.51 387.56 C 276.72 387.58 277.15 387.63 277.37 387.65 C 284.99 382.56 292.33 376.98 300.32 372.46 C 301.14 378.56 301.43 384.70 301.69 390.85 C 292.98 388.33 284.36 393.32 279.07 399.99 C 276.84 401.83 273.72 406.53 278.06 407.88 C 282.46 405.60 284.53 400.23 289.05 397.82 C 292.64 394.29 298.32 396.43 301.98 393.18 C 302.15 399.32 304.20 405.15 305.21 411.16 C 307.22 420.08 310.84 428.77 316.60 435.94 C 321.35 442.08 327.59 446.85 332.53 452.82 C 328.04 455.01 323.53 457.15 318.86 458.93 C 317.47 459.57 315.34 460.09 315.46 462.03 C 315.13 471.34 314.44 480.67 312.34 489.78 C 309.23 505.62 302.89 521.61 290.56 532.55 C 278.90 542.86 263.30 547.45 248.06 548.94 C 233.35 550.93 218.32 549.94 204.00 546.08 C 205.11 554.80 210.23 562.68 217.14 567.99 C 217.26 575.83 216.24 583.68 216.10 591.54 C 204.73 591.57 193.37 591.22 182.01 590.80 C 180.75 590.76 179.51 591.05 178.28 591.27 C 175.33 590.19 172.16 590.72 169.10 590.44 C 162.67 590.48 156.24 589.94 149.81 590.27 C 146.63 590.24 143.35 590.53 140.32 589.38 C 141.47 574.97 141.45 560.48 140.58 546.06 C 151.88 547.81 163.47 544.88 173.34 539.33 C 183.50 533.33 190.69 523.50 195.93 513.13 C 198.52 507.08 200.37 500.16 197.88 493.75 C 206.14 496.85 215.58 497.22 223.76 493.68 C 226.65 492.48 230.75 490.69 229.96 486.85 C 225.72 487.58 222.21 490.44 217.93 491.10 C 210.11 493.22 201.62 491.45 194.81 487.24 C 179.84 476.83 175.21 454.95 183.76 439.04 C 189.96 426.30 207.96 422.38 219.62 429.73 C 223.00 432.95 226.62 436.19 228.43 440.62 C 229.34 442.10 229.82 444.58 231.93 444.71 C 243.49 438.81 251.53 428.03 257.85 416.99 C 266.80 401.54 270.77 383.28 269.35 365.51 C 269.22 362.21 267.39 358.82 268.51 355.60 M 296.23 412.28 C 294.54 413.65 294.47 416.04 294.48 418.04 C 294.75 425.37 295.38 432.69 295.44 440.03 C 295.66 442.95 295.72 447.00 298.97 448.22 C 301.84 447.25 302.41 443.68 302.30 441.04 C 302.14 433.32 301.29 425.63 300.81 417.94 C 300.63 415.38 299.90 410.76 296.23 412.28 M 193.08 444.88 C 195.42 447.14 198.97 446.85 201.90 447.81 C 212.42 450.26 220.23 459.70 222.66 469.94 C 215.74 465.75 209.39 460.69 202.63 456.24 C 201.53 455.60 200.38 454.68 199.02 454.91 C 197.49 455.61 196.22 457.76 197.95 459.02 C 201.76 462.73 206.65 465.06 210.90 468.21 C 215.01 470.79 218.71 474.06 223.12 476.15 C 225.24 477.41 227.42 474.86 227.91 472.98 C 227.92 468.88 226.67 464.84 224.64 461.31 C 222.36 457.41 220.30 453.22 216.78 450.27 C 211.37 445.23 204.13 442.65 196.95 441.45 C 194.91 440.88 191.86 442.50 193.08 444.88 M 273.01 443.75 C 273.74 448.80 274.64 454.79 278.78 458.22 C 278.88 454.04 277.34 450.06 275.75 446.27 C 275.32 444.97 274.33 444.07 273.01 443.75 M 287.96 453.77 C 288.17 458.18 289.55 462.56 292.16 466.15 C 292.36 465.60 292.76 464.52 292.95 463.97 C 292.01 460.46 291.75 455.32 287.96 453.77 M 303.33 461.02 C 302.45 463.96 303.33 466.98 304.34 469.76 C 304.57 471.05 305.79 471.51 306.83 472.04 C 306.67 468.19 306.51 463.69 303.33 461.02 Z" />
<path fill="rgba(0,0,0,0)" opacity="1.00" d=" M 764.79 406.84 C 767.05 404.96 769.00 402.68 771.54 401.14 C 772.19 407.75 771.37 414.39 771.43 421.01 C 772.00 428.03 771.61 435.09 772.10 442.11 C 772.08 445.65 774.38 448.76 777.84 449.66 C 775.18 451.04 772.45 452.27 769.60 453.17 C 769.36 454.65 769.15 456.13 768.96 457.63 C 775.34 455.75 781.38 452.82 786.75 448.89 C 790.46 458.24 796.83 466.92 805.78 471.79 C 798.41 477.11 790.31 481.33 781.89 484.71 C 779.26 484.92 780.44 487.60 780.53 489.19 C 781.97 488.89 783.48 488.66 784.85 488.04 C 793.45 484.28 802.34 480.55 809.33 474.09 C 822.50 479.59 836.29 483.96 848.35 491.77 C 866.33 502.63 878.67 520.59 887.29 539.37 L 887.89 537.06 C 888.47 538.13 889.10 539.17 889.77 540.21 C 889.10 539.99 887.74 539.54 887.07 539.31 C 889.07 545.54 892.05 551.51 893.04 558.03 C 898.68 578.49 898.63 599.88 900.35 620.88 C 902.32 658.56 904.81 696.26 905.98 733.98 C 906.64 742.13 905.93 750.30 906.84 758.43 C 906.21 770.03 907.81 782.42 902.13 793.08 C 896.64 801.58 888.09 808.68 877.92 810.44 C 869.51 812.79 860.71 812.63 852.11 813.70 C 842.86 814.26 833.75 816.15 824.49 816.40 C 815.30 817.30 805.99 817.53 796.94 819.55 C 796.90 821.45 795.43 819.97 794.70 819.40 L 794.73 820.50 C 792.52 818.14 789.66 821.01 787.09 820.03 C 780.72 820.47 774.40 821.41 768.03 821.83 C 759.09 822.84 750.06 822.55 741.13 823.63 C 738.00 824.08 734.86 823.70 731.73 823.59 C 731.54 823.80 731.16 824.22 730.97 824.42 C 729.29 823.11 727.02 823.62 725.07 823.20 C 717.88 822.71 710.57 818.65 707.45 811.97 C 706.56 810.33 705.68 808.71 704.76 807.11 C 704.76 805.63 704.77 804.16 704.78 802.70 C 710.56 803.17 716.36 803.41 722.14 803.83 C 724.38 804.29 725.09 801.64 725.01 799.94 C 725.17 793.31 725.75 786.66 725.06 780.05 C 724.35 771.70 720.93 763.95 718.48 756.04 C 718.15 754.81 717.64 752.91 715.99 753.18 C 712.69 753.46 709.38 753.32 706.13 752.67 C 708.23 749.34 709.69 745.25 713.34 743.27 C 723.28 736.23 735.53 733.55 747.50 732.90 C 759.43 731.79 771.37 731.32 783.33 730.30 C 783.72 730.09 784.49 729.67 784.87 729.45 C 791.56 730.46 798.07 727.44 804.82 728.24 C 808.80 727.01 813.02 727.75 817.12 727.33 C 822.39 726.83 827.90 727.65 832.38 730.65 C 832.34 730.05 832.27 728.87 832.24 728.28 C 832.67 728.58 833.52 729.18 833.95 729.48 C 833.48 729.97 833.03 730.47 832.60 730.99 C 838.63 734.83 841.21 742.19 845.16 747.91 C 845.68 748.24 846.72 748.89 847.24 749.22 C 847.24 746.48 847.03 743.68 845.80 741.21 C 841.71 733.18 835.72 724.81 826.22 723.16 C 826.39 722.92 826.73 722.43 826.90 722.19 C 829.91 721.83 832.96 721.78 835.93 722.52 C 836.33 720.60 835.15 718.95 834.13 717.48 C 833.70 718.15 832.83 719.50 832.40 720.17 C 832.52 719.57 832.74 718.36 832.85 717.76 C 829.22 718.03 825.53 718.25 822.11 719.62 C 821.21 700.74 822.94 681.81 822.01 662.96 C 822.83 653.00 821.89 642.98 822.16 632.99 C 821.37 620.89 822.61 608.69 825.49 596.92 C 825.57 595.51 825.13 593.68 823.52 593.39 C 821.92 592.85 821.08 594.87 820.78 596.07 C 817.26 611.11 818.48 626.65 818.29 641.95 C 818.44 663.97 818.51 685.99 818.21 708.01 C 818.79 713.02 817.35 718.04 818.22 723.04 C 806.44 724.42 794.44 723.93 782.83 726.57 C 777.86 725.80 772.98 727.71 768.00 727.21 C 765.00 726.97 762.15 728.38 759.16 728.17 C 754.24 727.71 749.43 729.15 744.52 729.21 C 733.76 729.49 723.34 732.73 713.72 737.40 C 718.29 727.47 723.33 717.77 727.72 707.75 C 734.70 694.22 740.32 680.03 747.60 666.64 C 753.00 656.49 756.48 645.23 763.37 635.93 C 762.10 634.84 760.90 633.17 759.00 633.47 C 750.92 633.73 742.72 633.00 734.73 634.00 C 734.60 634.58 734.35 635.75 734.23 636.34 C 742.01 637.06 749.85 636.56 757.66 636.59 C 738.97 675.24 721.43 714.49 701.06 752.29 C 698.61 753.46 695.44 752.45 692.73 752.69 C 692.79 755.67 689.46 754.96 687.47 755.21 C 680.19 755.04 672.87 755.44 665.61 754.89 C 665.22 755.50 664.81 756.11 664.40 756.72 C 664.43 756.25 664.49 755.32 664.52 754.85 C 658.51 755.62 652.33 754.59 646.43 756.23 C 646.13 756.09 645.53 755.82 645.23 755.69 C 635.82 756.97 625.91 755.63 616.93 759.23 C 611.47 759.74 605.39 761.43 602.47 766.51 C 600.67 769.49 602.01 773.29 604.49 775.43 C 607.24 778.25 611.31 778.90 615.07 779.15 C 619.57 779.60 624.12 779.43 628.62 778.92 C 620.86 788.20 615.19 799.87 615.24 812.16 C 615.59 816.12 618.95 819.33 622.97 819.35 C 623.41 822.99 626.40 826.03 630.13 826.24 C 635.82 827.42 641.36 824.81 646.08 821.89 C 650.38 819.30 652.64 814.64 655.35 810.62 C 663.38 813.26 671.94 813.10 680.29 813.15 C 679.47 814.92 678.40 816.57 677.33 818.21 C 677.73 818.31 678.53 818.50 678.93 818.60 C 678.52 818.54 677.68 818.40 677.27 818.34 C 676.69 819.71 676.10 821.09 675.50 822.47 C 676.08 822.74 677.24 823.28 677.82 823.55 C 676.92 823.38 676.02 823.23 675.14 823.08 C 670.80 832.80 665.72 842.15 661.28 851.82 C 650.20 851.88 639.13 852.67 628.05 852.72 C 618.16 853.19 608.22 852.91 598.38 854.12 C 596.80 853.81 595.24 853.87 593.76 854.48 C 592.88 862.25 591.11 869.87 589.73 877.56 C 546.83 877.39 503.94 877.30 461.04 877.57 C 444.97 877.30 428.89 878.07 412.83 877.66 C 422.10 874.62 431.61 872.18 440.89 869.10 C 440.88 868.33 440.88 866.81 440.87 866.04 C 460.77 868.15 480.76 869.41 500.72 870.88 L 500.16 869.03 C 500.51 870.40 501.52 871.11 502.96 870.81 C 515.46 870.58 527.88 867.15 538.65 860.78 C 540.70 859.39 543.12 858.82 545.58 858.81 C 561.42 858.33 577.30 858.43 593.13 857.59 C 593.27 856.65 593.56 854.79 593.70 853.85 C 585.14 854.81 576.52 854.33 567.95 854.81 C 561.21 855.32 554.46 855.15 547.72 855.48 C 548.67 853.17 550.90 850.80 549.77 848.16 C 549.11 847.91 547.80 847.43 547.14 847.19 C 555.18 844.86 563.11 841.83 570.11 837.16 C 571.83 835.81 573.97 833.27 572.15 831.14 C 570.17 828.75 566.70 829.22 563.93 829.18 C 558.68 829.56 553.31 829.24 548.20 830.73 C 552.69 826.80 558.67 824.71 562.45 819.98 C 563.76 818.46 562.14 816.96 561.20 815.82 C 552.44 815.87 543.74 816.50 535.06 817.71 C 536.88 815.77 539.23 814.26 540.61 811.93 C 541.23 809.80 538.78 808.36 536.93 808.42 C 529.42 807.87 521.88 808.65 514.36 808.31 C 516.41 803.21 518.36 798.01 521.33 793.38 C 523.95 787.18 527.21 781.28 529.80 775.08 C 533.49 770.19 534.93 764.11 538.16 758.95 C 541.64 753.22 544.17 746.99 547.14 740.98 C 556.17 723.82 564.18 706.15 573.34 689.06 C 581.35 671.64 590.69 654.86 598.55 637.37 C 605.88 635.55 613.55 637.24 621.01 636.52 C 628.00 637.00 635.03 636.27 641.98 637.16 C 645.52 636.96 649.06 636.66 652.61 636.73 C 649.79 641.82 647.01 646.95 643.79 651.80 C 642.35 654.11 641.17 657.08 642.11 659.77 C 653.38 659.09 664.68 660.24 675.97 659.88 C 682.16 659.54 688.47 661.06 694.55 659.42 C 694.31 658.61 693.82 656.98 693.58 656.17 C 692.35 656.07 691.14 655.99 689.93 655.91 C 680.27 655.65 670.61 656.14 660.95 655.70 C 655.83 655.71 650.71 655.28 645.61 655.74 C 646.46 652.88 648.79 650.90 650.26 648.39 C 652.84 644.58 654.58 640.11 657.97 636.91 C 661.71 636.79 665.39 637.77 669.14 637.69 C 671.01 637.86 671.69 635.77 672.65 634.57 C 674.93 631.41 675.53 627.51 677.04 624.01 C 679.88 619.45 683.79 615.20 688.96 613.33 C 692.68 611.68 697.22 613.31 699.68 616.40 C 702.20 619.81 700.22 624.27 698.65 627.67 C 697.26 630.93 694.05 633.40 693.89 637.13 C 698.26 638.88 702.90 636.40 707.42 637.49 C 703.47 642.75 700.81 648.82 697.25 654.34 C 696.03 656.17 695.09 658.15 694.29 660.20 C 694.92 660.42 696.18 660.85 696.81 661.06 C 702.60 653.40 706.51 644.52 712.14 636.76 C 719.09 636.21 726.20 636.80 733.22 636.72 C 733.60 635.79 734.00 634.88 734.41 633.96 C 728.14 632.85 721.82 633.83 715.52 633.32 C 716.43 631.07 717.68 627.64 714.90 626.15 C 711.24 625.19 707.35 625.96 703.61 625.62 C 704.96 621.12 705.47 615.71 702.24 611.87 C 698.23 607.26 691.13 607.20 685.93 609.66 C 679.71 612.76 675.33 618.56 672.54 624.79 C 666.18 625.52 659.77 624.75 653.42 625.35 C 653.11 625.73 652.47 626.49 652.15 626.87 C 652.32 626.37 652.65 625.37 652.82 624.87 C 651.23 625.24 649.48 625.15 648.06 626.05 C 645.88 628.39 645.24 631.76 643.11 634.12 C 631.57 633.59 619.99 634.17 608.42 633.70 C 608.51 632.35 608.59 630.99 608.67 629.65 C 607.71 629.64 605.79 629.62 604.83 629.61 C 604.83 631.01 604.84 632.43 604.86 633.85 C 602.39 633.90 599.94 634.01 597.50 634.18 C 597.54 634.81 597.62 636.08 597.66 636.71 C 597.05 635.80 596.46 634.90 595.85 634.03 C 595.44 634.79 594.63 636.32 594.22 637.08 C 594.35 636.45 594.61 635.19 594.74 634.55 C 588.20 634.76 581.60 635.55 575.12 634.21 C 574.03 635.23 573.32 636.58 572.67 637.92 C 567.35 649.28 561.71 660.50 556.27 671.81 C 554.61 667.13 551.89 662.86 550.51 658.09 C 553.90 651.70 556.65 644.99 558.86 638.10 C 562.21 628.58 566.08 619.25 569.71 609.84 C 570.44 607.17 572.18 604.65 571.69 601.79 C 574.77 598.18 575.85 593.29 577.67 588.99 C 577.01 589.10 575.67 589.33 575.01 589.45 C 575.94 589.15 576.88 588.86 577.83 588.58 C 578.52 584.21 581.08 580.51 582.53 576.40 C 586.50 566.49 590.16 556.45 594.79 546.81 C 597.09 541.09 600.95 536.20 603.44 530.58 C 602.41 530.00 602.38 528.98 602.92 528.06 L 604.12 529.39 C 609.00 521.40 614.99 514.12 621.90 507.80 C 628.84 501.18 637.03 496.13 645.03 490.91 C 648.26 488.74 652.42 487.94 655.02 484.88 C 659.08 484.20 662.67 482.11 666.39 480.49 C 669.86 478.79 673.65 477.86 677.08 476.06 C 686.98 486.93 700.09 495.60 714.88 497.68 C 728.26 499.38 741.80 498.12 755.10 496.30 C 763.79 494.96 772.23 492.46 780.56 489.68 C 780.20 488.52 779.85 487.36 779.52 486.20 C 773.05 487.42 767.03 490.32 760.51 491.32 C 748.57 494.35 736.20 495.58 723.90 495.24 C 707.12 495.50 690.87 487.18 679.92 474.70 C 688.20 471.76 696.29 467.81 703.01 462.07 C 705.34 460.13 706.49 457.24 707.84 454.61 C 710.67 457.09 714.32 458.21 717.87 459.24 C 725.23 461.13 732.84 462.05 740.45 461.69 C 744.06 461.42 747.78 461.90 751.28 460.75 C 756.31 461.47 761.09 459.50 765.96 458.61 C 768.90 458.76 769.41 456.51 768.48 454.15 C 761.28 454.66 754.47 457.86 747.20 457.39 C 739.06 458.37 730.82 457.69 722.76 456.37 C 719.02 455.65 715.18 454.92 711.80 453.13 C 713.60 447.15 713.06 440.85 713.74 434.71 C 732.99 430.42 750.01 419.56 764.79 406.84 M 617.69 579.49 C 607.71 594.08 606.79 612.39 605.14 629.41 C 606.04 629.45 607.85 629.53 608.76 629.57 C 610.24 613.08 611.49 595.46 621.41 581.51 C 623.20 578.67 626.13 575.35 625.17 571.85 C 621.72 573.21 619.81 576.66 617.69 579.49 M 805.75 601.55 C 803.02 610.74 802.44 621.08 806.30 630.04 C 807.96 627.96 806.59 625.32 806.92 622.96 C 807.26 620.71 807.53 618.45 807.61 616.18 C 807.33 613.51 806.93 610.77 807.75 608.16 C 808.53 606.86 807.65 605.69 807.31 604.49 C 807.68 604.43 808.44 604.30 808.82 604.23 C 808.56 602.92 808.83 601.79 809.64 600.83 C 809.51 600.46 809.26 599.71 809.13 599.34 C 810.00 597.38 810.47 595.27 810.41 593.12 C 807.76 595.17 806.74 598.50 805.75 601.55 M 676.45 678.55 L 676.39 680.54 C 684.49 680.92 692.63 680.41 700.74 680.42 C 700.76 679.98 700.79 679.08 700.81 678.63 C 692.69 678.39 684.57 678.56 676.45 678.55 M 702.22 679.16 C 702.19 679.42 702.13 679.94 702.11 680.20 C 706.16 680.30 710.47 680.91 714.40 679.69 C 710.42 679.13 706.13 677.90 702.22 679.16 M 596.79 680.22 C 600.32 681.67 604.16 681.31 607.89 681.46 C 624.54 682.42 641.22 681.23 657.88 681.43 C 657.95 680.45 658.01 679.48 658.08 678.52 C 655.19 679.97 652.05 678.81 649.02 679.28 C 635.01 679.48 621.01 679.75 607.00 679.79 C 603.60 679.77 600.13 679.42 596.79 680.22 M 659.05 681.36 C 664.29 681.18 669.53 680.66 674.79 680.83 C 674.75 680.19 674.66 678.92 674.62 678.29 C 669.48 679.09 664.28 678.52 659.11 678.52 C 659.08 679.45 659.05 680.40 659.05 681.36 M 639.01 696.80 C 628.33 697.37 617.62 697.30 606.97 698.27 C 601.93 698.43 596.82 698.31 591.87 699.37 C 596.17 699.64 600.49 700.26 604.80 699.93 C 610.19 700.51 615.61 699.79 621.02 699.85 C 633.04 699.83 645.05 699.28 657.06 699.01 C 669.79 698.29 682.60 699.40 695.30 698.45 C 688.73 696.43 681.82 696.41 675.03 696.20 C 663.02 696.43 651.00 696.05 639.01 696.80 M 585.62 715.23 C 590.94 716.88 596.59 716.23 602.05 717.04 C 616.04 717.85 630.04 718.11 644.04 718.25 C 646.91 718.28 649.83 718.51 652.65 717.78 C 662.30 718.94 672.14 717.84 681.87 718.29 C 681.90 717.40 681.93 716.53 681.97 715.67 C 655.63 715.57 629.30 715.73 603.00 715.08 C 597.21 715.26 591.36 714.14 585.62 715.23 M 683.06 718.34 C 688.83 718.05 694.60 717.66 700.38 717.42 C 694.76 716.00 688.77 716.70 683.05 715.69 C 683.05 716.56 683.05 717.45 683.06 718.34 M 836.20 718.80 C 836.21 719.80 836.23 721.80 836.24 722.80 C 839.91 723.77 843.49 725.26 846.56 727.54 C 853.22 732.82 856.95 740.63 861.94 747.30 L 863.13 746.87 C 863.73 741.34 860.12 736.39 856.75 732.34 C 854.28 729.80 852.13 726.43 848.53 725.44 C 845.99 721.09 840.72 719.90 836.20 718.80 Z" />
<path fill="rgba(0,0,0,0)" opacity="1.00" d=" M 446.57 574.89 C 447.94 574.72 449.34 574.72 450.71 575.01 C 450.23 576.62 449.69 578.21 449.10 579.79 C 447.75 578.44 446.90 576.76 446.57 574.89 Z" />
<path fill="rgba(0,0,0,0)" opacity="1.00" d=" M 409.13 586.13 C 415.06 580.85 423.42 580.67 430.84 579.29 C 435.56 578.74 441.86 577.51 445.03 582.09 C 440.39 585.12 435.05 586.74 429.96 588.80 C 426.31 590.18 422.82 591.94 419.10 593.13 C 415.40 591.36 411.34 592.64 407.46 592.88 C 407.60 590.59 407.09 587.77 409.13 586.13 Z" />
<path fill="rgba(0,0,0,0)" opacity="1.00" d=" M 432.23 594.42 C 436.95 592.69 442.05 591.85 447.06 591.80 C 453.82 593.47 461.36 595.35 465.80 601.17 C 469.71 605.94 471.28 612.01 473.51 617.63 C 477.43 627.22 481.06 637.17 487.74 645.27 C 490.34 648.93 494.31 652.18 494.50 657.00 C 494.32 668.88 486.96 679.64 477.40 686.22 C 471.03 680.56 465.68 673.81 458.96 668.54 C 466.43 665.53 470.47 657.40 472.36 649.99 C 472.63 647.92 473.60 644.96 471.37 643.65 C 468.44 651.09 466.54 659.79 459.84 664.88 C 454.59 667.21 448.50 666.36 443.00 665.49 C 432.11 662.30 423.01 655.17 413.90 648.69 C 417.18 645.14 419.98 641.21 422.29 636.97 C 425.36 636.12 428.45 635.34 431.56 634.61 C 431.77 636.55 430.43 639.45 432.85 640.48 C 433.88 638.36 434.54 636.10 435.12 633.83 C 438.17 634.20 439.66 637.32 441.78 639.18 C 444.60 641.71 446.22 645.70 449.94 647.10 C 449.43 641.01 444.22 636.65 440.14 632.60 L 440.16 631.97 C 444.02 629.58 448.78 628.47 451.95 625.07 C 454.61 621.55 451.86 616.58 448.08 615.30 C 451.09 613.30 454.67 611.51 456.18 608.01 C 456.55 605.17 453.89 603.32 451.68 602.21 C 446.54 599.50 440.59 600.04 434.99 599.79 C 434.01 598.08 430.81 596.57 432.23 594.42 Z" />
<path fill="rgba(0,0,0,0)" opacity="1.00" d=" M 400.72 599.73 C 404.62 596.39 410.14 596.83 414.94 596.43 C 419.63 596.33 425.38 595.36 428.91 599.27 C 428.83 601.57 425.58 601.54 423.98 602.37 C 416.06 604.10 408.09 605.68 400.05 606.70 C 398.83 604.46 398.63 601.53 400.72 599.73 Z" />
<path fill="rgba(0,0,0,0)" opacity="1.00" d=" M 423.06 607.89 C 432.04 607.42 441.16 605.31 450.06 607.47 C 447.49 611.57 442.45 613.49 437.88 614.39 C 425.17 615.47 412.60 617.79 399.93 619.13 C 398.32 618.65 396.15 617.90 395.67 616.13 C 396.53 613.72 399.04 612.41 401.23 611.37 C 408.25 608.94 415.79 609.04 423.06 607.89 Z" />
<path fill="rgba(0,0,0,0)" opacity="1.00" d=" M 429.50 619.84 C 435.85 619.80 442.56 618.05 448.70 620.26 C 449.60 622.77 446.63 623.94 444.97 625.00 C 439.65 628.34 433.40 629.40 427.54 631.40 C 417.03 633.71 406.56 636.41 395.87 637.83 C 393.23 637.52 390.24 635.50 390.58 632.54 C 391.47 628.17 395.20 624.73 399.51 623.81 C 409.34 621.47 419.48 620.92 429.50 619.84 Z" />
<path fill="rgba(0,0,0,0)" opacity="1.00" d=" M 647.21 633.56 C 648.40 631.77 649.42 629.39 651.76 628.89 C 658.30 628.61 664.84 628.61 671.39 628.71 C 670.66 630.78 669.51 632.65 668.19 634.40 C 661.19 633.98 654.24 632.73 647.21 633.56 Z" />
<path fill="rgba(0,0,0,0)" opacity="1.00" d=" M 701.99 629.24 C 705.93 629.88 710.06 628.53 713.88 629.98 C 712.73 631.83 711.36 634.57 708.75 634.16 C 705.73 633.49 702.69 633.76 699.75 634.61 C 700.19 632.70 700.98 630.91 701.99 629.24 Z" />
<path fill="rgba(0,0,0,0)" opacity="1.00" d=" M 577.38 638.31 C 582.76 637.06 588.67 638.13 594.25 637.88 C 580.10 666.72 565.86 695.53 551.36 724.20 C 546.00 734.65 541.28 745.41 535.71 755.75 C 532.82 761.23 530.89 767.17 527.53 772.41 C 521.82 784.40 516.06 796.31 510.27 808.26 C 505.11 808.82 499.91 808.79 494.72 808.94 C 506.72 784.74 517.95 760.16 529.90 735.94 C 545.65 703.36 560.75 670.46 577.38 638.31 Z" />
<path fill="rgba(0,0,0,0)" opacity="1.00" d=" M 693.42 756.46 C 700.58 756.28 707.81 756.94 714.91 757.96 C 717.36 765.21 720.54 772.36 721.25 780.06 C 721.47 786.64 721.74 793.24 721.09 799.81 C 713.32 798.47 705.40 798.94 697.60 798.02 C 697.58 798.69 697.54 800.04 697.52 800.72 C 692.89 804.19 687.54 806.41 682.04 808.05 C 674.03 808.71 665.80 809.01 657.96 806.92 C 656.34 806.61 655.25 805.22 653.95 804.37 C 650.20 810.52 646.60 817.48 639.68 820.61 C 636.13 821.96 631.41 823.69 628.19 820.79 C 627.33 820.33 627.17 818.74 628.16 818.33 C 634.47 813.77 638.79 807.05 642.28 800.21 C 642.99 798.53 644.11 795.73 641.98 794.66 C 640.33 793.82 639.73 796.04 639.12 797.08 C 636.49 803.06 632.67 808.50 628.00 813.06 C 625.91 814.94 622.36 816.20 620.26 813.67 C 618.32 810.78 619.11 807.05 619.64 803.85 C 622.04 795.47 626.18 787.54 631.99 781.01 C 635.07 777.38 638.65 773.76 643.42 772.57 C 646.74 771.42 650.43 771.97 653.67 770.58 C 655.72 768.84 653.08 766.31 651.06 766.61 C 644.64 766.97 638.16 768.93 633.22 773.18 C 630.79 775.50 627.16 774.83 624.10 775.25 C 618.19 775.29 611.09 776.38 606.59 771.55 C 604.43 769.66 606.92 767.70 608.49 766.61 C 615.11 761.81 623.70 761.59 631.53 760.66 C 645.99 759.89 660.46 758.08 674.97 758.93 C 679.98 759.22 685.01 758.55 690.03 759.01 C 692.37 760.39 692.99 763.44 694.26 765.71 C 697.96 773.02 698.89 781.71 696.48 789.58 C 695.76 793.26 693.77 796.64 693.60 800.42 C 695.47 802.07 696.39 799.30 697.20 798.17 C 699.41 794.49 699.75 790.14 700.76 786.06 C 703.09 775.64 698.80 765.21 693.42 756.46 Z" />
<path fill="rgba(0,0,0,0)" opacity="1.00" d=" M 289.90 796.47 C 288.67 790.42 287.33 784.20 287.52 778.03 C 304.67 778.34 321.82 778.11 338.98 778.17 C 356.65 777.51 374.32 778.35 392.01 778.18 C 429.75 778.45 467.50 777.96 505.24 778.50 C 500.17 788.72 495.72 799.29 490.17 809.24 C 477.69 810.74 465.08 812.26 453.08 816.10 C 452.12 816.18 450.91 816.97 450.11 816.05 C 446.74 813.43 443.78 810.25 440.01 808.17 C 430.61 803.11 420.40 799.69 409.99 797.44 C 404.64 796.31 399.28 795.01 393.79 794.98 C 393.44 792.31 393.33 789.61 393.35 786.92 C 391.73 787.00 390.12 787.08 388.51 787.17 C 388.55 787.80 388.62 789.07 388.65 789.70 C 388.13 788.92 387.63 788.14 387.11 787.39 C 368.12 789.98 349.00 791.59 329.89 792.99 C 316.61 794.66 303.16 794.61 289.90 796.47 Z" />
<path fill="rgba(0,0,0,0)" opacity="1.00" d=" M 909.88 778.33 C 926.49 777.93 943.11 778.34 959.72 778.16 C 959.80 811.05 959.77 843.95 959.78 876.85 C 954.28 876.96 948.69 877.76 943.25 876.95 C 932.51 877.76 921.72 877.16 910.97 877.36 C 907.13 875.99 903.04 876.86 899.07 876.69 C 885.68 876.85 872.30 876.90 858.91 877.16 C 857.87 857.41 855.39 837.75 855.14 817.98 C 861.26 817.33 867.54 817.40 873.48 815.63 C 873.71 815.27 874.17 814.54 874.41 814.18 C 874.61 814.58 875.03 815.37 875.24 815.77 C 879.91 814.57 884.56 813.14 888.96 811.11 C 895.64 807.42 901.27 801.91 905.41 795.51 C 906.76 794.62 905.58 793.33 905.54 792.22 C 909.44 788.87 909.56 783.11 909.88 778.33 Z" />
<path fill="rgba(0,0,0,0)" opacity="1.00" d=" M 961.59 778.36 C 965.97 778.40 970.35 778.31 974.74 778.56 C 974.78 815.62 974.89 852.70 974.59 889.76 C 970.43 890.66 965.90 889.97 961.60 890.31 C 961.57 852.99 961.51 815.67 961.59 778.36 Z" />
<path fill="rgba(0,0,0,0)" opacity="1.00" d=" M 392.48 812.29 C 392.80 808.07 392.94 803.84 393.64 799.67 C 405.58 801.63 418.93 805.89 425.38 817.03 C 421.06 817.83 416.68 818.26 412.29 818.13 C 412.15 816.72 412.01 815.32 411.89 813.93 C 405.62 812.02 398.94 812.62 392.48 812.29 Z" />
<path fill="rgba(0,0,0,0)" opacity="1.00" d=" M 420.60 804.69 C 424.94 805.38 428.94 807.29 432.93 809.07 C 437.74 811.27 442.53 813.89 445.98 818.01 C 444.37 818.69 442.79 819.44 441.10 819.89 C 440.16 819.36 439.34 818.73 438.50 818.11 C 436.14 814.17 431.71 817.45 428.29 816.25 C 427.13 811.55 423.02 808.64 420.60 804.69 Z" />
<path fill="rgba(0,0,0,0)" opacity="1.00" d=" M 884.18 810.06 C 885.55 810.60 885.55 811.24 884.17 811.96 C 882.78 811.40 882.78 810.77 884.18 810.06 Z" />
<path fill="rgba(0,0,0,0)" opacity="1.00" d=" M 440.10 824.34 C 462.77 814.85 487.60 811.68 512.03 811.68 C 520.08 811.82 528.29 810.24 536.21 812.23 C 534.42 814.60 531.62 815.88 528.88 816.81 C 519.90 820.06 510.32 820.92 500.92 822.24 C 498.41 822.76 495.63 822.08 493.34 823.43 C 492.39 824.62 493.53 826.53 495.06 826.39 C 498.99 826.83 502.93 826.11 506.83 825.67 C 521.19 823.65 535.46 820.97 549.88 819.42 C 552.83 819.22 555.82 818.14 558.78 818.86 C 550.52 827.91 538.18 831.72 526.44 833.69 C 519.06 835.21 511.08 835.00 504.29 838.61 C 519.31 840.25 534.07 836.03 548.94 834.61 C 555.26 834.11 561.54 831.94 567.92 833.24 C 564.63 836.49 560.36 838.51 556.07 840.07 C 541.49 845.26 526.22 848.15 511.07 851.17 C 507.16 852.07 502.56 851.44 499.36 854.28 C 498.43 856.05 500.62 856.72 502.01 856.58 C 516.44 855.45 530.70 851.48 545.26 852.46 C 542.75 855.74 538.55 857.00 535.19 859.20 C 525.08 863.99 514.09 867.09 502.90 867.77 C 491.30 867.72 479.78 865.96 468.21 865.43 C 459.19 864.87 450.26 863.48 441.26 862.82 C 440.69 850.00 440.38 837.17 440.10 824.34 Z" />
<path fill="rgba(0,0,0,0)" opacity="1.00" d=" M 412.53 822.19 C 420.31 822.02 427.95 820.12 435.72 820.16 C 436.81 835.75 437.10 851.39 437.44 867.02 C 435.23 867.13 433.02 867.41 430.93 868.15 C 425.27 870.05 419.46 871.46 413.74 873.13 C 413.27 861.76 413.74 850.36 413.02 839.00 C 412.81 833.39 412.42 827.79 412.53 822.19 Z" />
<path fill="rgba(0,0,0,0)" opacity="1.00" d=" M 413.37 879.60 C 456.92 878.97 500.48 879.31 544.03 879.08 C 559.23 879.30 574.43 878.86 589.62 879.32 C 588.97 883.11 588.41 886.93 587.80 890.73 C 582.22 891.53 576.57 891.03 570.96 891.11 C 518.38 890.98 465.81 890.75 413.23 891.06 C 413.34 887.23 413.37 883.42 413.37 879.60 Z" />
<path fill="rgba(0,0,0,0)" opacity="1.00" d=" M 858.89 879.65 C 873.58 879.08 888.31 879.66 903.01 879.28 C 915.74 880.29 928.53 879.57 941.30 879.78 C 941.29 883.50 941.26 887.22 941.20 890.95 C 924.83 891.42 908.45 891.00 892.08 891.15 C 881.27 890.97 870.45 891.43 859.67 890.89 C 859.49 887.13 859.16 883.39 858.89 879.65 Z" />
<path fill="rgba(0,0,0,0)" opacity="1.00" d=" M 943.78 880.12 C 949.05 880.30 954.33 879.94 959.61 880.18 C 959.76 883.52 959.81 886.88 959.80 890.24 C 954.42 890.40 949.03 890.32 943.65 890.42 C 943.41 886.98 943.50 883.54 943.78 880.12 Z" />
<path fill="rgba(0,0,0,0)" opacity="1.00" d=" M 859.72 892.77 C 898.03 892.97 936.34 892.57 974.64 892.59 C 974.53 936.39 974.54 980.20 974.40 1024.00 L 871.83 1024.00 C 867.24 980.31 862.24 936.64 859.72 892.77 Z" />
</g>
<g id="Group-000000" fill="#333F70">
<path fill="#333F70" opacity="1.00" d=" M 709.90 142.35 C 731.07 139.46 752.98 137.92 773.88 143.41 C 791.07 148.07 807.40 157.52 818.09 172.03 C 823.58 179.69 832.63 183.25 838.96 190.01 C 849.47 200.53 856.02 214.29 861.15 228.07 C 868.58 249.98 872.40 272.95 874.55 295.93 C 875.58 307.23 875.52 318.62 877.20 329.85 C 878.02 334.72 879.88 339.84 884.02 342.85 C 889.95 347.32 897.64 347.90 904.45 350.37 C 913.26 353.27 921.59 358.57 926.69 366.48 C 931.92 373.42 933.89 381.97 936.26 390.16 C 939.16 403.45 941.20 417.56 937.68 430.92 C 934.76 442.13 924.40 449.52 913.81 452.75 C 901.50 456.54 888.62 453.50 876.08 453.21 C 867.70 453.17 859.32 453.34 850.95 453.31 C 831.69 453.92 812.39 453.10 793.15 454.22 C 795.24 457.86 797.99 461.06 801.20 463.76 C 806.60 468.81 813.77 471.11 820.34 474.17 C 820.40 474.65 820.52 475.61 820.58 476.09 L 820.69 474.09 C 825.67 476.21 831.16 477.18 835.69 480.28 C 838.80 482.59 842.97 482.56 846.02 485.01 C 847.95 486.60 851.14 487.46 851.48 490.33 C 852.54 489.74 853.53 489.79 854.45 490.46 C 859.73 493.80 863.76 498.65 868.42 502.73 C 872.95 508.07 878.09 513.04 881.13 519.46 C 889.50 531.70 895.26 545.60 898.39 560.08 C 900.56 567.20 900.52 574.69 901.94 581.96 C 902.66 586.20 901.69 590.56 902.84 594.76 L 901.50 593.89 C 902.43 595.00 902.91 596.36 903.29 597.76 C 902.40 603.85 904.13 609.98 904.25 616.09 C 904.46 632.08 905.99 648.01 906.49 663.99 C 907.14 677.34 908.14 690.68 908.75 704.03 C 908.76 713.99 910.43 723.93 909.90 733.87 C 910.26 736.59 910.79 739.29 910.74 742.06 C 910.73 748.66 912.18 755.32 911.01 761.90 C 909.72 766.56 910.70 771.42 910.11 776.17 C 930.42 776.18 950.73 776.10 971.04 776.15 C 973.09 776.11 975.84 776.32 976.16 778.91 C 976.87 788.58 976.25 798.31 976.44 808.01 C 976.38 880.01 976.33 952.00 976.33 1024.00 L 974.40 1024.00 C 974.54 980.20 974.53 936.39 974.64 892.59 C 936.34 892.57 898.03 892.97 859.72 892.77 C 862.24 936.64 867.24 980.31 871.83 1024.00 L 566.12 1024.00 C 566.64 1021.99 567.04 1019.95 567.43 1017.92 C 574.94 976.32 582.01 934.65 587.52 892.73 C 545.02 892.73 502.52 892.59 460.02 892.56 C 443.11 892.70 426.18 892.12 409.28 892.78 C 410.27 878.09 409.48 863.36 409.70 848.66 C 409.77 848.39 409.90 847.87 409.96 847.61 C 408.44 837.27 409.60 826.66 407.87 816.33 C 399.57 815.39 391.24 816.22 382.92 816.40 C 372.69 816.59 362.49 817.58 352.26 817.88 C 352.30 817.09 352.38 815.52 352.41 814.73 C 357.25 814.35 362.10 814.12 366.95 814.25 C 374.41 812.91 382.05 813.88 389.51 812.55 C 389.93 805.31 390.29 798.06 390.94 790.83 C 379.76 791.49 368.64 792.82 357.48 793.69 C 335.09 795.78 312.64 797.26 290.23 799.13 C 290.99 803.59 289.88 808.55 292.48 812.56 C 293.36 813.87 293.93 815.61 295.33 816.46 C 304.87 817.20 314.45 816.73 323.98 816.18 C 333.16 815.58 342.36 815.53 351.52 814.59 C 351.63 815.40 351.87 817.02 351.99 817.83 C 334.01 818.92 316.02 820.55 298.00 820.14 C 292.96 820.09 288.21 822.44 284.15 825.25 C 280.13 828.05 278.73 832.96 276.03 836.81 C 272.32 837.38 274.00 833.04 274.87 831.13 C 277.64 823.67 284.93 819.39 292.10 816.97 C 290.78 815.40 289.89 812.87 287.58 812.66 C 278.59 812.42 269.11 815.11 262.84 821.86 C 257.99 826.73 255.46 833.24 252.59 839.36 C 253.34 830.32 257.52 821.44 264.72 815.77 C 271.21 810.54 279.85 809.19 287.96 809.61 C 287.64 806.34 287.20 803.09 286.60 799.87 C 284.08 783.67 282.84 767.32 280.78 751.06 C 281.28 751.26 282.28 751.66 282.77 751.86 C 281.99 751.04 280.79 750.46 280.57 749.27 C 276.20 718.79 268.06 688.33 252.44 661.56 C 244.70 648.36 235.26 636.26 225.62 624.41 C 224.11 622.77 222.47 620.64 220.02 620.64 C 189.73 620.67 159.44 620.01 129.17 619.04 C 123.40 631.01 115.54 641.81 109.72 653.74 C 106.08 662.58 103.59 671.83 100.94 681.00 C 94.42 701.69 94.09 723.60 92.90 745.08 C 92.25 772.04 91.84 799.01 91.22 825.97 C 89.84 868.49 89.41 911.05 89.92 953.59 C 89.26 953.61 87.93 953.65 87.27 953.67 C 87.03 945.43 86.84 937.20 86.85 928.97 C 86.99 908.81 86.51 888.65 87.26 868.51 C 87.20 851.34 88.36 834.19 88.36 817.02 C 89.32 795.38 89.21 773.71 89.66 752.05 C 90.17 730.80 90.61 709.33 95.36 688.50 C 98.04 678.19 101.16 667.98 104.62 657.90 C 109.56 644.02 118.98 632.44 125.40 619.31 C 126.17 618.22 127.45 617.79 128.57 617.21 C 127.98 616.68 127.38 616.18 126.78 615.68 C 127.97 606.95 126.77 597.75 129.63 589.33 C 132.16 589.63 134.70 589.87 137.24 590.05 C 138.25 575.12 138.03 560.13 137.64 545.17 C 133.25 543.78 129.32 541.19 126.59 537.45 C 115.42 523.02 101.61 510.92 90.47 496.47 C 68.20 469.42 55.43 434.91 54.14 399.96 C 54.11 389.51 55.37 379.06 58.06 368.96 C 62.27 352.54 74.22 338.73 89.17 331.01 C 91.95 329.78 92.71 326.57 94.28 324.24 C 104.21 308.57 120.56 297.92 138.04 292.39 C 154.46 287.19 171.64 284.79 188.80 283.76 C 215.20 282.45 242.21 283.90 267.43 292.39 C 285.60 298.87 303.43 309.39 313.76 326.19 C 319.75 335.83 323.07 348.21 319.25 359.24 C 316.69 363.68 313.02 368.18 307.96 369.76 C 304.41 369.24 305.09 364.33 303.57 361.72 C 303.37 366.45 304.10 371.19 303.71 375.91 L 302.23 376.82 C 302.66 376.71 303.54 376.47 303.97 376.36 C 304.60 389.17 306.62 401.90 309.76 414.32 C 311.27 420.94 314.40 427.08 318.36 432.56 C 322.86 438.96 329.04 443.88 334.46 449.44 C 335.88 450.90 337.43 453.78 335.31 455.31 C 330.34 458.76 323.96 459.52 319.09 463.14 C 318.07 464.93 318.79 467.17 318.53 469.15 C 317.71 477.13 316.75 485.12 315.06 492.98 C 311.28 509.61 303.90 526.46 290.04 537.10 C 277.30 547.33 260.75 551.00 244.81 552.35 C 240.31 552.63 235.71 552.25 231.29 553.34 C 225.65 555.68 221.68 561.27 220.58 567.19 C 220.03 575.33 219.56 583.48 219.40 591.65 C 222.94 591.81 226.51 591.56 230.05 591.94 C 232.78 592.47 232.35 595.88 232.22 597.97 C 231.43 603.47 231.69 609.05 231.05 614.56 C 230.93 616.58 228.15 619.00 231.21 620.30 C 229.55 623.72 227.54 620.72 226.21 619.24 C 227.51 611.51 228.42 603.62 228.16 595.78 C 224.61 594.56 220.71 595.02 217.00 594.88 C 203.99 594.83 190.98 594.67 177.98 594.02 C 162.63 593.45 147.27 593.69 131.92 593.28 C 130.77 600.74 130.72 608.30 130.03 615.80 C 138.00 616.59 146.02 616.17 154.01 616.53 C 166.01 616.59 178.00 617.40 190.00 617.19 C 202.08 617.60 214.20 616.87 226.26 617.75 C 225.76 618.30 224.75 619.41 224.25 619.96 C 226.40 621.67 228.56 623.41 230.34 625.53 C 238.79 635.26 246.53 645.62 253.34 656.56 C 263.52 672.47 270.33 690.24 275.76 708.26 C 280.20 723.20 282.97 738.59 284.50 754.09 C 285.85 761.52 285.35 769.23 287.51 776.50 C 301.65 775.99 315.81 776.35 329.96 776.21 C 355.98 776.27 381.99 776.02 408.01 776.17 C 440.77 776.22 473.51 775.87 506.26 776.09 C 509.42 769.62 512.66 763.18 515.76 756.68 C 504.65 744.73 492.42 733.86 480.01 723.29 C 473.52 717.34 465.85 712.37 461.32 704.61 C 458.72 700.60 457.64 695.89 456.96 691.23 L 458.58 692.10 C 458.14 691.46 457.26 690.19 456.82 689.55 C 458.03 689.61 459.24 689.68 460.46 689.75 C 459.19 699.83 466.58 708.25 473.89 714.14 C 482.72 721.64 491.85 728.79 500.41 736.61 C 502.20 738.54 505.80 740.06 504.43 743.24 C 504.67 742.69 505.15 741.57 505.39 741.02 C 506.05 741.65 507.36 742.92 508.02 743.55 C 507.83 744.04 507.65 744.55 507.48 745.08 C 511.82 746.20 514.60 750.20 517.93 752.97 C 519.49 749.24 521.20 745.58 523.03 741.98 C 533.15 721.41 542.55 700.50 552.54 679.85 C 547.65 669.53 538.88 661.96 530.83 654.16 C 526.57 649.96 521.12 647.39 515.98 644.49 C 516.83 643.46 517.69 642.43 518.55 641.41 C 521.05 642.57 523.55 643.73 525.96 645.09 C 526.33 646.41 526.74 647.76 527.64 648.86 L 527.35 645.89 C 533.88 650.70 540.14 656.04 545.00 662.59 C 547.14 654.45 550.75 646.81 554.06 639.11 C 559.39 624.56 564.65 609.94 570.87 595.74 C 575.71 581.92 581.10 568.26 586.68 554.70 C 591.20 543.46 597.42 533.01 603.77 522.72 C 606.89 518.30 609.97 513.77 614.19 510.31 C 621.86 501.06 632.14 494.56 642.06 487.99 C 652.39 481.66 663.65 476.88 675.02 472.84 C 676.29 471.84 677.73 471.15 679.38 470.98 C 688.25 465.91 699.22 463.17 705.39 454.43 C 693.58 454.28 681.76 454.64 669.96 454.00 C 648.29 452.86 626.49 454.28 604.92 451.68 C 600.31 450.38 595.50 450.80 590.81 450.19 C 586.74 449.68 585.47 445.35 583.32 442.54 C 582.33 440.87 579.54 441.42 578.85 443.02 C 579.31 445.53 580.11 447.97 580.55 450.50 C 572.54 450.48 565.09 446.99 557.59 444.57 C 549.98 442.13 541.89 437.80 539.39 429.62 C 535.98 418.53 540.52 407.06 544.66 396.81 C 545.99 391.85 548.88 387.57 551.16 383.03 C 559.73 369.40 570.11 356.96 581.38 345.49 C 588.62 337.01 596.07 328.14 599.13 317.18 C 600.08 312.52 600.00 307.74 600.25 303.01 C 601.04 291.37 601.61 279.68 603.83 268.21 C 587.12 266.44 571.47 255.44 565.17 239.72 C 560.08 228.80 559.64 216.19 562.37 204.59 C 564.80 192.47 570.43 180.97 578.74 171.80 C 586.33 163.81 596.45 157.74 607.58 156.72 C 615.05 155.35 622.50 157.66 629.99 157.51 C 657.40 157.55 683.26 147.28 709.90 142.35 M 751.89 234.02 C 749.25 240.12 750.31 247.09 752.76 253.06 C 755.56 258.71 761.00 262.29 765.43 266.54 C 766.98 267.75 766.01 270.88 763.94 270.62 C 747.03 271.45 729.43 271.19 713.60 264.48 C 703.24 260.25 694.41 251.65 691.13 240.82 C 689.75 237.20 689.84 232.93 687.00 229.99 C 685.91 230.80 684.05 231.18 684.21 232.90 C 684.84 239.20 686.44 245.40 688.59 251.35 C 691.39 256.44 694.37 261.44 697.77 266.16 C 696.03 268.68 692.76 268.30 690.10 268.70 C 677.09 269.78 664.03 269.39 650.99 269.42 C 646.22 269.03 640.50 270.09 636.76 266.36 C 632.83 262.48 629.12 258.21 626.85 253.13 C 625.76 251.05 624.99 248.62 623.09 247.13 C 621.62 246.21 620.53 247.98 619.52 248.71 C 621.37 254.86 624.43 260.68 625.33 267.09 C 625.23 269.31 622.73 269.50 621.04 269.59 C 616.50 269.62 611.99 269.13 607.48 268.70 C 605.09 279.28 604.61 290.21 604.82 301.03 C 605.26 320.22 604.55 340.12 611.67 358.31 C 616.83 371.59 625.16 383.79 636.45 392.58 C 649.90 403.33 666.73 409.76 683.92 410.73 C 692.29 411.20 700.91 411.98 709.10 409.74 C 731.86 405.55 755.29 398.74 773.00 383.13 C 781.12 376.05 788.45 366.28 787.96 354.98 C 796.26 356.00 804.84 357.49 812.97 354.62 C 812.90 352.56 812.42 350.53 811.27 348.81 C 809.69 345.90 806.01 345.04 804.40 342.17 C 804.43 339.75 807.07 338.90 808.94 340.06 C 814.53 342.02 816.78 348.02 818.14 353.27 C 822.13 351.55 825.63 348.88 829.73 347.39 C 832.56 343.97 836.28 341.28 838.35 337.26 C 842.64 330.61 842.47 322.43 844.22 315.00 C 843.30 313.47 843.41 311.65 842.98 309.98 C 840.86 301.96 836.53 294.23 829.37 289.71 C 826.48 287.28 822.66 287.04 819.11 286.43 C 814.37 285.46 809.54 286.72 805.02 288.10 C 802.48 288.98 799.41 291.66 797.08 288.92 C 792.57 283.80 789.16 277.59 787.00 271.12 C 780.51 256.40 780.05 239.85 774.01 225.00 C 771.96 222.20 770.30 216.71 765.94 217.92 C 758.89 220.45 754.57 227.38 751.89 234.02 M 268.51 355.60 C 267.39 358.82 269.22 362.21 269.35 365.51 C 270.77 383.28 266.80 401.54 257.85 416.99 C 251.53 428.03 243.49 438.81 231.93 444.71 C 229.82 444.58 229.34 442.10 228.43 440.62 C 226.62 436.19 223.00 432.95 219.62 429.73 C 207.96 422.38 189.96 426.30 183.76 439.04 C 175.21 454.95 179.84 476.83 194.81 487.24 C 201.62 491.45 210.11 493.22 217.93 491.10 C 222.21 490.44 225.72 487.58 229.96 486.85 C 230.75 490.69 226.65 492.48 223.76 493.68 C 215.58 497.22 206.14 496.85 197.88 493.75 C 200.37 500.16 198.52 507.08 195.93 513.13 C 190.69 523.50 183.50 533.33 173.34 539.33 C 163.47 544.88 151.88 547.81 140.58 546.06 C 141.45 560.48 141.47 574.97 140.32 589.38 C 143.35 590.53 146.63 590.24 149.81 590.27 C 156.24 589.94 162.67 590.48 169.10 590.44 C 172.16 590.72 175.33 590.19 178.28 591.27 C 179.51 591.05 180.75 590.76 182.01 590.80 C 193.37 591.22 204.73 591.57 216.10 591.54 C 216.24 583.68 217.26 575.83 217.14 567.99 C 210.23 562.68 205.11 554.80 204.00 546.08 C 218.32 549.94 233.35 550.93 248.06 548.94 C 263.30 547.45 278.90 542.86 290.56 532.55 C 302.89 521.61 309.23 505.62 312.34 489.78 C 314.44 480.67 315.13 471.34 315.46 462.03 C 315.34 460.09 317.47 459.57 318.86 458.93 C 323.53 457.15 328.04 455.01 332.53 452.82 C 327.59 446.85 321.35 442.08 316.60 435.94 C 310.84 428.77 307.22 420.08 305.21 411.16 C 304.20 405.15 302.15 399.32 301.98 393.18 C 298.32 396.43 292.64 394.29 289.05 397.82 C 284.53 400.23 282.46 405.60 278.06 407.88 C 273.72 406.53 276.84 401.83 279.07 399.99 C 284.36 393.32 292.98 388.33 301.69 390.85 C 301.43 384.70 301.14 378.56 300.32 372.46 C 292.33 376.98 284.99 382.56 277.37 387.65 C 277.15 387.63 276.72 387.58 276.51 387.56 C 276.55 377.57 276.40 367.15 272.36 357.80 C 271.81 356.32 270.29 353.76 268.51 355.60 M 764.79 406.84 C 750.01 419.56 732.99 430.42 713.74 434.71 C 713.06 440.85 713.60 447.15 711.80 453.13 C 715.18 454.92 719.02 455.65 722.76 456.37 C 730.82 457.69 739.06 458.37 747.20 457.39 C 754.47 457.86 761.28 454.66 768.48 454.15 C 769.41 456.51 768.90 458.76 765.96 458.61 C 761.09 459.50 756.31 461.47 751.28 460.75 C 747.78 461.90 744.06 461.42 740.45 461.69 C 732.84 462.05 725.23 461.13 717.87 459.24 C 714.32 458.21 710.67 457.09 707.84 454.61 C 706.49 457.24 705.34 460.13 703.01 462.07 C 696.29 467.81 688.20 471.76 679.92 474.70 C 690.87 487.18 707.12 495.50 723.90 495.24 C 736.20 495.58 748.57 494.35 760.51 491.32 C 767.03 490.32 773.05 487.42 779.52 486.20 C 779.85 487.36 780.20 488.52 780.56 489.68 C 772.23 492.46 763.79 494.96 755.10 496.30 C 741.80 498.12 728.26 499.38 714.88 497.68 C 700.09 495.60 686.98 486.93 677.08 476.06 C 673.65 477.86 669.86 478.79 666.39 480.49 C 662.67 482.11 659.08 484.20 655.02 484.88 C 652.42 487.94 648.26 488.74 645.03 490.91 C 637.03 496.13 628.84 501.18 621.90 507.80 C 614.99 514.12 609.00 521.40 604.12 529.39 L 602.92 528.06 C 602.38 528.98 602.41 530.00 603.44 530.58 C 600.95 536.20 597.09 541.09 594.79 546.81 C 590.16 556.45 586.50 566.49 582.53 576.40 C 581.08 580.51 578.52 584.21 577.83 588.58 C 576.88 588.86 575.94 589.15 575.01 589.45 C 575.67 589.33 577.01 589.10 577.67 588.99 C 575.85 593.29 574.77 598.18 571.69 601.79 C 572.18 604.65 570.44 607.17 569.71 609.84 C 566.08 619.25 562.21 628.58 558.86 638.10 C 556.65 644.99 553.90 651.70 550.51 658.09 C 551.89 662.86 554.61 667.13 556.27 671.81 C 561.71 660.50 567.35 649.28 572.67 637.92 C 573.32 636.58 574.03 635.23 575.12 634.21 C 581.60 635.55 588.20 634.76 594.74 634.55 C 594.61 635.19 594.35 636.45 594.22 637.08 C 594.63 636.32 595.44 634.79 595.85 634.03 C 596.46 634.90 597.05 635.80 597.66 636.71 C 597.62 636.08 597.54 634.81 597.50 634.18 C 599.94 634.01 602.39 633.90 604.86 633.85 C 604.84 632.43 604.83 631.01 604.83 629.61 C 605.79 629.62 607.71 629.64 608.67 629.65 C 608.59 630.99 608.51 632.35 608.42 633.70 C 619.99 634.17 631.57 633.59 643.11 634.12 C 645.24 631.76 645.88 628.39 648.06 626.05 C 649.48 625.15 651.23 625.24 652.82 624.87 C 652.65 625.37 652.32 626.37 652.15 626.87 C 652.47 626.49 653.11 625.73 653.42 625.35 C 659.77 624.75 666.18 625.52 672.54 624.79 C 675.33 618.56 679.71 612.76 685.93 609.66 C 691.13 607.20 698.23 607.26 702.24 611.87 C 705.47 615.71 704.96 621.12 703.61 625.62 C 707.35 625.96 711.24 625.19 714.90 626.15 C 717.68 627.64 716.43 631.07 715.52 633.32 C 721.82 633.83 728.14 632.85 734.41 633.96 C 734.00 634.88 733.60 635.79 733.22 636.72 C 726.20 636.80 719.09 636.21 712.14 636.76 C 706.51 644.52 702.60 653.40 696.81 661.06 C 696.18 660.85 694.92 660.42 694.29 660.20 C 695.09 658.15 696.03 656.17 697.25 654.34 C 700.81 648.82 703.47 642.75 707.42 637.49 C 702.90 636.40 698.26 638.88 693.89 637.13 C 694.05 633.40 697.26 630.93 698.65 627.67 C 700.22 624.27 702.20 619.81 699.68 616.40 C 697.22 613.31 692.68 611.68 688.96 613.33 C 683.79 615.20 679.88 619.45 677.04 624.01 C 675.53 627.51 674.93 631.41 672.65 634.57 C 671.69 635.77 671.01 637.86 669.14 637.69 C 665.39 637.77 661.71 636.79 657.97 636.91 C 654.58 640.11 652.84 644.58 650.26 648.39 C 648.79 650.90 646.46 652.88 645.61 655.74 C 650.71 655.28 655.83 655.71 660.95 655.70 C 670.61 656.14 680.27 655.65 689.93 655.91 C 691.14 655.99 692.35 656.07 693.58 656.17 C 693.82 656.98 694.31 658.61 694.55 659.42 C 688.47 661.06 682.16 659.54 675.97 659.88 C 664.68 660.24 653.38 659.09 642.11 659.77 C 641.17 657.08 642.35 654.11 643.79 651.80 C 647.01 646.95 649.79 641.82 652.61 636.73 C 649.06 636.66 645.52 636.96 641.98 637.16 C 635.03 636.27 628.00 637.00 621.01 636.52 C 613.55 637.24 605.88 635.55 598.55 637.37 C 590.69 654.86 581.35 671.64 573.34 689.06 C 564.18 706.15 556.17 723.82 547.14 740.98 C 544.17 746.99 541.64 753.22 538.16 758.95 C 534.93 764.11 533.49 770.19 529.80 775.08 C 527.21 781.28 523.95 787.18 521.33 793.38 C 518.36 798.01 516.41 803.21 514.36 808.31 C 521.88 808.65 529.42 807.87 536.93 808.42 C 538.78 808.36 541.23 809.80 540.61 811.93 C 539.23 814.26 536.88 815.77 535.06 817.71 C 543.74 816.50 552.44 815.87 561.20 815.82 C 562.14 816.96 563.76 818.46 562.45 819.98 C 558.67 824.71 552.69 826.80 548.20 830.73 C 553.31 829.24 558.68 829.56 563.93 829.18 C 566.70 829.22 570.17 828.75 572.15 831.14 C 573.97 833.27 571.83 835.81 570.11 837.16 C 563.11 841.83 555.18 844.86 547.14 847.19 C 547.80 847.43 549.11 847.91 549.77 848.16 C 550.90 850.80 548.67 853.17 547.72 855.48 C 554.46 855.15 561.21 855.32 567.95 854.81 C 576.52 854.33 585.14 854.81 593.70 853.85 C 593.56 854.79 593.27 856.65 593.13 857.59 C 577.30 858.43 561.42 858.33 545.58 858.81 C 543.12 858.82 540.70 859.39 538.65 860.78 C 527.88 867.15 515.46 870.58 502.96 870.81 C 501.52 871.11 500.51 870.40 500.16 869.03 L 500.72 870.88 C 480.76 869.41 460.77 868.15 440.87 866.04 C 440.88 866.81 440.88 868.33 440.89 869.10 C 431.61 872.18 422.10 874.62 412.83 877.66 C 428.89 878.07 444.97 877.30 461.04 877.57 C 503.94 877.30 546.83 877.39 589.73 877.56 C 591.11 869.87 592.88 862.25 593.76 854.48 C 595.24 853.87 596.80 853.81 598.38 854.12 C 608.22 852.91 618.16 853.19 628.05 852.72 C 639.13 852.67 650.20 851.88 661.28 851.82 C 665.72 842.15 670.80 832.80 675.14 823.08 C 676.02 823.23 676.92 823.38 677.82 823.55 C 677.24 823.28 676.08 822.74 675.50 822.47 C 676.10 821.09 676.69 819.71 677.27 818.34 C 677.68 818.40 678.52 818.54 678.93 818.60 C 678.53 818.50 677.73 818.31 677.33 818.21 C 678.40 816.57 679.47 814.92 680.29 813.15 C 671.94 813.10 663.38 813.26 655.35 810.62 C 652.64 814.64 650.38 819.30 646.08 821.89 C 641.36 824.81 635.82 827.42 630.13 826.24 C 626.40 826.03 623.41 822.99 622.97 819.35 C 618.95 819.33 615.59 816.12 615.24 812.16 C 615.19 799.87 620.86 788.20 628.62 778.92 C 624.12 779.43 619.57 779.60 615.07 779.15 C 611.31 778.90 607.24 778.25 604.49 775.43 C 602.01 773.29 600.67 769.49 602.47 766.51 C 605.39 761.43 611.47 759.74 616.93 759.23 C 625.91 755.63 635.82 756.97 645.23 755.69 C 645.53 755.82 646.13 756.09 646.43 756.23 C 652.33 754.59 658.51 755.62 664.52 754.85 C 664.49 755.32 664.43 756.25 664.40 756.72 C 664.81 756.11 665.22 755.50 665.61 754.89 C 672.87 755.44 680.19 755.04 687.47 755.21 C 689.46 754.96 692.79 755.67 692.73 752.69 C 695.44 752.45 698.61 753.46 701.06 752.29 C 721.43 714.49 738.97 675.24 757.66 636.59 C 749.85 636.56 742.01 637.06 734.23 636.34 C 734.35 635.75 734.60 634.58 734.73 634.00 C 742.72 633.00 750.92 633.73 759.00 633.47 C 760.90 633.17 762.10 634.84 763.37 635.93 C 756.48 645.23 753.00 656.49 747.60 666.64 C 740.32 680.03 734.70 694.22 727.72 707.75 C 723.33 717.77 718.29 727.47 713.72 737.40 C 723.34 732.73 733.76 729.49 744.52 729.21 C 749.43 729.15 754.24 727.71 759.16 728.17 C 762.15 728.38 765.00 726.97 768.00 727.21 C 772.98 727.71 777.86 725.80 782.83 726.57 C 794.44 723.93 806.44 724.42 818.22 723.04 C 817.35 718.04 818.79 713.02 818.21 708.01 C 818.51 685.99 818.44 663.97 818.29 641.95 C 818.48 626.65 817.26 611.11 820.78 596.07 C 821.08 594.87 821.92 592.85 823.52 593.39 C 825.13 593.68 825.57 595.51 825.49 596.92 C 822.61 608.69 821.37 620.89 822.16 632.99 C 821.89 642.98 822.83 653.00 822.01 662.96 C 822.94 681.81 821.21 700.74 822.11 719.62 C 825.53 718.25 829.22 718.03 832.85 717.76 C 832.74 718.36 832.52 719.57 832.40 720.17 C 832.83 719.50 833.70 718.15 834.13 717.48 C 835.15 718.95 836.33 720.60 835.93 722.52 C 832.96 721.78 829.91 721.83 826.90 722.19 C 826.73 722.43 826.39 722.92 826.22 723.16 C 835.72 724.81 841.71 733.18 845.80 741.21 C 847.03 743.68 847.24 746.48 847.24 749.22 C 846.72 748.89 845.68 748.24 845.16 747.91 C 841.21 742.19 838.63 734.83 832.60 730.99 C 833.03 730.47 833.48 729.97 833.95 729.48 C 833.52 729.18 832.67 728.58 832.24 728.28 C 832.27 728.87 832.34 730.05 832.38 730.65 C 827.90 727.65 822.39 726.83 817.12 727.33 C 813.02 727.75 808.80 727.01 804.82 728.24 C 798.07 727.44 791.56 730.46 784.87 729.45 C 784.49 729.67 783.72 730.09 783.33 730.30 C 771.37 731.32 759.43 731.79 747.50 732.90 C 735.53 733.55 723.28 736.23 713.34 743.27 C 709.69 745.25 708.23 749.34 706.13 752.67 C 709.38 753.32 712.69 753.46 715.99 753.18 C 717.64 752.91 718.15 754.81 718.48 756.04 C 720.93 763.95 724.35 771.70 725.06 780.05 C 725.75 786.66 725.17 793.31 725.01 799.94 C 725.09 801.64 724.38 804.29 722.14 803.83 C 716.36 803.41 710.56 803.17 704.78 802.70 C 704.77 804.16 704.76 805.63 704.76 807.11 C 705.68 808.71 706.56 810.33 707.45 811.97 C 710.57 818.65 717.88 822.71 725.07 823.20 C 727.02 823.62 729.29 823.11 730.97 824.42 C 731.16 824.22 731.54 823.80 731.73 823.59 C 734.86 823.70 738.00 824.08 741.13 823.63 C 750.06 822.55 759.09 822.84 768.03 821.83 C 774.40 821.41 780.72 820.47 787.09 820.03 C 789.66 821.01 792.52 818.14 794.73 820.50 L 794.70 819.40 C 795.43 819.97 796.90 821.45 796.94 819.55 C 805.99 817.53 815.30 817.30 824.49 816.40 C 833.75 816.15 842.86 814.26 852.11 813.70 C 860.71 812.63 869.51 812.79 877.92 810.44 C 888.09 808.68 896.64 801.58 902.13 793.08 C 907.81 782.42 906.21 770.03 906.84 758.43 C 905.93 750.30 906.64 742.13 905.98 733.98 C 904.81 696.26 902.32 658.56 900.35 620.88 C 898.63 599.88 898.68 578.49 893.04 558.03 C 892.05 551.51 889.07 545.54 887.07 539.31 C 887.74 539.54 889.10 539.99 889.77 540.21 C 889.10 539.17 888.47 538.13 887.89 537.06 L 887.29 539.37 C 878.67 520.59 866.33 502.63 848.35 491.77 C 836.29 483.96 822.50 479.59 809.33 474.09 C 802.34 480.55 793.45 484.28 784.85 488.04 C 783.48 488.66 781.97 488.89 780.53 489.19 C 780.44 487.60 779.26 484.92 781.89 484.71 C 790.31 481.33 798.41 477.11 805.78 471.79 C 796.83 466.92 790.46 458.24 786.75 448.89 C 781.38 452.82 775.34 455.75 768.96 457.63 C 769.15 456.13 769.36 454.65 769.60 453.17 C 772.45 452.27 775.18 451.04 777.84 449.66 C 774.38 448.76 772.08 445.65 772.10 442.11 C 771.61 435.09 772.00 428.03 771.43 421.01 C 771.37 414.39 772.19 407.75 771.54 401.14 C 769.00 402.68 767.05 404.96 764.79 406.84 M 647.21 633.56 C 654.24 632.73 661.19 633.98 668.19 634.40 C 669.51 632.65 670.66 630.78 671.39 628.71 C 664.84 628.61 658.30 628.61 651.76 628.89 C 649.42 629.39 648.40 631.77 647.21 633.56 M 701.99 629.24 C 700.98 630.91 700.19 632.70 699.75 634.61 C 702.69 633.76 705.73 633.49 708.75 634.16 C 711.36 634.57 712.73 631.83 713.88 629.98 C 710.06 628.53 705.93 629.88 701.99 629.24 M 577.38 638.31 C 560.75 670.46 545.65 703.36 529.90 735.94 C 517.95 760.16 506.72 784.74 494.72 808.94 C 499.91 808.79 505.11 808.82 510.27 808.26 C 516.06 796.31 521.82 784.40 527.53 772.41 C 530.89 767.17 532.82 761.23 535.71 755.75 C 541.28 745.41 546.00 734.65 551.36 724.20 C 565.86 695.53 580.10 666.72 594.25 637.88 C 588.67 638.13 582.76 637.06 577.38 638.31 M 693.42 756.46 C 698.80 765.21 703.09 775.64 700.76 786.06 C 699.75 790.14 699.41 794.49 697.20 798.17 C 696.39 799.30 695.47 802.07 693.60 800.42 C 693.77 796.64 695.76 793.26 696.48 789.58 C 698.89 781.71 697.96 773.02 694.26 765.71 C 692.99 763.44 692.37 760.39 690.03 759.01 C 685.01 758.55 679.98 759.22 674.97 758.93 C 660.46 758.08 645.99 759.89 631.53 760.66 C 623.70 761.59 615.11 761.81 608.49 766.61 C 606.92 767.70 604.43 769.66 606.59 771.55 C 611.09 776.38 618.19 775.29 624.10 775.25 C 627.16 774.83 630.79 775.50 633.22 773.18 C 638.16 768.93 644.64 766.97 651.06 766.61 C 653.08 766.31 655.72 768.84 653.67 770.58 C 650.43 771.97 646.74 771.42 643.42 772.57 C 638.65 773.76 635.07 777.38 631.99 781.01 C 626.18 787.54 622.04 795.47 619.64 803.85 C 619.11 807.05 618.32 810.78 620.26 813.67 C 622.36 816.20 625.91 814.94 628.00 813.06 C 632.67 808.50 636.49 803.06 639.12 797.08 C 639.73 796.04 640.33 793.82 641.98 794.66 C 644.11 795.73 642.99 798.53 642.28 800.21 C 638.79 807.05 634.47 813.77 628.16 818.33 C 627.17 818.74 627.33 820.33 628.19 820.79 C 631.41 823.69 636.13 821.96 639.68 820.61 C 646.60 817.48 650.20 810.52 653.95 804.37 C 655.25 805.22 656.34 806.61 657.96 806.92 C 665.80 809.01 674.03 808.71 682.04 808.05 C 687.54 806.41 692.89 804.19 697.52 800.72 C 697.54 800.04 697.58 798.69 697.60 798.02 C 705.40 798.94 713.32 798.47 721.09 799.81 C 721.74 793.24 721.47 786.64 721.25 780.06 C 720.54 772.36 717.36 765.21 714.91 757.96 C 707.81 756.94 700.58 756.28 693.42 756.46 M 289.90 796.47 C 303.16 794.61 316.61 794.66 329.89 792.99 C 349.00 791.59 368.12 789.98 387.11 787.39 C 387.63 788.14 388.13 788.92 388.65 789.70 C 388.62 789.07 388.55 787.80 388.51 787.17 C 390.12 787.08 391.73 787.00 393.35 786.92 C 393.33 789.61 393.44 792.31 393.79 794.98 C 399.28 795.01 404.64 796.31 409.99 797.44 C 420.40 799.69 430.61 803.11 440.01 808.17 C 443.78 810.25 446.74 813.43 450.11 816.05 C 450.91 816.97 452.12 816.18 453.08 816.10 C 465.08 812.26 477.69 810.74 490.17 809.24 C 495.72 799.29 500.17 788.72 505.24 778.50 C 467.50 777.96 429.75 778.45 392.01 778.18 C 374.32 778.35 356.65 777.51 338.98 778.17 C 321.82 778.11 304.67 778.34 287.52 778.03 C 287.33 784.20 288.67 790.42 289.90 796.47 M 909.88 778.33 C 909.56 783.11 909.44 788.87 905.54 792.22 C 905.58 793.33 906.76 794.62 905.41 795.51 C 901.27 801.91 895.64 807.42 888.96 811.11 C 884.56 813.14 879.91 814.57 875.24 815.77 C 875.03 815.37 874.61 814.58 874.41 814.18 C 874.17 814.54 873.71 815.27 873.48 815.63 C 867.54 817.40 861.26 817.33 855.14 817.98 C 855.39 837.75 857.87 857.41 858.91 877.16 C 872.30 876.90 885.68 876.85 899.07 876.69 C 903.04 876.86 907.13 875.99 910.97 877.36 C 921.72 877.16 932.51 877.76 943.25 876.95 C 948.69 877.76 954.28 876.96 959.78 876.85 C 959.77 843.95 959.80 811.05 959.72 778.16 C 943.11 778.34 926.49 777.93 909.88 778.33 M 961.59 778.36 C 961.51 815.67 961.57 852.99 961.60 890.31 C 965.90 889.97 970.43 890.66 974.59 889.76 C 974.89 852.70 974.78 815.62 974.74 778.56 C 970.35 778.31 965.97 778.40 961.59 778.36 M 392.48 812.29 C 398.94 812.62 405.62 812.02 411.89 813.93 C 412.01 815.32 412.15 816.72 412.29 818.13 C 416.68 818.26 421.06 817.83 425.38 817.03 C 418.93 805.89 405.58 801.63 393.64 799.67 C 392.94 803.84 392.80 808.07 392.48 812.29 M 420.60 804.69 C 423.02 808.64 427.13 811.55 428.29 816.25 C 431.71 817.45 436.14 814.17 438.50 818.11 C 439.34 818.73 440.16 819.36 441.10 819.89 C 442.79 819.44 444.37 818.69 445.98 818.01 C 442.53 813.89 437.74 811.27 432.93 809.07 C 428.94 807.29 424.94 805.38 420.60 804.69 M 884.18 810.06 C 882.78 810.77 882.78 811.40 884.17 811.96 C 885.55 811.24 885.55 810.60 884.18 810.06 M 440.10 824.34 C 440.38 837.17 440.69 850.00 441.26 862.82 C 450.26 863.48 459.19 864.87 468.21 865.43 C 479.78 865.96 491.30 867.72 502.90 867.77 C 514.09 867.09 525.08 863.99 535.19 859.20 C 538.55 857.00 542.75 855.74 545.26 852.46 C 530.70 851.48 516.44 855.45 502.01 856.58 C 500.62 856.72 498.43 856.05 499.36 854.28 C 502.56 851.44 507.16 852.07 511.07 851.17 C 526.22 848.15 541.49 845.26 556.07 840.07 C 560.36 838.51 564.63 836.49 567.92 833.24 C 561.54 831.94 555.26 834.11 548.94 834.61 C 534.07 836.03 519.31 840.25 504.29 838.61 C 511.08 835.00 519.06 835.21 526.44 833.69 C 538.18 831.72 550.52 827.91 558.78 818.86 C 555.82 818.14 552.83 819.22 549.88 819.42 C 535.46 820.97 521.19 823.65 506.83 825.67 C 502.93 826.11 498.99 826.83 495.06 826.39 C 493.53 826.53 492.39 824.62 493.34 823.43 C 495.63 822.08 498.41 822.76 500.92 822.24 C 510.32 820.92 519.90 820.06 528.88 816.81 C 531.62 815.88 534.42 814.60 536.21 812.23 C 528.29 810.24 520.08 811.82 512.03 811.68 C 487.60 811.68 462.77 814.85 440.10 824.34 M 412.53 822.19 C 412.42 827.79 412.81 833.39 413.02 839.00 C 413.74 850.36 413.27 861.76 413.74 873.13 C 419.46 871.46 425.27 870.05 430.93 868.15 C 433.02 867.41 435.23 867.13 437.44 867.02 C 437.10 851.39 436.81 835.75 435.72 820.16 C 427.95 820.12 420.31 822.02 412.53 822.19 M 413.37 879.60 C 413.37 883.42 413.34 887.23 413.23 891.06 C 465.81 890.75 518.38 890.98 570.96 891.11 C 576.57 891.03 582.22 891.53 587.80 890.73 C 588.41 886.93 588.97 883.11 589.62 879.32 C 574.43 878.86 559.23 879.30 544.03 879.08 C 500.48 879.31 456.92 878.97 413.37 879.60 M 858.89 879.65 C 859.16 883.39 859.49 887.13 859.67 890.89 C 870.45 891.43 881.27 890.97 892.08 891.15 C 908.45 891.00 924.83 891.42 941.20 890.95 C 941.26 887.22 941.29 883.50 941.30 879.78 C 928.53 879.57 915.74 880.29 903.01 879.28 C 888.31 879.66 873.58 879.08 858.89 879.65 M 943.78 880.12 C 943.50 883.54 943.41 886.98 943.65 890.42 C 949.03 890.32 954.42 890.40 959.80 890.24 C 959.81 886.88 959.76 883.52 959.61 880.18 C 954.33 879.94 949.05 880.30 943.78 880.12 Z" />
<path fill="#333F70" opacity="1.00" d=" M 720.25 273.35 C 726.99 271.07 734.99 273.06 740.05 278.02 C 741.20 279.10 742.81 281.16 741.05 282.51 C 738.81 282.41 737.08 280.69 735.14 279.77 C 730.05 276.72 723.47 276.61 718.17 279.20 C 716.62 279.98 714.23 280.62 713.20 278.76 C 712.65 274.95 717.58 274.24 720.25 273.35 Z" />
<path fill="#333F70" opacity="1.00" d=" M 617.28 280.31 C 621.63 276.09 628.67 275.13 634.03 277.93 C 635.92 278.86 636.73 281.11 636.36 283.12 C 632.57 281.17 628.23 279.33 623.94 280.80 C 620.88 281.15 619.26 285.81 615.92 284.00 C 615.22 282.57 616.33 281.24 617.28 280.31 Z" />
<path fill="#333F70" opacity="1.00" d=" M 719.47 289.60 C 722.55 288.18 726.18 290.81 726.42 294.04 C 727.00 299.03 727.10 304.10 726.71 309.11 C 726.49 313.05 722.53 315.51 719.05 316.29 C 716.68 316.71 714.81 314.23 715.07 312.06 C 715.71 305.64 714.49 299.02 716.66 292.80 C 717.16 291.45 718.01 290.06 719.47 289.60 Z" />
<path fill="#333F70" opacity="1.00" d=" M 668.21 300.94 C 668.86 297.27 668.63 293.49 669.64 289.89 C 671.59 294.63 671.93 299.84 671.96 304.92 C 671.50 304.91 670.59 304.90 670.13 304.89 C 670.62 305.06 671.60 305.39 672.08 305.56 C 670.72 309.93 670.25 314.65 667.49 318.46 C 665.34 322.53 661.47 325.14 658.48 328.49 C 660.69 329.39 663.82 329.64 664.87 332.18 C 664.99 334.11 662.75 335.32 661.08 334.59 C 658.14 333.64 654.73 332.95 652.64 330.53 C 650.86 327.50 653.85 324.73 656.12 323.13 C 663.46 318.31 667.74 309.59 668.21 300.94 Z" />
<path fill="#333F70" opacity="1.00" d=" M 628.19 292.08 C 631.45 290.43 635.86 293.29 635.79 296.93 C 635.82 301.82 636.00 306.76 635.46 311.62 C 634.33 315.36 629.03 319.47 625.41 316.60 C 623.86 313.69 625.16 310.22 624.90 307.07 C 625.17 302.07 623.89 295.75 628.19 292.08 Z" />
<path fill="#333F70" opacity="1.00" d=" M 810.01 307.98 C 814.39 305.64 818.87 303.11 823.88 302.48 C 824.91 303.09 825.63 303.98 826.03 305.14 C 825.89 306.86 824.08 307.18 822.81 307.74 C 818.28 309.26 813.85 311.16 809.88 313.82 C 803.79 318.12 799.88 324.81 797.28 331.66 C 804.10 327.04 810.89 322.37 817.57 317.56 C 819.34 316.01 821.22 317.65 822.53 318.91 C 818.48 324.53 811.92 327.37 806.45 331.34 C 803.25 333.41 800.44 336.10 797.00 337.79 C 794.16 339.24 791.24 335.64 791.97 332.94 C 794.46 322.73 800.74 313.22 810.01 307.98 Z" />
<path fill="#333F70" opacity="1.00" d=" M 675.20 348.39 C 681.02 346.40 687.52 348.03 693.48 348.79 C 696.78 348.92 700.36 353.26 696.56 355.53 C 691.06 356.09 685.61 353.51 680.01 354.09 C 677.07 354.52 672.57 351.42 675.20 348.39 Z" />
<path fill="#333F70" opacity="1.00" d=" M 296.23 412.28 C 299.90 410.76 300.63 415.38 300.81 417.94 C 301.29 425.63 302.14 433.32 302.30 441.04 C 302.41 443.68 301.84 447.25 298.97 448.22 C 295.72 447.00 295.66 442.95 295.44 440.03 C 295.38 432.69 294.75 425.37 294.48 418.04 C 294.47 416.04 294.54 413.65 296.23 412.28 Z" />
<path fill="#333F70" opacity="1.00" d=" M 193.08 444.88 C 191.86 442.50 194.91 440.88 196.95 441.45 C 204.13 442.65 211.37 445.23 216.78 450.27 C 220.30 453.22 222.36 457.41 224.64 461.31 C 226.67 464.84 227.92 468.88 227.91 472.98 C 227.42 474.86 225.24 477.41 223.12 476.15 C 218.71 474.06 215.01 470.79 210.90 468.21 C 206.65 465.06 201.76 462.73 197.95 459.02 C 196.22 457.76 197.49 455.61 199.02 454.91 C 200.38 454.68 201.53 455.60 202.63 456.24 C 209.39 460.69 215.74 465.75 222.66 469.94 C 220.23 459.70 212.42 450.26 201.90 447.81 C 198.97 446.85 195.42 447.14 193.08 444.88 Z" />
<path fill="#333F70" opacity="1.00" d=" M 273.01 443.75 C 274.33 444.07 275.32 444.97 275.75 446.27 C 277.34 450.06 278.88 454.04 278.78 458.22 C 274.64 454.79 273.74 448.80 273.01 443.75 Z" />
<path fill="#333F70" opacity="1.00" d=" M 287.96 453.77 C 291.75 455.32 292.01 460.46 292.95 463.97 C 292.76 464.52 292.36 465.60 292.16 466.15 C 289.55 462.56 288.17 458.18 287.96 453.77 Z" />
<path fill="#333F70" opacity="1.00" d=" M 303.33 461.02 C 306.51 463.69 306.67 468.19 306.83 472.04 C 305.79 471.51 304.57 471.05 304.34 469.76 C 303.33 466.98 302.45 463.96 303.33 461.02 Z" />
<path fill="#333F70" opacity="1.00" d=" M 431.13 575.24 C 434.69 571.93 438.03 568.29 442.11 565.61 C 446.03 565.79 449.72 567.66 453.51 568.66 C 455.98 569.11 455.84 571.99 455.53 573.90 C 454.68 579.09 453.82 584.45 451.25 589.12 C 458.21 589.77 465.05 593.07 469.28 598.75 C 474.89 606.30 476.58 615.79 480.78 624.06 C 483.24 630.21 486.50 635.97 490.00 641.58 C 498.45 638.42 508.12 638.33 516.75 640.97 C 516.38 642.30 516.04 643.65 515.73 645.02 C 508.90 642.71 501.74 643.12 494.72 644.01 C 499.03 650.17 506.32 653.51 510.05 660.10 C 511.44 660.01 512.80 660.32 514.10 660.85 C 516.22 672.51 513.93 685.70 505.31 694.31 C 501.42 698.58 495.82 700.48 490.48 702.22 C 488.55 702.57 486.24 703.35 484.59 701.88 C 484.79 700.30 486.17 699.69 487.56 699.47 C 487.65 699.27 487.81 698.88 487.90 698.68 C 496.14 696.57 503.96 691.42 507.37 683.37 C 509.69 677.66 511.77 671.03 510.02 664.95 C 505.87 661.49 502.33 657.37 498.16 653.95 C 498.18 655.68 498.25 657.41 498.35 659.15 C 497.51 659.97 496.68 660.80 495.86 661.65 C 496.60 661.11 498.07 660.04 498.81 659.50 C 497.32 671.52 490.58 682.76 480.60 689.62 C 482.90 692.53 485.76 694.95 487.89 698.02 C 487.06 698.73 486.12 699.14 485.06 699.26 C 481.49 698.14 479.51 694.56 476.80 692.20 C 471.67 687.40 467.83 681.21 461.86 677.35 C 461.07 681.22 459.82 685.11 460.23 689.12 C 459.18 688.69 458.06 688.42 456.93 688.63 C 457.35 683.82 458.42 679.08 460.31 674.64 C 458.27 672.97 456.40 671.05 454.09 669.76 C 447.68 670.17 441.13 669.34 435.19 666.84 C 426.80 662.83 419.39 657.13 411.84 651.78 C 401.65 663.63 392.17 676.10 382.18 688.13 C 375.54 696.22 369.14 704.50 362.60 712.66 C 361.53 714.35 360.18 713.61 359.09 712.38 C 367.03 695.74 375.67 679.42 383.96 662.94 C 387.32 655.79 391.54 649.08 394.68 641.83 C 390.14 641.06 386.21 636.71 386.82 631.97 C 387.19 627.31 390.96 623.88 394.87 621.85 C 393.66 620.42 391.82 619.15 391.93 617.06 C 391.45 613.65 394.09 611.23 396.23 609.04 C 395.06 606.35 394.15 603.18 395.47 600.37 C 396.85 597.01 400.05 594.82 403.39 593.68 C 403.27 589.84 403.87 585.55 406.91 582.88 C 413.34 576.76 422.87 576.65 431.13 575.24 M 446.57 574.89 C 446.90 576.76 447.75 578.44 449.10 579.79 C 449.69 578.21 450.23 576.62 450.71 575.01 C 449.34 574.72 447.94 574.72 446.57 574.89 M 409.13 586.13 C 407.09 587.77 407.60 590.59 407.46 592.88 C 411.34 592.64 415.40 591.36 419.10 593.13 C 422.82 591.94 426.31 590.18 429.96 588.80 C 435.05 586.74 440.39 585.12 445.03 582.09 C 441.86 577.51 435.56 578.74 430.84 579.29 C 423.42 580.67 415.06 580.85 409.13 586.13 M 432.23 594.42 C 430.81 596.57 434.01 598.08 434.99 599.79 C 440.59 600.04 446.54 599.50 451.68 602.21 C 453.89 603.32 456.55 605.17 456.18 608.01 C 454.67 611.51 451.09 613.30 448.08 615.30 C 451.86 616.58 454.61 621.55 451.95 625.07 C 448.78 628.47 444.02 629.58 440.16 631.97 L 440.14 632.60 C 444.22 636.65 449.43 641.01 449.94 647.10 C 446.22 645.70 444.60 641.71 441.78 639.18 C 439.66 637.32 438.17 634.20 435.12 633.83 C 434.54 636.10 433.88 638.36 432.85 640.48 C 430.43 639.45 431.77 636.55 431.56 634.61 C 428.45 635.34 425.36 636.12 422.29 636.97 C 419.98 641.21 417.18 645.14 413.90 648.69 C 423.01 655.17 432.11 662.30 443.00 665.49 C 448.50 666.36 454.59 667.21 459.84 664.88 C 466.54 659.79 468.44 651.09 471.37 643.65 C 473.60 644.96 472.63 647.92 472.36 649.99 C 470.47 657.40 466.43 665.53 458.96 668.54 C 465.68 673.81 471.03 680.56 477.40 686.22 C 486.96 679.64 494.32 668.88 494.50 657.00 C 494.31 652.18 490.34 648.93 487.74 645.27 C 481.06 637.17 477.43 627.22 473.51 617.63 C 471.28 612.01 469.71 605.94 465.80 601.17 C 461.36 595.35 453.82 593.47 447.06 591.80 C 442.05 591.85 436.95 592.69 432.23 594.42 M 400.72 599.73 C 398.63 601.53 398.83 604.46 400.05 606.70 C 408.09 605.68 416.06 604.10 423.98 602.37 C 425.58 601.54 428.83 601.57 428.91 599.27 C 425.38 595.36 419.63 596.33 414.94 596.43 C 410.14 596.83 404.62 596.39 400.72 599.73 M 423.06 607.89 C 415.79 609.04 408.25 608.94 401.23 611.37 C 399.04 612.41 396.53 613.72 395.67 616.13 C 396.15 617.90 398.32 618.65 399.93 619.13 C 412.60 617.79 425.17 615.47 437.88 614.39 C 442.45 613.49 447.49 611.57 450.06 607.47 C 441.16 605.31 432.04 607.42 423.06 607.89 M 429.50 619.84 C 419.48 620.92 409.34 621.47 399.51 623.81 C 395.20 624.73 391.47 628.17 390.58 632.54 C 390.24 635.50 393.23 637.52 395.87 637.83 C 406.56 636.41 417.03 633.71 427.54 631.40 C 433.40 629.40 439.65 628.34 444.97 625.00 C 446.63 623.94 449.60 622.77 448.70 620.26 C 442.56 618.05 435.85 619.80 429.50 619.84 Z" />
<path fill="#333F70" opacity="1.00" d=" M 617.69 579.49 C 619.81 576.66 621.72 573.21 625.17 571.85 C 626.13 575.35 623.20 578.67 621.41 581.51 C 611.49 595.46 610.24 613.08 608.76 629.57 C 607.85 629.53 606.04 629.45 605.14 629.41 C 606.79 612.39 607.71 594.08 617.69 579.49 Z" />
<path fill="#333F70" opacity="1.00" d=" M 805.75 601.55 C 806.74 598.50 807.76 595.17 810.41 593.12 C 810.47 595.27 810.00 597.38 809.13 599.34 C 809.26 599.71 809.51 600.46 809.64 600.83 C 808.83 601.79 808.56 602.92 808.82 604.23 C 808.44 604.30 807.68 604.43 807.31 604.49 C 807.65 605.69 808.53 606.86 807.75 608.16 C 806.93 610.77 807.33 613.51 807.61 616.18 C 807.53 618.45 807.26 620.71 806.92 622.96 C 806.59 625.32 807.96 627.96 806.30 630.04 C 802.44 621.08 803.02 610.74 805.75 601.55 Z" />
<path fill="#333F70" opacity="1.00" d=" M 676.45 678.55 C 684.57 678.56 692.69 678.39 700.81 678.63 C 700.79 679.08 700.76 679.98 700.74 680.42 C 692.63 680.41 684.49 680.92 676.39 680.54 L 676.45 678.55 Z" />
<path fill="#333F70" opacity="1.00" d=" M 702.22 679.16 C 706.13 677.90 710.42 679.13 714.40 679.69 C 710.47 680.91 706.16 680.30 702.11 680.20 C 702.13 679.94 702.19 679.42 702.22 679.16 Z" />
<path fill="#333F70" opacity="1.00" d=" M 596.79 680.22 C 600.13 679.42 603.60 679.77 607.00 679.79 C 621.01 679.75 635.01 679.48 649.02 679.28 C 652.05 678.81 655.19 679.97 658.08 678.52 C 658.01 679.48 657.95 680.45 657.88 681.43 C 641.22 681.23 624.54 682.42 607.89 681.46 C 604.16 681.31 600.32 681.67 596.79 680.22 Z" />
<path fill="#333F70" opacity="1.00" d=" M 659.05 681.36 C 659.05 680.40 659.08 679.45 659.11 678.52 C 664.28 678.52 669.48 679.09 674.62 678.29 C 674.66 678.92 674.75 680.19 674.79 680.83 C 669.53 680.66 664.29 681.18 659.05 681.36 Z" />
<path fill="#333F70" opacity="1.00" d=" M 639.01 696.80 C 651.00 696.05 663.02 696.43 675.03 696.20 C 681.82 696.41 688.73 696.43 695.30 698.45 C 682.60 699.40 669.79 698.29 657.06 699.01 C 645.05 699.28 633.04 699.83 621.02 699.85 C 615.61 699.79 610.19 700.51 604.80 699.93 C 600.49 700.26 596.17 699.64 591.87 699.37 C 596.82 698.31 601.93 698.43 606.97 698.27 C 617.62 697.30 628.33 697.37 639.01 696.80 Z" />
<path fill="#333F70" opacity="1.00" d=" M 585.62 715.23 C 591.36 714.14 597.21 715.26 603.00 715.08 C 629.30 715.73 655.63 715.57 681.97 715.67 C 681.93 716.53 681.90 717.40 681.87 718.29 C 672.14 717.84 662.30 718.94 652.65 717.78 C 649.83 718.51 646.91 718.28 644.04 718.25 C 630.04 718.11 616.04 717.85 602.05 717.04 C 596.59 716.23 590.94 716.88 585.62 715.23 Z" />
<path fill="#333F70" opacity="1.00" d=" M 179.92 716.97 C 179.89 715.35 182.25 714.17 182.66 716.23 C 182.93 720.62 180.83 724.73 180.62 729.09 C 178.04 743.97 182.37 758.76 186.06 773.05 C 192.92 797.73 200.15 822.29 206.88 847.00 C 210.52 859.81 213.57 873.05 220.52 884.58 C 226.23 893.45 236.38 899.66 247.05 899.77 C 260.43 899.64 273.68 897.80 287.02 896.92 C 298.11 895.73 309.28 895.61 320.37 894.48 C 319.92 895.56 319.48 896.65 319.13 897.79 C 315.99 897.76 312.81 898.76 309.72 897.85 C 303.39 899.74 296.57 899.11 290.04 899.92 C 289.23 917.45 289.56 935.04 288.64 952.58 C 287.90 952.63 286.42 952.74 285.68 952.79 C 285.45 945.16 286.50 937.56 286.16 929.93 C 286.40 920.01 286.32 910.08 286.81 900.17 C 273.58 901.04 260.36 902.50 247.09 902.30 C 236.62 902.35 226.32 897.27 219.82 889.10 C 211.87 878.52 208.88 865.33 205.21 852.87 C 199.86 832.44 194.22 812.09 188.38 791.79 C 184.73 778.62 180.81 765.50 178.15 752.09 C 175.91 740.46 176.70 728.33 179.92 716.97 Z" />
<path fill="#333F70" opacity="1.00" d=" M 683.06 718.34 C 683.05 717.45 683.05 716.56 683.05 715.69 C 688.77 716.70 694.76 716.00 700.38 717.42 C 694.60 717.66 688.83 718.05 683.06 718.34 Z" />
<path fill="#333F70" opacity="1.00" d=" M 836.20 718.80 C 840.72 719.90 845.99 721.09 848.53 725.44 C 852.13 726.43 854.28 729.80 856.75 732.34 C 860.12 736.39 863.73 741.34 863.13 746.87 L 861.94 747.30 C 856.95 740.63 853.22 732.82 846.56 727.54 C 843.49 725.26 839.91 723.77 836.24 722.80 C 836.23 721.80 836.21 719.80 836.20 718.80 Z" />
<path fill="#333F70" opacity="1.00" d=" M 158.22 739.26 C 158.77 732.84 158.61 725.93 161.50 720.07 C 161.06 724.25 162.47 729.13 160.58 732.92 C 161.45 734.51 160.95 736.24 160.87 737.96 C 161.41 742.31 161.77 746.71 162.92 750.97 C 163.82 754.81 165.54 758.44 166.00 762.40 C 164.91 762.06 164.11 761.42 163.58 760.47 C 159.86 754.12 158.79 746.70 158.08 739.50 C 158.57 739.47 159.54 739.41 160.03 739.37 L 158.22 739.26 Z" />
<path fill="#333F70" opacity="1.00" d=" M 362.83 892.60 C 378.26 892.23 393.72 892.36 409.15 892.75 C 408.76 893.17 407.99 894.02 407.60 894.44 C 392.68 895.49 377.67 895.03 362.71 895.73 C 362.75 894.67 362.79 893.63 362.83 892.60 Z" />
<path fill="#333F70" opacity="1.00" d=" M 330.76 894.17 C 341.19 893.16 351.69 893.14 362.14 892.38 C 362.19 893.50 362.25 894.62 362.32 895.75 C 351.81 895.89 341.26 896.29 330.80 897.40 C 330.79 896.31 330.77 895.23 330.76 894.17 Z" />
<path fill="#333F70" opacity="1.00" d=" M 320.85 894.55 C 324.00 894.51 327.15 894.16 330.30 893.95 C 330.24 895.09 330.20 896.24 330.16 897.41 C 326.92 897.15 323.68 897.51 320.48 897.94 C 320.61 896.80 320.73 895.67 320.85 894.55 Z" />
<path fill="#333F70" opacity="1.00" d=" M 285.50 953.49 C 286.31 953.28 287.92 952.85 288.72 952.64 C 288.89 962.11 288.38 971.57 288.34 981.05 C 287.83 987.75 288.60 994.48 287.81 1001.17 C 286.63 1001.21 285.48 1001.04 284.37 1000.67 C 284.05 996.48 284.43 992.25 285.04 988.11 C 284.92 976.58 285.29 965.03 285.50 953.49 Z" />
<path fill="#333F70" opacity="1.00" d=" M 86.98 953.65 C 88.07 953.87 89.16 954.11 90.25 954.36 C 90.08 959.03 90.28 963.71 90.22 968.39 C 89.46 968.38 87.95 968.37 87.19 968.36 C 87.13 963.45 86.91 958.55 86.98 953.65 Z" />
<path fill="#333F70" opacity="1.00" d=" M 87.46 968.94 C 88.15 968.80 89.52 968.53 90.20 968.39 C 90.29 978.97 90.43 989.57 90.21 1000.13 C 87.04 999.99 87.33 996.26 87.36 994.02 C 87.90 985.66 86.68 977.28 87.46 968.94 Z" />
<path fill="#333F70" opacity="1.00" d=" M 96.06 999.26 C 136.03 999.03 175.99 999.53 215.96 999.14 C 237.87 999.48 259.82 998.58 281.71 999.65 C 282.32 1007.76 281.96 1015.88 282.33 1024.00 L 90.68 1024.00 C 90.28 1016.03 90.60 1008.03 90.97 1000.07 C 92.49 999.10 94.35 999.37 96.06 999.26 Z" />
</g>
</g></svg>