<svg xmlns="http://www.w3.org/2000/svg" viewBox="0 0 1024 1024" version="1.1">
<g id="Parent-Group"><g id="Group-rgba(0,0,0,0)" fill="rgba(0,0,0,0)">
<path fill="rgba(0,0,0,0)" opacity="1.00" d=" M 0.00 0.00 L 1024.00 0.00 L 1024.00 884.48 C 989.96 884.35 955.91 884.24 921.87 884.18 C 921.89 883.42 921.93 881.89 921.94 881.12 C 929.66 874.44 937.18 867.15 941.92 857.98 C 944.45 852.77 947.92 846.53 945.30 840.75 C 943.27 836.95 938.66 839.04 936.26 841.25 C 928.50 848.37 923.73 858.11 920.28 867.91 C 916.82 860.32 912.36 853.25 907.67 846.39 C 905.17 843.00 902.32 838.73 897.55 838.96 C 897.83 814.02 897.95 789.07 897.39 764.14 C 902.31 764.30 907.24 764.59 912.17 764.39 C 912.50 750.92 912.72 737.45 912.83 723.98 C 912.79 719.12 913.58 714.25 912.78 709.42 C 890.08 709.24 867.39 708.23 844.69 708.64 C 850.12 706.18 856.62 703.74 859.07 697.83 C 857.29 695.24 853.85 695.38 851.09 695.69 C 844.82 696.58 838.33 699.18 834.49 704.45 C 833.37 705.91 832.16 707.31 830.59 708.29 C 828.81 703.47 827.85 698.42 826.19 693.57 C 839.29 687.42 850.99 678.39 860.26 667.26 C 868.45 657.33 875.04 645.66 877.43 632.90 C 877.89 629.69 878.49 624.99 875.00 623.25 C 870.83 622.62 866.71 624.28 862.94 625.86 C 849.23 632.69 839.45 645.44 832.99 659.03 C 829.22 667.48 826.15 676.33 824.77 685.50 C 821.32 677.57 819.39 669.06 815.95 661.10 C 826.21 648.53 834.76 634.41 840.13 619.06 C 845.64 602.80 848.06 585.15 845.30 568.12 C 844.45 565.07 844.24 560.71 840.88 559.35 C 837.61 559.37 834.98 561.75 832.50 563.59 C 820.35 573.62 813.64 588.77 810.34 603.86 C 808.04 614.74 807.29 625.92 807.67 637.02 C 803.22 626.88 798.99 616.50 792.46 607.49 C 791.74 606.19 790.14 606.22 788.92 605.83 C 790.01 610.03 792.63 613.56 794.62 617.36 C 801.16 629.65 805.29 642.99 810.01 656.04 C 797.89 642.42 778.55 638.27 761.03 638.80 C 755.26 639.34 748.51 639.75 744.23 644.16 C 743.18 648.19 746.44 651.45 748.93 654.15 C 757.59 662.69 769.08 667.97 780.86 670.62 C 792.00 672.90 803.75 673.24 814.77 670.11 C 818.45 682.87 822.47 695.54 825.43 708.49 C 821.68 707.79 818.81 705.25 815.60 703.43 C 807.30 698.59 797.25 698.20 787.93 699.13 C 785.66 699.51 781.80 699.99 782.03 703.07 C 782.21 705.29 784.37 706.62 785.67 708.24 C 772.04 708.17 758.42 707.58 744.79 707.86 C 744.46 723.91 745.51 739.94 745.23 755.99 C 745.26 758.45 744.95 761.00 745.66 763.41 C 749.67 764.12 753.78 763.64 757.84 763.74 C 757.67 771.13 757.89 778.52 757.82 785.92 C 736.24 785.38 714.66 785.53 693.08 785.43 C 692.45 799.59 693.31 813.79 693.10 827.97 C 693.07 846.69 693.48 865.41 693.89 884.13 C 682.82 884.08 671.75 884.32 660.70 883.92 C 668.27 879.28 676.86 876.32 683.89 870.84 C 673.15 872.50 663.65 878.33 654.02 883.05 C 652.67 883.68 651.17 883.88 649.75 884.22 C 649.72 882.81 649.79 881.41 649.95 880.03 C 655.91 873.95 663.94 869.93 668.89 862.86 C 661.51 865.83 655.57 871.38 649.03 875.78 C 648.04 862.16 647.81 848.50 646.50 834.91 C 646.41 833.64 645.84 832.48 645.27 831.38 C 644.52 836.23 645.25 841.12 645.20 846.00 C 645.29 854.63 645.11 863.29 645.76 871.90 C 640.40 864.81 636.01 856.44 628.39 851.50 C 629.94 855.38 633.44 857.91 635.62 861.39 C 638.38 865.57 640.94 869.88 643.74 874.04 C 645.15 876.04 645.73 878.45 646.31 880.80 C 638.10 878.13 630.49 873.88 622.82 869.97 C 618.34 867.83 614.54 864.34 609.75 862.90 C 615.94 868.73 623.43 872.94 630.66 877.32 C 634.95 880.00 639.71 881.76 644.33 883.77 C 629.04 883.95 613.75 884.24 598.46 883.99 C 596.41 880.83 593.01 879.01 589.79 877.30 C 588.29 876.21 586.28 877.04 586.45 879.00 C 588.35 880.92 590.65 882.35 592.83 883.94 C 547.55 883.81 502.27 883.91 456.99 883.84 C 448.25 884.09 439.47 883.43 430.79 884.58 C 430.43 884.64 430.50 884.14 430.37 883.96 C 444.59 882.54 458.75 880.44 472.87 878.26 C 490.79 875.15 509.17 872.71 525.82 864.98 C 540.40 858.19 554.40 849.98 566.93 839.86 C 591.57 819.84 605.33 786.26 599.33 754.77 C 595.23 733.30 581.53 714.59 564.24 701.66 C 563.82 699.33 565.35 697.14 566.02 694.97 C 569.11 694.51 573.67 695.21 574.85 691.43 C 579.44 690.46 583.64 688.35 588.07 686.89 C 590.74 687.21 593.13 688.69 595.77 689.26 C 600.50 690.34 605.59 690.07 610.12 688.23 C 612.84 687.04 615.86 687.20 618.73 686.67 C 623.67 685.37 628.04 682.16 630.76 677.83 C 635.07 676.67 639.47 674.95 642.50 671.54 C 646.21 667.21 648.43 661.76 649.32 656.17 C 656.73 651.95 661.01 643.75 661.63 635.40 C 667.26 631.12 670.30 624.02 670.62 617.07 C 670.89 607.81 664.07 598.73 654.79 597.20 C 649.30 596.48 643.75 596.21 638.34 594.99 C 641.70 592.29 642.86 587.93 643.62 583.88 C 643.98 581.17 640.65 580.84 638.94 579.71 C 644.00 572.21 651.27 566.19 660.03 563.59 C 661.77 564.59 664.95 566.80 666.09 563.88 C 667.36 561.61 664.95 560.10 663.24 559.25 C 658.69 562.42 653.01 563.24 648.42 566.32 C 642.86 569.45 639.14 574.76 635.21 579.61 C 632.67 578.79 630.17 577.92 627.69 576.98 C 628.49 566.92 628.38 556.60 624.97 546.98 C 625.24 545.12 625.80 542.49 623.61 541.56 C 622.12 540.44 620.30 541.69 619.55 543.06 C 618.90 545.55 621.59 546.69 623.13 548.02 C 625.91 557.09 625.88 566.66 625.29 576.03 C 623.72 576.22 621.93 575.71 620.53 576.54 C 618.51 580.16 618.01 584.36 617.61 588.42 C 613.44 588.12 615.61 583.72 615.29 581.05 C 614.92 576.56 610.14 573.96 606.03 574.04 C 600.19 574.13 595.09 577.41 590.16 580.18 C 579.01 586.86 568.53 594.68 559.01 603.53 C 557.75 602.67 556.56 601.71 555.15 601.11 C 551.82 600.49 549.98 603.96 547.09 604.77 C 526.57 610.29 505.82 614.93 484.97 619.02 C 473.87 592.45 462.60 565.94 451.72 539.28 C 451.16 537.93 451.26 536.45 451.20 535.04 C 449.10 531.96 448.17 528.33 447.20 524.80 C 462.84 528.51 479.49 526.36 494.10 519.88 C 511.53 512.16 526.71 499.97 539.50 485.95 C 542.74 489.98 546.99 493.31 552.04 494.72 C 563.50 498.31 576.18 494.67 585.60 487.68 C 598.24 478.23 606.71 462.97 606.95 447.09 C 607.03 437.80 603.37 427.89 595.23 422.78 C 590.50 420.03 584.78 417.86 579.29 419.20 C 577.11 418.80 574.91 418.69 572.73 419.04 C 576.24 398.56 577.80 377.35 573.62 356.84 C 572.04 348.29 569.17 340.05 566.08 331.95 C 576.67 332.50 588.07 329.45 595.31 321.32 C 600.36 315.64 601.25 306.97 597.73 300.28 C 593.36 291.87 585.49 285.72 577.13 281.58 C 579.91 265.95 576.65 248.45 565.30 236.79 C 555.08 225.88 540.26 221.12 525.92 218.62 C 509.08 216.03 491.42 215.72 475.13 221.34 C 454.92 228.05 438.01 242.71 426.48 260.41 C 427.78 249.31 425.29 237.52 418.46 228.54 C 415.96 225.59 413.02 222.29 408.96 221.82 C 406.03 222.17 405.55 225.66 405.52 228.03 C 405.89 235.54 408.72 242.61 411.48 249.52 C 400.90 241.62 386.69 238.66 373.92 242.21 C 365.06 244.53 356.45 250.02 352.53 258.57 C 348.85 266.69 349.83 276.10 352.82 284.27 C 354.83 290.14 358.07 296.22 356.46 302.59 C 354.44 310.51 347.43 315.47 342.73 321.73 C 333.46 332.86 330.08 347.75 330.43 361.98 C 330.81 374.60 333.48 387.17 338.10 398.91 C 338.66 400.92 340.76 400.80 342.32 400.14 C 341.43 403.92 341.81 407.78 342.27 411.59 C 329.86 415.28 317.63 419.63 305.60 424.43 C 282.87 433.58 261.69 446.97 244.67 464.68 C 219.18 491.65 196.43 521.17 176.48 552.44 C 156.29 583.99 139.75 617.73 125.10 652.16 C 115.40 675.40 106.55 699.02 98.98 723.05 C 91.82 745.31 85.58 767.91 81.21 790.90 C 78.31 806.73 75.82 822.84 76.78 838.98 C 77.33 844.15 83.09 844.86 87.10 845.90 C 90.38 855.61 97.75 863.33 106.36 868.63 C 120.73 878.23 137.99 882.41 155.06 883.55 C 141.36 884.03 127.65 883.58 113.95 883.68 C 75.97 883.80 37.98 883.41 0.00 883.65 L 0.00 0.00 M 750.34 520.21 C 745.23 531.49 741.41 543.30 737.74 555.10 C 737.28 555.18 736.37 555.32 735.91 555.39 C 736.08 556.10 736.42 557.51 736.59 558.22 C 736.22 557.16 733.94 554.27 736.71 554.66 C 735.77 550.47 736.20 546.03 734.60 541.98 C 734.27 540.67 733.11 540.03 731.90 539.77 C 731.88 543.97 734.40 547.81 733.72 552.06 C 733.45 554.83 733.16 558.70 736.42 559.80 C 736.55 560.40 736.80 561.60 736.93 562.20 C 734.48 561.73 732.43 560.25 730.07 559.56 C 728.47 559.02 726.67 558.75 725.55 557.38 C 722.64 554.91 723.26 550.57 720.96 547.74 C 718.22 553.80 723.48 561.50 729.99 561.90 C 731.72 562.03 732.60 563.69 733.54 564.92 C 731.48 564.85 729.46 565.03 727.49 565.57 C 727.25 565.91 726.77 566.61 726.52 566.95 C 730.00 567.39 733.20 568.97 735.79 571.31 C 736.78 572.09 736.22 573.73 735.00 573.84 C 732.90 574.74 730.29 574.93 728.86 576.92 C 728.04 578.17 726.48 578.46 725.22 579.04 L 725.11 578.37 C 727.12 578.10 728.33 576.42 728.65 574.53 C 730.51 573.80 732.38 573.05 734.23 572.25 C 725.61 572.51 717.00 571.08 708.88 568.22 C 706.85 567.31 704.53 566.49 703.28 564.53 C 702.98 562.76 705.01 563.48 706.05 563.44 C 710.61 563.90 715.24 564.14 719.61 565.68 C 721.46 564.08 717.35 563.61 716.24 563.39 C 718.98 562.79 721.40 564.13 724.00 564.59 C 723.06 564.93 721.57 564.68 721.11 565.73 C 723.22 566.48 725.41 566.04 727.51 565.44 C 727.75 565.05 728.25 564.28 728.49 563.90 C 714.01 559.87 698.85 559.77 683.93 560.30 C 682.27 560.36 680.66 560.77 679.08 561.20 C 680.20 565.69 683.34 569.24 685.89 572.98 C 690.73 579.40 696.32 587.00 704.92 587.98 C 712.06 587.66 718.48 583.63 724.42 579.97 C 722.31 582.36 719.95 584.59 718.51 587.47 C 714.85 595.42 709.65 602.53 704.38 609.46 C 702.23 612.31 699.49 614.81 698.14 618.16 C 698.61 618.53 699.56 619.27 700.04 619.64 C 703.49 617.02 705.18 612.64 707.91 609.30 C 711.45 615.78 716.91 621.47 723.91 624.11 C 728.65 625.90 734.49 624.87 737.89 621.00 C 741.15 616.75 741.72 611.24 742.37 606.10 C 743.12 597.40 743.13 588.62 742.02 579.95 C 751.31 587.35 762.15 593.15 773.96 595.09 C 780.03 596.16 784.72 590.51 785.48 584.99 C 786.39 577.76 784.21 570.50 781.45 563.89 C 784.98 563.42 788.57 563.05 791.96 561.90 C 793.47 561.64 794.10 560.18 794.43 558.86 C 789.54 558.17 784.82 560.10 779.97 560.25 C 772.21 560.59 764.45 560.83 756.70 560.98 C 760.83 555.02 766.05 549.45 767.79 542.18 C 769.41 534.69 766.89 527.04 763.62 520.36 C 761.74 516.81 760.02 513.01 757.01 510.26 C 753.07 511.66 752.32 516.88 750.34 520.21 M 984.85 819.88 C 990.55 820.81 996.34 819.57 1001.80 817.94 C 999.55 815.16 995.23 816.57 992.12 816.73 C 989.70 817.39 985.84 816.96 984.85 819.88 M 925.08 827.26 C 922.14 829.55 925.82 834.14 928.83 832.30 C 933.08 830.64 927.80 825.67 925.08 827.26 M 911.46 839.48 C 910.51 841.39 912.69 843.43 914.59 842.49 C 916.68 840.50 913.37 837.31 911.46 839.48 M 539.98 875.19 C 538.70 877.35 541.63 878.89 542.97 880.14 C 544.83 881.44 548.21 883.47 549.74 880.74 C 548.74 878.93 546.72 878.17 545.09 877.09 C 543.48 876.27 541.95 874.65 539.98 875.19 Z" />
<path fill="rgba(0,0,0,0)" opacity="1.00" d=" M 453.77 302.76 C 461.15 294.48 473.08 289.86 484.00 292.92 C 498.26 296.52 509.22 307.01 521.01 315.17 C 532.86 324.10 546.94 330.19 561.75 331.78 C 566.73 343.65 570.61 356.09 571.96 368.95 C 572.47 375.97 572.78 383.01 572.59 390.06 C 566.80 391.45 566.84 383.28 562.15 382.08 C 559.17 381.95 556.99 385.34 558.01 388.07 C 559.34 392.55 562.96 396.17 567.11 398.18 C 568.53 399.14 570.23 398.77 571.83 398.63 C 571.09 405.84 569.91 412.99 568.95 420.16 C 561.26 423.15 554.28 427.83 548.73 433.95 C 546.37 431.64 542.97 431.78 539.93 431.88 C 539.47 433.08 538.86 434.62 540.34 435.40 C 542.73 435.85 545.18 435.72 547.61 435.69 C 545.87 438.20 544.33 440.90 542.19 443.11 C 538.86 442.30 535.49 441.11 532.01 441.68 C 535.91 430.83 535.61 417.88 528.76 408.26 C 522.31 398.63 509.69 394.36 498.53 396.62 C 485.98 398.93 474.97 407.06 468.05 417.64 C 454.01 408.53 439.19 400.69 424.01 393.65 C 433.74 377.07 435.72 357.51 439.08 338.94 C 441.46 326.11 444.99 312.80 453.77 302.76 M 497.54 367.67 C 490.82 371.28 483.83 375.76 475.89 375.41 C 472.65 375.30 471.53 380.24 474.39 381.74 C 478.56 384.21 483.63 382.04 487.89 380.83 C 492.66 378.80 497.92 377.21 501.82 373.68 C 504.56 370.96 501.06 365.73 497.54 367.67 Z" />
<path fill="rgba(0,0,0,0)" opacity="1.00" d=" M 348.60 392.18 C 352.92 384.78 361.59 380.70 370.03 381.22 C 380.82 381.89 390.68 388.50 396.69 397.29 C 400.69 402.63 402.24 409.20 405.17 415.08 C 412.02 409.97 417.58 403.50 422.65 396.70 C 437.54 403.91 452.11 411.74 466.34 420.19 C 460.78 430.00 458.00 441.71 460.46 452.88 C 462.32 460.39 466.69 467.53 473.39 471.63 C 482.14 477.27 493.67 477.48 503.04 473.27 C 513.93 469.08 522.80 460.60 528.30 450.40 C 529.34 448.82 529.99 446.82 531.55 445.67 C 534.37 444.86 537.37 445.39 540.19 445.99 C 538.28 451.55 535.65 456.96 535.04 462.88 C 534.37 469.35 534.32 476.24 537.30 482.20 C 526.69 494.13 514.25 504.50 500.34 512.38 C 486.38 520.15 470.03 524.39 454.05 522.04 C 435.87 519.69 418.25 510.44 407.26 495.55 C 404.42 492.20 402.53 488.18 399.86 484.73 C 398.72 483.01 395.72 485.37 397.11 487.02 C 401.00 494.91 406.80 501.70 413.02 507.88 C 415.85 510.03 412.34 513.02 410.70 514.73 C 406.15 518.54 399.98 515.06 396.22 511.75 C 384.80 501.64 377.44 487.96 370.51 474.59 C 364.08 461.89 358.42 448.75 353.99 435.21 C 357.99 437.74 362.31 440.01 367.11 440.44 C 374.09 441.34 381.36 438.74 386.52 434.03 C 387.64 433.22 386.49 430.30 385.18 431.41 C 380.08 434.69 374.19 437.57 367.95 436.94 C 361.11 435.79 354.33 432.22 350.78 426.07 C 345.32 417.20 343.66 405.55 347.67 395.82 C 351.47 399.97 355.22 404.18 359.34 408.03 C 360.41 407.82 361.48 407.59 362.55 407.33 C 359.22 401.19 353.03 397.44 348.60 392.18 M 358.20 396.65 C 358.75 397.21 359.84 398.32 360.38 398.87 C 363.91 396.99 367.82 394.77 371.97 395.79 C 376.76 397.06 380.57 400.89 382.64 405.30 C 384.07 408.28 384.26 411.65 385.40 414.73 C 386.75 415.75 389.14 414.96 388.72 413.05 C 388.12 403.95 382.18 394.62 373.09 392.09 C 367.71 390.48 362.11 393.01 358.20 396.65 M 367.13 411.26 C 363.81 416.21 363.55 422.56 361.35 428.05 C 363.19 430.85 366.60 432.10 369.50 433.55 C 371.09 434.67 373.59 433.12 372.93 431.17 C 370.89 429.47 367.82 429.22 366.20 427.01 C 367.04 422.90 368.33 418.90 369.24 414.80 C 373.32 414.49 377.43 414.78 381.49 414.28 C 383.21 414.21 383.24 412.35 383.26 411.07 C 377.89 411.02 372.45 410.35 367.13 411.26 M 435.36 435.51 C 432.97 437.28 433.11 441.73 436.15 442.74 C 439.39 444.14 442.67 440.02 441.05 437.08 C 440.19 434.94 437.17 433.94 435.36 435.51 M 531.05 450.70 C 529.00 458.89 528.57 467.37 528.05 475.76 C 521.54 476.71 515.28 478.85 508.87 480.30 C 509.06 481.66 509.03 483.34 510.85 483.42 C 517.69 482.21 524.37 480.15 531.19 478.84 C 532.59 475.06 531.97 470.94 532.23 467.00 C 532.30 461.60 533.44 456.30 534.14 450.96 C 533.37 450.90 531.82 450.77 531.05 450.70 M 444.86 457.95 C 447.58 472.64 454.98 486.91 466.94 496.16 C 468.51 497.26 470.05 498.61 472.00 498.99 C 473.22 498.66 473.56 497.27 474.25 496.37 C 463.03 489.68 455.51 478.19 451.29 466.05 C 449.84 462.25 449.73 457.97 447.69 454.41 C 445.53 453.16 444.03 456.14 444.86 457.95 Z" />
<path fill="rgba(0,0,0,0)" opacity="1.00" d=" M 496.57 400.71 C 504.74 398.63 514.02 399.91 520.75 405.20 C 527.02 410.18 530.36 418.12 530.96 425.97 C 531.32 445.65 518.02 465.10 499.09 471.04 C 490.73 473.73 480.87 472.76 473.87 467.19 C 465.83 460.84 462.22 449.98 463.42 439.97 C 464.17 430.31 468.94 421.40 475.15 414.13 C 480.82 407.76 488.19 402.67 496.57 400.71 M 484.05 431.71 C 492.20 434.04 500.66 435.07 508.93 436.89 C 510.44 437.01 513.09 438.11 513.70 436.00 C 514.53 434.28 512.08 433.93 511.01 433.60 C 503.03 431.85 494.96 430.54 486.96 428.90 C 484.92 428.27 483.84 429.90 484.05 431.71 Z" />
<path fill="rgba(0,0,0,0)" opacity="1.00" d=" M 314.84 424.78 C 323.90 421.54 332.97 418.29 342.22 415.60 C 345.58 436.66 354.10 456.34 361.95 476.01 C 377.09 513.42 392.49 550.72 408.03 587.97 C 411.14 593.41 407.22 599.34 407.26 605.09 C 404.80 603.12 403.02 600.48 401.05 598.06 C 393.35 588.70 385.67 579.30 378.74 569.35 C 373.70 561.42 368.08 553.88 362.43 546.38 C 366.38 543.29 370.37 540.25 374.46 537.34 C 376.80 535.50 379.43 533.72 380.80 530.99 C 381.65 528.39 378.88 526.70 376.94 525.72 C 367.98 521.55 358.65 518.21 349.50 514.50 C 346.41 513.58 346.34 509.92 345.37 507.40 C 338.51 486.73 331.74 466.01 324.32 445.52 C 321.62 438.42 319.15 431.10 314.84 424.78 Z" />
<path fill="rgba(0,0,0,0)" opacity="1.00" d=" M 572.39 423.19 C 580.20 421.25 589.16 422.26 595.46 427.58 C 601.34 432.92 604.08 441.12 603.72 448.94 C 603.57 452.80 602.50 456.52 601.57 460.24 C 590.91 451.93 580.02 443.77 568.13 437.29 C 569.39 432.54 571.19 427.95 572.39 423.19 Z" />
<path fill="rgba(0,0,0,0)" opacity="1.00" d=" M 543.97 446.84 C 549.70 437.27 557.79 429.02 568.03 424.34 C 563.34 443.03 553.94 460.21 542.82 475.81 C 541.80 476.71 541.30 478.71 539.78 478.73 C 536.71 468.83 538.79 458.17 543.11 448.97 C 546.53 449.64 550.37 451.15 553.72 449.64 C 553.96 448.29 552.59 447.96 551.64 447.54 C 549.21 446.58 546.53 446.82 543.97 446.84 Z" />
<path fill="rgba(0,0,0,0)" opacity="1.00" d=" M 261.99 453.89 C 276.81 441.98 293.70 432.76 311.49 426.11 C 316.04 434.29 319.04 443.19 322.29 451.93 C 330.18 473.28 336.88 495.06 344.16 516.61 C 355.00 521.10 366.27 524.70 376.63 530.26 C 371.25 534.92 365.17 538.71 359.84 543.46 C 352.59 534.83 345.18 526.13 336.26 519.17 C 334.88 520.27 333.92 522.14 335.78 523.37 C 349.24 536.32 361.46 550.59 371.87 566.11 C 382.03 581.92 394.29 596.24 406.46 610.52 C 411.96 616.28 416.61 622.96 423.01 627.80 C 417.46 638.01 412.91 648.83 409.80 660.04 C 409.25 662.96 407.63 666.13 408.87 669.03 C 411.15 671.02 412.28 667.89 412.56 666.09 C 415.36 653.52 420.16 641.51 425.90 630.01 C 426.41 627.98 428.81 628.82 430.28 628.50 C 428.01 636.90 425.83 645.37 424.65 654.01 C 424.27 656.26 425.78 657.47 427.91 657.45 C 429.72 647.96 431.62 638.50 434.26 629.21 C 458.15 628.61 481.64 623.66 504.94 618.72 C 519.69 615.19 534.54 612.02 549.10 607.74 C 554.80 617.09 558.72 627.43 561.87 637.90 C 563.83 644.72 565.78 652.23 562.91 659.11 C 562.33 661.88 559.85 663.45 557.45 664.54 C 521.05 682.73 484.00 700.05 445.11 712.29 C 429.91 716.96 413.92 721.52 397.91 718.64 C 381.06 715.71 366.14 706.52 352.40 696.77 C 323.19 675.42 297.14 649.89 274.08 622.05 C 267.48 614.16 261.58 605.71 256.06 597.03 C 255.30 595.12 252.50 596.03 252.48 597.91 C 252.82 598.98 253.27 600.01 253.86 600.99 C 264.20 617.56 277.04 632.37 290.39 646.56 C 309.26 666.52 329.47 685.40 352.02 701.17 C 352.95 701.85 353.73 702.71 354.53 703.56 C 332.25 709.85 310.04 716.41 288.04 723.63 C 269.63 729.54 253.57 740.52 236.77 749.77 C 200.70 770.04 164.55 790.15 128.49 810.44 C 116.58 817.21 103.97 823.32 94.17 833.12 C 91.60 835.53 90.01 838.71 88.37 841.78 C 85.46 841.00 80.34 841.24 80.15 837.15 C 79.83 811.52 85.60 786.30 91.60 761.52 C 101.25 724.41 113.98 688.15 128.78 652.80 C 144.34 615.90 162.58 580.03 184.91 546.75 C 197.66 527.51 211.38 508.90 226.25 491.24 C 237.51 478.20 248.48 464.71 261.99 453.89 M 263.07 472.82 C 248.38 476.85 237.39 489.53 232.57 503.63 C 231.82 506.58 229.69 509.79 231.06 512.83 C 231.68 512.84 232.93 512.86 233.55 512.87 C 235.73 506.03 238.01 499.08 242.20 493.17 C 248.26 484.16 257.89 477.05 268.92 476.00 C 276.84 475.11 284.39 478.71 290.32 483.69 C 291.90 485.83 295.05 482.68 292.99 481.06 C 285.63 473.03 273.53 469.53 263.07 472.82 M 236.20 592.78 C 242.36 607.47 252.23 620.40 263.44 631.61 C 264.61 633.42 267.47 632.04 267.14 630.04 C 266.24 628.58 265.01 627.39 263.86 626.16 C 255.28 617.46 248.21 607.35 242.48 596.59 C 241.42 594.73 240.50 592.72 238.91 591.25 C 238.24 591.63 236.88 592.40 236.20 592.78 M 221.04 647.13 C 217.50 648.25 214.66 651.35 213.97 655.02 C 212.06 663.25 211.65 671.72 210.20 680.03 C 209.61 684.48 208.59 689.58 211.30 693.57 C 214.34 697.91 219.82 699.25 224.63 700.61 C 235.24 702.99 246.12 704.55 257.01 704.28 C 261.03 704.17 265.50 703.43 268.32 700.28 C 270.87 697.53 271.44 693.64 271.82 690.06 C 272.61 682.36 274.20 674.76 275.01 667.07 C 275.83 660.59 270.64 655.02 264.89 652.93 C 257.77 650.59 250.14 650.40 242.84 648.78 C 235.65 647.79 228.29 645.28 221.04 647.13 Z" />
<path fill="rgba(0,0,0,0)" opacity="1.00" d=" M 542.12 483.02 C 552.20 469.93 560.84 455.62 566.90 440.23 C 578.66 446.77 589.34 455.07 600.20 462.99 C 594.75 477.21 582.21 489.16 567.02 492.04 C 557.92 493.81 547.52 490.91 542.12 483.02 Z" />
<path fill="rgba(0,0,0,0)" opacity="1.00" d=" M 425.19 516.55 C 430.76 519.04 436.14 522.00 442.03 523.74 C 444.09 526.92 445.11 530.75 446.06 534.41 C 440.65 535.87 435.19 537.44 430.10 539.78 C 427.54 540.93 428.11 544.03 428.79 546.18 C 431.71 555.60 438.56 563.10 442.55 572.03 C 443.37 573.45 442.51 575.09 442.32 576.59 C 438.25 592.92 432.99 609.02 425.67 624.21 C 422.28 623.34 420.48 620.10 418.21 617.74 C 415.69 614.70 412.68 612.11 410.29 608.98 C 414.45 578.06 419.98 547.31 425.19 516.55 Z" />
<path fill="rgba(0,0,0,0)" opacity="1.00" d=" M 755.10 517.59 C 756.84 520.61 758.55 523.66 760.01 526.83 C 757.50 529.30 755.51 532.35 752.45 534.20 C 751.41 532.43 749.13 530.57 750.40 528.33 C 752.02 524.77 753.96 521.35 755.10 517.59 Z" />
<path fill="rgba(0,0,0,0)" opacity="1.00" d=" M 752.69 538.05 C 755.84 535.30 759.17 532.63 761.29 528.91 C 762.57 532.41 763.71 535.98 764.28 539.67 C 760.25 540.74 756.10 542.14 753.24 545.36 C 753.68 545.63 754.55 546.17 754.99 546.44 C 758.17 545.34 761.00 543.36 764.32 542.58 C 762.96 546.78 759.02 549.06 755.96 551.89 C 751.85 555.46 748.48 559.80 744.33 563.32 C 743.92 563.36 743.10 563.44 742.70 563.48 C 742.21 564.74 741.79 566.33 740.06 565.95 C 738.24 564.83 739.14 562.49 739.58 560.85 C 742.79 551.87 745.15 542.60 748.74 533.76 C 749.41 535.78 750.02 537.96 749.24 540.05 C 746.89 547.36 745.25 554.87 742.82 562.15 L 743.97 563.02 C 745.16 560.16 746.37 557.30 747.22 554.31 C 747.66 554.34 748.54 554.40 748.99 554.43 L 747.44 554.18 C 749.81 549.00 750.82 543.38 752.69 538.05 Z" />
<path fill="rgba(0,0,0,0)" opacity="1.00" d=" M 431.94 543.12 C 437.00 541.49 441.96 539.57 447.07 538.14 C 458.29 565.40 469.71 592.60 481.33 619.71 C 464.23 622.60 446.96 625.85 429.54 625.04 C 436.89 608.97 442.78 592.22 446.70 574.98 C 446.99 573.54 447.13 572.00 446.44 570.66 C 442.20 561.17 435.18 553.07 431.94 543.12 Z" />
<path fill="rgba(0,0,0,0)" opacity="1.00" d=" M 742.93 570.99 C 743.43 565.22 749.75 563.09 753.62 559.82 C 752.31 565.12 747.31 568.32 742.93 570.99 Z" />
<path fill="rgba(0,0,0,0)" opacity="1.00" d=" M 684.92 563.51 C 689.93 564.70 695.49 561.97 700.12 564.59 C 697.83 564.92 695.52 565.09 693.25 565.50 C 693.49 568.06 696.25 567.20 697.92 567.37 C 700.61 567.19 703.77 567.39 705.35 569.95 C 701.15 570.36 696.93 570.90 693.00 572.53 C 695.75 573.19 698.54 572.65 701.29 572.29 C 701.36 572.73 701.50 573.60 701.57 574.04 C 701.53 573.44 701.44 572.24 701.39 571.64 C 702.26 571.82 703.99 572.17 704.86 572.34 C 704.58 572.76 704.02 573.60 703.74 574.03 L 705.79 573.13 C 705.31 572.70 704.84 572.26 704.39 571.83 C 708.03 571.78 711.65 572.29 715.29 572.56 C 710.41 574.32 704.48 575.48 701.46 580.11 C 703.33 580.63 704.86 579.31 706.37 578.48 C 709.39 576.50 712.90 575.53 716.04 573.79 C 719.72 573.97 723.40 574.04 727.08 574.32 C 721.09 578.34 714.08 580.50 707.66 583.72 C 704.26 585.56 700.34 583.58 697.89 581.10 C 692.64 575.97 689.44 569.23 684.92 563.51 Z" />
<path fill="rgba(0,0,0,0)" opacity="1.00" d=" M 752.58 567.45 C 754.09 566.10 755.03 563.96 757.28 563.71 C 757.37 564.78 757.47 565.85 757.58 566.93 C 757.58 566.18 757.56 564.68 757.56 563.93 C 758.15 564.04 759.34 564.26 759.93 564.37 C 758.59 568.87 755.90 573.74 750.95 574.86 C 748.63 575.07 745.86 575.85 744.03 573.93 C 745.13 572.98 746.23 572.04 747.34 571.10 C 747.70 571.23 748.41 571.51 748.76 571.64 C 748.53 571.32 748.06 570.66 747.82 570.34 C 749.42 569.41 751.06 568.51 752.58 567.45 Z" />
<path fill="rgba(0,0,0,0)" opacity="1.00" d=" M 765.39 563.91 C 766.76 564.00 769.50 562.84 769.60 565.04 C 769.96 568.78 769.67 572.54 769.80 576.29 C 766.06 577.03 761.60 573.68 758.50 576.61 C 761.54 577.42 764.93 577.41 767.49 579.47 C 768.02 579.05 769.07 578.21 769.59 577.79 C 769.49 579.98 769.19 582.16 768.90 584.34 C 765.61 581.87 762.28 579.44 758.75 577.32 C 757.43 574.94 761.29 573.18 762.28 571.12 C 762.85 571.37 764.00 571.88 764.57 572.13 C 763.91 571.08 763.32 570.00 762.77 568.91 C 764.32 567.67 764.78 565.69 765.39 563.91 Z" />
<path fill="rgba(0,0,0,0)" opacity="1.00" d=" M 730.34 578.20 C 731.98 577.51 733.60 576.78 735.23 576.06 C 735.32 576.71 735.51 578.02 735.60 578.67 C 735.33 578.52 734.78 578.20 734.51 578.05 C 731.92 581.28 728.61 583.82 725.75 586.80 C 723.95 588.48 722.23 590.39 719.86 591.27 C 720.95 585.55 725.27 580.83 730.34 578.20 Z" />
<path fill="rgba(0,0,0,0)" opacity="1.00" d=" M 599.34 579.40 C 603.03 577.32 607.92 576.73 611.16 579.97 C 611.25 581.97 611.48 584.04 610.83 585.99 C 608.22 593.32 603.75 599.94 597.85 605.00 C 597.93 605.44 598.10 606.32 598.18 606.76 C 601.25 608.52 604.82 609.14 608.16 610.24 C 612.81 611.48 617.29 613.32 622.00 614.35 C 619.75 621.94 615.56 629.34 608.80 633.75 C 606.39 635.13 608.68 638.02 607.79 640.07 C 605.90 645.95 599.93 649.66 594.06 650.57 C 586.70 651.58 579.16 650.41 572.19 647.97 C 570.90 633.67 566.39 619.83 560.70 606.72 C 572.59 596.34 585.23 586.59 599.34 579.40 Z" />
<path fill="rgba(0,0,0,0)" opacity="1.00" d=" M 746.94 578.75 C 749.61 578.30 752.31 578.01 755.03 577.96 C 759.09 581.52 765.83 583.23 767.19 589.04 C 763.23 588.51 759.74 586.46 756.20 584.77 C 752.98 582.99 749.44 581.54 746.94 578.75 Z" />
<path fill="rgba(0,0,0,0)" opacity="1.00" d=" M 727.81 587.81 C 731.58 585.20 734.63 581.74 738.10 578.77 C 738.17 584.03 734.49 588.44 730.51 591.46 C 727.87 592.85 724.73 593.01 721.81 592.91 C 723.20 590.57 725.74 589.43 727.81 587.81 Z" />
<path fill="rgba(0,0,0,0)" opacity="1.00" d=" M 775.39 578.85 C 780.43 580.39 777.03 586.97 773.85 588.80 C 773.47 585.39 774.46 582.08 775.39 578.85 Z" />
<path fill="rgba(0,0,0,0)" opacity="1.00" d=" M 622.94 579.81 C 628.81 580.47 634.12 583.49 640.04 583.93 C 639.45 586.73 638.86 589.81 636.77 591.93 C 631.62 590.90 626.37 589.49 621.48 587.46 C 619.70 585.22 622.27 582.16 622.94 579.81 Z" />
<path fill="rgba(0,0,0,0)" opacity="1.00" d=" M 829.05 586.04 C 830.21 583.84 831.24 580.77 834.24 580.77 C 834.08 581.90 833.81 583.01 833.42 584.09 C 826.31 598.35 821.25 613.56 817.19 628.94 C 815.36 635.36 814.80 642.08 812.55 648.39 C 810.91 646.71 811.74 644.19 811.81 642.13 C 812.62 633.10 814.80 624.27 817.47 615.62 C 820.58 605.49 824.22 595.49 829.05 586.04 Z" />
<path fill="rgba(0,0,0,0)" opacity="1.00" d=" M 733.02 594.08 C 736.60 592.02 737.74 587.82 739.97 584.60 C 740.09 590.06 739.73 595.53 739.74 600.99 C 739.54 603.15 739.61 606.32 736.84 606.70 C 735.58 603.31 734.94 599.73 735.09 596.12 L 736.48 596.27 C 736.49 596.19 736.50 596.05 736.51 595.98 C 735.13 595.77 733.97 595.14 733.02 594.08 Z" />
<path fill="rgba(0,0,0,0)" opacity="1.00" d=" M 612.49 590.75 C 617.08 591.20 619.70 595.79 621.22 599.67 C 621.58 599.05 621.95 598.43 622.33 597.83 C 622.17 600.14 622.17 602.44 623.05 604.65 C 623.52 604.11 623.99 603.59 624.48 603.07 C 624.55 603.70 624.69 604.96 624.76 605.58 L 623.47 604.98 C 623.66 606.66 623.83 608.34 623.98 610.04 C 620.45 610.60 617.28 608.85 614.02 607.88 C 610.64 606.82 607.23 605.92 603.86 604.86 C 607.64 600.80 610.91 596.11 612.49 590.75 Z" />
<path fill="rgba(0,0,0,0)" opacity="1.00" d=" M 621.37 592.01 C 623.28 591.85 625.13 592.33 626.89 593.10 C 626.80 594.45 626.70 595.81 626.59 597.18 C 626.96 597.56 627.70 598.31 628.07 598.69 C 627.57 598.29 626.57 597.49 626.07 597.10 L 625.85 599.40 C 623.66 597.41 622.90 594.45 621.37 592.01 Z" />
<path fill="rgba(0,0,0,0)" opacity="1.00" d=" M 627.89 602.03 C 628.90 599.59 629.13 596.95 629.66 594.39 C 631.88 594.93 634.50 595.12 635.91 597.21 C 636.21 599.48 635.98 601.78 635.88 604.07 C 633.16 603.63 630.41 603.16 627.89 602.03 Z" />
<path fill="rgba(0,0,0,0)" opacity="1.00" d=" M 712.87 603.09 C 714.39 600.26 715.65 597.11 718.03 594.88 C 719.64 595.41 720.63 596.90 721.99 597.85 C 723.89 598.98 725.60 595.14 727.13 596.84 C 727.27 599.42 725.27 602.92 727.85 604.82 C 729.15 601.86 729.12 597.48 732.30 595.91 C 732.42 600.01 734.47 603.65 735.65 607.41 C 727.98 608.32 719.11 608.30 712.87 603.09 Z" />
<path fill="rgba(0,0,0,0)" opacity="1.00" d=" M 639.27 598.89 C 641.12 599.22 643.51 598.58 645.02 599.92 C 643.16 604.15 640.58 609.29 643.31 613.73 C 644.35 616.59 647.67 616.89 650.22 617.43 C 647.21 618.47 643.63 618.80 641.59 621.56 C 638.42 625.60 635.43 630.85 637.34 636.11 C 631.07 635.23 625.19 640.13 624.03 646.19 C 619.83 645.02 614.86 645.52 611.64 648.70 C 608.23 652.59 607.82 658.20 608.43 663.11 C 609.09 668.16 613.11 672.01 613.73 677.07 C 613.56 680.22 612.08 683.72 608.85 684.79 C 600.52 688.40 591.17 684.70 584.27 679.71 C 581.84 678.18 579.80 675.85 576.99 675.06 C 575.36 675.54 575.17 677.54 576.41 678.62 C 578.48 680.94 581.44 682.17 584.05 683.79 C 580.65 686.27 576.48 687.30 572.39 687.94 C 570.02 680.89 570.97 673.29 570.59 665.98 C 570.20 661.30 572.06 656.88 572.45 652.27 C 582.00 654.67 592.66 656.45 601.89 652.00 C 606.89 649.67 610.23 644.94 612.02 639.85 C 617.75 640.22 624.12 639.77 628.57 635.70 C 631.02 633.05 633.36 630.14 634.64 626.72 C 637.01 617.61 639.52 608.39 639.27 598.89 Z" />
<path fill="rgba(0,0,0,0)" opacity="1.00" d=" M 648.51 600.46 C 654.63 599.93 661.14 602.28 664.26 607.84 C 669.20 615.15 666.67 624.85 661.37 631.24 C 660.07 625.41 656.92 620.25 653.41 615.51 C 651.63 613.10 647.67 614.42 646.18 611.74 C 644.90 607.90 645.89 603.52 648.51 600.46 Z" />
<path fill="rgba(0,0,0,0)" opacity="1.00" d=" M 627.18 606.71 C 629.84 607.81 632.68 608.35 635.47 609.04 C 635.03 610.31 635.40 612.19 633.97 612.91 C 631.49 612.59 629.08 611.93 626.66 611.34 C 626.84 609.79 627.01 608.25 627.18 606.71 Z" />
<path fill="rgba(0,0,0,0)" opacity="1.00" d=" M 723.89 613.15 C 726.97 612.65 730.22 612.90 733.16 613.99 C 733.66 616.92 729.86 616.83 727.96 616.77 C 725.99 616.79 722.09 615.84 723.89 613.15 Z" />
<path fill="rgba(0,0,0,0)" opacity="1.00" d=" M 625.10 615.94 C 628.15 616.00 631.07 616.97 634.09 617.27 C 634.09 618.54 633.75 619.86 632.56 620.53 C 629.90 620.42 627.33 619.64 624.76 619.08 C 624.84 618.30 625.02 616.73 625.10 615.94 Z" />
<path fill="rgba(0,0,0,0)" opacity="1.00" d=" M 640.69 631.09 C 641.75 626.91 644.35 622.10 648.92 621.12 C 652.47 620.64 654.84 623.91 656.24 626.71 C 659.94 635.43 656.83 646.64 649.14 652.17 C 648.44 649.04 647.96 645.75 646.16 643.02 C 643.96 639.24 639.73 635.99 640.69 631.09 Z" />
<path fill="rgba(0,0,0,0)" opacity="1.00" d=" M 619.71 627.11 C 620.62 625.13 621.69 622.53 624.43 623.74 C 624.42 624.58 624.40 626.24 624.39 627.08 C 624.46 626.40 624.59 625.03 624.66 624.35 C 627.09 624.74 629.57 624.64 632.03 624.90 C 632.44 626.87 630.41 628.10 628.96 628.92 C 625.83 628.61 622.80 627.65 619.71 627.11 Z" />
<path fill="rgba(0,0,0,0)" opacity="1.00" d=" M 611.30 636.54 C 614.56 635.31 616.92 632.71 619.16 630.16 C 619.69 630.57 620.73 631.37 621.26 631.77 C 623.15 632.04 625.06 632.36 626.91 632.96 C 623.90 636.15 618.98 635.08 615.08 635.97 C 613.95 635.89 614.39 637.13 614.48 637.80 C 613.60 636.64 612.54 636.22 611.30 636.54 Z" />
<path fill="rgba(0,0,0,0)" opacity="1.00" d=" M 858.36 637.22 C 859.35 636.18 863.14 635.01 862.31 637.81 C 858.81 642.04 854.63 645.65 851.22 649.96 C 846.34 656.23 841.57 662.61 837.48 669.44 C 834.28 674.32 831.70 679.68 827.55 683.86 C 829.09 677.62 832.53 672.11 835.47 666.47 C 841.78 655.81 848.98 645.40 858.36 637.22 Z" />
<path fill="rgba(0,0,0,0)" opacity="1.00" d=" M 627.86 647.98 C 627.72 643.06 632.83 637.46 638.07 639.75 C 641.16 641.73 642.87 645.26 644.36 648.50 C 647.59 658.16 642.49 670.48 632.57 673.84 C 633.49 669.57 634.40 665.20 633.36 660.85 C 633.06 656.00 629.95 652.15 627.86 647.98 Z" />
<path fill="rgba(0,0,0,0)" opacity="1.00" d=" M 612.54 655.03 C 613.28 651.29 617.18 648.32 621.01 649.24 C 624.11 650.01 626.19 652.74 627.58 655.46 C 630.72 661.87 630.88 669.91 627.23 676.15 C 624.94 680.13 620.60 682.40 616.33 683.64 C 617.56 679.24 618.42 674.27 615.80 670.18 C 612.96 665.72 611.06 660.32 612.54 655.03 Z" />
<path fill="rgba(0,0,0,0)" opacity="1.00" d=" M 760.00 649.24 C 763.51 647.60 767.39 648.77 771.04 649.16 C 783.52 651.23 796.30 653.36 807.57 659.43 C 810.01 660.76 812.69 662.48 812.89 665.58 C 806.21 662.33 799.43 659.11 792.09 657.64 C 782.40 655.65 772.64 653.94 762.89 652.29 C 761.02 652.34 760.54 650.65 760.00 649.24 Z" />
<path fill="rgba(0,0,0,0)" opacity="1.00" d=" M 223.54 650.69 C 228.89 649.72 234.18 651.61 239.46 652.25 C 246.58 653.75 253.82 654.47 260.95 655.83 C 265.87 656.74 271.29 660.45 271.16 665.96 C 270.65 673.00 268.86 679.89 268.18 686.92 C 267.69 690.69 267.87 695.06 264.97 697.97 C 262.02 700.64 257.70 700.48 253.97 700.62 C 243.18 700.24 232.36 698.86 221.97 695.83 C 219.03 694.87 215.76 693.68 214.18 690.82 C 212.65 686.95 213.71 682.74 214.31 678.80 C 215.65 671.40 216.16 663.88 217.68 656.52 C 218.18 653.57 220.36 650.82 223.54 650.69 Z" />
<path fill="rgba(0,0,0,0)" opacity="1.00" d=" M 486.08 701.57 C 511.32 691.31 535.92 679.58 560.29 667.43 C 561.09 676.08 560.82 684.92 563.33 693.34 C 542.65 703.78 521.49 713.24 500.25 722.46 C 497.60 714.36 492.53 707.10 486.08 701.57 Z" />
<path fill="rgba(0,0,0,0)" opacity="1.00" d=" M 748.77 711.80 C 774.64 711.85 800.52 711.61 826.37 712.39 C 829.71 728.10 832.41 744.05 832.34 760.16 C 804.52 760.55 776.69 760.08 748.87 760.12 C 748.65 744.01 748.69 727.91 748.77 711.80 Z" />
<path fill="rgba(0,0,0,0)" opacity="1.00" d=" M 831.08 712.26 C 857.03 712.63 882.99 712.53 908.95 712.91 C 909.42 728.69 908.63 744.48 908.16 760.25 C 884.42 760.20 860.68 760.52 836.95 760.17 C 836.52 744.05 834.37 728.03 831.08 712.26 Z" />
<path fill="rgba(0,0,0,0)" opacity="1.00" d=" M 413.15 732.00 C 413.19 729.46 416.20 729.74 416.50 731.94 C 419.98 745.70 415.67 760.84 406.41 771.46 C 397.33 781.94 384.99 788.85 372.52 794.51 C 352.70 803.23 331.84 809.28 310.94 814.80 C 269.08 825.50 226.57 833.50 183.94 840.43 C 182.32 840.27 181.33 838.69 180.06 837.87 C 184.55 835.16 189.99 835.19 195.00 834.23 C 220.50 829.94 245.92 825.14 271.19 819.68 C 290.64 815.69 309.93 810.96 329.01 805.47 C 347.73 800.08 366.41 793.93 383.53 784.48 C 394.85 778.00 405.65 769.11 410.72 756.75 C 414.27 749.03 414.49 740.26 413.15 732.00 Z" />
<path fill="rgba(0,0,0,0)" opacity="1.00" d=" M 760.40 763.73 C 784.39 763.77 808.40 763.60 832.40 763.84 C 832.66 777.00 831.86 790.15 831.21 803.29 C 817.16 803.29 803.12 803.76 789.07 803.77 C 786.67 803.78 784.29 804.02 781.92 804.31 C 782.03 804.70 782.25 805.48 782.36 805.87 C 787.79 806.96 793.39 806.71 798.90 806.90 C 796.27 810.79 793.38 815.70 794.64 820.50 C 795.98 821.10 796.17 819.39 796.60 818.54 C 797.77 814.62 799.41 810.88 801.42 807.33 C 811.24 807.29 821.07 807.59 830.89 807.64 C 829.81 821.59 828.19 835.49 827.22 849.45 C 827.04 852.27 826.55 855.16 827.19 857.97 C 827.54 857.92 828.23 857.81 828.57 857.76 C 830.76 848.35 831.59 838.68 832.80 829.11 C 833.61 821.96 834.51 814.82 834.86 807.63 C 852.93 807.22 871.00 807.39 889.06 807.17 C 890.50 807.18 891.84 806.78 893.08 805.98 C 890.38 804.22 887.06 804.74 884.02 804.55 C 867.86 803.89 851.68 803.79 835.51 803.48 C 835.54 796.98 836.48 790.54 836.63 784.04 C 836.96 777.34 836.75 770.64 836.93 763.94 C 856.11 763.70 875.30 763.90 894.48 764.10 C 894.05 804.12 893.09 844.14 893.24 884.17 C 849.46 884.24 805.67 884.24 761.89 884.18 C 762.40 871.80 761.70 859.42 761.88 847.04 C 762.00 827.82 761.67 808.61 761.25 789.39 C 765.21 789.37 769.24 789.52 773.09 788.39 C 769.76 785.84 765.02 786.58 761.05 786.07 C 760.92 778.62 760.84 771.17 760.40 763.73 M 850.00 779.12 C 848.06 780.70 850.89 782.76 851.52 784.39 C 853.87 787.28 854.44 791.67 857.89 793.56 C 858.37 789.80 856.81 786.26 854.75 783.22 C 853.49 781.58 852.33 779.21 850.00 779.12 M 804.90 790.05 C 804.00 791.45 804.12 795.35 806.63 793.58 C 808.64 790.67 810.46 787.62 813.01 785.14 C 814.37 783.97 814.88 782.27 815.12 780.57 C 810.32 781.58 807.11 785.97 804.90 790.05 M 855.43 811.92 C 857.55 817.14 861.15 821.66 863.03 827.02 C 864.18 829.09 864.19 832.15 866.71 833.13 C 865.95 825.65 862.78 818.56 858.75 812.29 C 858.29 811.00 855.30 809.48 855.43 811.92 M 822.04 822.96 C 820.19 830.77 817.96 838.68 813.61 845.53 C 812.20 847.89 809.92 849.59 808.59 851.99 C 808.77 854.51 811.62 852.65 812.52 851.64 C 818.81 844.68 821.80 835.48 824.63 826.72 C 825.36 824.10 827.10 820.44 823.71 818.87 C 822.89 820.11 822.29 821.48 822.04 822.96 M 835.53 823.49 C 835.84 828.46 837.58 833.21 838.65 838.06 C 839.34 839.85 839.44 842.56 841.70 843.13 C 841.15 836.52 840.45 829.71 837.94 823.52 C 837.34 823.51 836.13 823.50 835.53 823.49 Z" />
<path fill="rgba(0,0,0,0)" opacity="1.00" d=" M 535.79 770.56 C 535.89 768.36 539.29 768.71 538.94 770.87 C 537.08 782.43 529.68 792.39 521.01 799.94 C 506.41 812.51 487.35 818.55 468.52 820.94 C 468.56 820.51 468.64 819.64 468.68 819.21 C 468.57 819.64 468.35 820.50 468.24 820.92 C 461.85 821.73 455.36 822.04 448.92 821.74 C 451.77 820.44 454.40 818.53 457.46 817.81 C 474.97 817.20 492.74 813.54 508.06 804.74 C 521.04 797.27 531.97 785.29 535.79 770.56 Z" />
<path fill="rgba(0,0,0,0)" opacity="1.00" d=" M 696.82 789.75 C 717.26 789.83 737.70 789.19 758.14 789.74 C 758.00 804.23 758.44 818.74 757.96 833.22 C 749.29 833.62 740.60 833.54 731.93 833.51 C 732.10 831.28 732.40 829.07 732.88 826.90 C 734.37 827.60 735.79 829.25 737.60 828.52 C 739.81 827.05 738.18 823.97 737.74 821.97 C 737.02 820.40 736.32 817.46 734.03 818.28 C 729.88 822.13 730.75 828.26 730.39 833.37 C 719.20 833.57 708.01 833.58 696.82 833.42 C 696.91 818.86 696.62 804.31 696.82 789.75 M 731.04 807.98 C 730.02 810.68 731.46 813.23 734.03 814.33 C 734.64 812.77 735.58 810.86 734.68 809.26 C 734.09 807.71 732.32 808.13 731.04 807.98 M 735.82 810.29 C 735.46 813.07 737.31 815.87 740.06 816.50 C 741.55 816.18 744.80 816.42 744.14 814.00 C 742.52 811.23 738.70 810.81 735.82 810.29 M 722.52 816.58 C 720.96 817.81 718.66 818.77 718.65 821.11 C 719.14 821.51 720.11 822.31 720.59 822.72 C 720.23 823.48 719.87 824.26 719.52 825.05 C 720.76 825.29 722.34 826.60 723.53 825.52 C 724.92 824.11 725.94 822.40 727.09 820.82 C 726.58 820.34 725.57 819.38 725.06 818.90 C 726.16 819.56 727.12 820.41 728.03 821.35 C 728.82 821.20 730.39 820.89 731.18 820.74 C 731.49 819.17 731.81 817.61 732.13 816.05 C 730.82 815.25 729.71 813.65 728.01 813.93 C 725.83 813.78 724.23 815.52 722.52 816.58 M 741.18 821.30 C 740.89 823.35 741.91 825.27 742.78 827.07 C 743.44 828.94 745.89 828.13 747.38 828.49 C 746.70 825.59 745.14 819.87 741.18 821.30 Z" />
<path fill="rgba(0,0,0,0)" opacity="1.00" d=" M 732.45 824.25 C 733.09 823.43 733.91 823.01 734.91 822.98 C 735.76 823.64 736.04 824.49 735.72 825.53 C 734.59 825.84 733.56 824.82 732.54 824.53 L 732.45 824.25 Z" />
<path fill="rgba(0,0,0,0)" opacity="1.00" d=" M 696.82 837.49 C 707.62 837.53 718.43 837.34 729.23 837.74 C 728.10 843.52 726.76 849.27 725.14 854.94 C 724.28 858.21 721.94 860.73 719.67 863.12 C 719.60 861.52 719.53 859.93 719.43 858.36 C 717.19 859.13 718.08 862.18 717.33 864.01 C 716.44 862.27 715.67 860.44 714.37 858.98 C 714.30 860.69 714.25 862.42 714.22 864.15 C 713.07 862.85 711.96 861.55 710.76 860.34 C 710.97 862.24 711.21 864.14 711.49 866.06 C 710.00 864.91 708.52 863.81 706.94 862.84 C 707.29 864.25 707.71 865.66 708.18 867.05 L 705.65 865.91 C 706.35 867.67 707.67 870.07 704.50 869.25 C 706.06 871.64 704.32 873.03 702.36 874.14 C 703.05 874.86 703.75 875.60 704.46 876.35 C 703.70 877.62 702.94 878.90 702.16 880.16 C 704.12 881.48 706.07 882.83 708.33 883.63 C 704.67 884.88 700.55 883.68 696.74 884.22 C 696.35 868.65 696.84 853.06 696.82 837.49 Z" />
<path fill="rgba(0,0,0,0)" opacity="1.00" d=" M 725.47 860.01 C 729.87 853.44 730.11 845.28 731.73 837.78 C 740.55 837.60 749.37 837.79 758.18 837.62 C 757.97 848.07 758.47 858.54 757.69 868.98 C 757.33 874.04 757.80 879.10 757.97 884.16 C 752.58 884.31 747.14 883.12 741.80 884.33 C 742.99 883.57 744.27 883.00 745.55 882.41 L 745.26 883.11 C 746.54 882.96 747.84 882.78 749.13 882.57 C 751.59 882.26 754.02 881.76 756.47 881.36 C 756.72 880.61 757.21 879.10 757.45 878.35 C 756.98 878.42 756.04 878.56 755.58 878.63 C 756.51 877.93 758.95 875.59 754.90 876.80 C 756.48 875.84 757.29 874.31 757.50 872.50 C 756.80 872.64 755.39 872.94 754.69 873.09 C 755.65 871.36 756.58 869.62 757.34 867.80 C 754.72 868.07 752.04 868.39 749.90 870.06 C 750.55 868.29 751.30 866.54 751.46 864.65 C 749.99 865.14 749.40 866.57 748.59 867.72 C 748.20 867.29 747.43 866.44 747.04 866.02 C 746.17 866.71 745.31 867.40 744.46 868.11 C 744.94 866.57 745.70 865.04 745.51 863.40 C 744.13 864.22 742.92 865.30 741.55 866.12 C 739.92 866.36 737.56 865.55 737.37 868.35 C 737.46 867.08 737.63 864.55 737.72 863.28 C 735.57 863.73 736.60 865.97 736.55 867.51 C 736.38 868.71 736.24 869.92 736.12 871.14 C 735.55 871.35 734.42 871.78 733.86 871.99 C 733.24 873.40 733.77 876.02 731.59 876.08 C 731.77 874.02 734.02 871.18 731.14 870.19 C 731.76 870.41 733.00 870.85 733.61 871.06 C 733.57 870.14 733.47 868.29 733.42 867.36 C 732.33 867.88 731.25 868.40 730.17 868.93 C 731.60 867.46 732.91 865.87 734.01 864.13 C 730.91 864.03 728.07 865.46 725.01 865.51 C 723.97 866.05 722.93 866.59 721.89 867.11 C 722.54 862.85 727.39 862.86 730.00 860.60 C 728.49 860.36 726.98 860.16 725.47 860.01 M 742.80 847.60 C 741.62 852.98 740.74 858.46 739.40 863.82 C 739.96 864.43 740.54 865.04 741.13 865.66 C 742.95 859.41 744.69 852.80 744.04 846.25 C 743.73 846.59 743.11 847.26 742.80 847.60 Z" />
<path fill="rgba(0,0,0,0)" opacity="1.00" d=" M 160.01 840.95 C 160.26 840.44 160.75 839.42 161.00 838.91 C 164.48 846.74 168.68 854.30 174.12 860.95 C 175.50 862.91 177.83 864.70 177.15 867.41 C 168.19 861.37 163.14 851.01 160.01 840.95 Z" />
<path fill="rgba(0,0,0,0)" opacity="1.00" d=" M 166.27 841.95 C 169.32 841.86 170.89 846.00 174.03 845.14 C 175.46 844.12 176.52 842.62 178.11 841.84 C 179.98 841.23 181.98 841.45 183.92 841.38 C 188.68 852.98 199.75 860.53 211.16 864.70 C 224.79 869.83 239.80 870.40 254.03 867.81 C 256.64 871.60 259.12 875.65 260.40 880.10 C 261.29 885.76 255.63 889.23 250.99 890.68 C 241.82 893.15 232.13 891.26 223.17 888.75 C 207.36 883.69 193.32 873.94 181.55 862.37 C 175.36 856.46 170.46 849.37 166.27 841.95 Z" />
<path fill="rgba(0,0,0,0)" opacity="1.00" d=" M 898.95 841.45 C 902.99 843.51 905.14 847.77 907.73 851.30 C 912.69 858.88 918.65 866.53 919.50 875.88 C 914.23 870.68 908.30 865.96 904.52 859.47 C 901.16 854.10 898.94 847.83 898.95 841.45 Z" />
<path fill="rgba(0,0,0,0)" opacity="1.00" d=" M 939.46 843.38 C 940.48 842.64 942.49 840.78 943.04 843.01 C 943.40 847.95 941.02 852.60 938.84 856.89 C 934.44 864.56 928.66 871.47 922.06 877.33 C 922.00 874.80 921.53 872.12 922.65 869.76 C 926.71 860.14 931.41 850.31 939.46 843.38 Z" />
<path fill="rgba(0,0,0,0)" opacity="1.00" d=" M 897.30 849.90 C 899.92 858.79 905.50 866.52 912.32 872.68 C 915.53 876.00 920.81 878.67 919.86 884.13 C 916.04 883.96 911.75 885.01 908.40 882.69 C 904.88 880.61 901.14 878.95 897.38 877.39 C 896.91 868.24 897.25 859.06 897.30 849.90 Z" />
<path fill="rgba(0,0,0,0)" opacity="1.00" d=" M 260.05 869.51 C 274.89 875.35 291.30 875.42 306.99 874.31 C 309.46 876.21 310.48 879.83 310.45 882.87 C 309.29 887.90 303.46 889.89 298.88 890.30 C 289.19 890.75 280.09 886.23 272.45 880.66 C 268.00 877.34 263.30 874.09 260.05 869.51 Z" />
<path fill="rgba(0,0,0,0)" opacity="1.00" d=" M 315.71 873.23 C 319.35 871.75 323.43 871.88 327.08 870.37 C 334.95 879.02 346.17 883.13 357.02 886.60 C 349.88 887.85 342.31 888.07 335.46 885.39 C 328.08 882.78 321.99 877.74 315.71 873.23 Z" />
<path fill="rgba(0,0,0,0)" opacity="1.00" d=" M 729.33 883.51 C 730.32 882.55 731.23 881.39 732.63 881.05 C 732.30 882.28 731.92 883.49 731.55 884.73 C 730.80 884.31 730.06 883.90 729.33 883.51 Z" />
<path fill="rgba(0,0,0,0)" opacity="1.00" d=" M 897.10 882.61 C 898.22 882.00 899.83 882.36 900.75 883.25 C 900.76 885.08 895.88 884.55 897.10 882.61 Z" />
<path fill="rgba(0,0,0,0)" opacity="1.00" d=" M 0.00 887.14 C 68.34 887.07 136.68 887.59 205.02 887.39 C 211.10 886.74 216.09 890.86 221.76 892.21 C 232.53 895.21 244.42 897.31 255.17 893.16 C 258.35 892.05 260.52 889.40 263.04 887.33 C 266.98 887.15 270.97 886.93 274.91 887.23 C 279.43 889.07 283.64 891.75 288.50 892.73 C 296.90 895.18 307.00 894.23 313.02 887.26 C 318.35 887.83 323.71 887.19 329.04 887.44 C 332.14 888.05 335.01 889.50 338.11 890.18 C 346.22 892.41 354.89 891.43 362.81 888.86 C 365.74 887.75 368.88 888.29 371.92 888.31 C 499.63 887.92 627.36 888.37 755.06 888.07 C 756.91 887.92 758.73 888.32 760.40 889.17 C 760.81 888.90 761.62 888.36 762.03 888.08 C 791.68 888.43 821.34 888.12 850.99 888.21 C 908.66 888.30 966.33 888.25 1024.00 888.06 L 1024.00 1024.00 L 0.00 1024.00 L 0.00 887.14 M 961.97 896.95 C 960.62 899.52 959.59 902.68 960.47 905.57 C 961.11 907.52 963.36 908.03 965.17 907.54 C 965.67 911.35 966.29 915.20 965.92 919.06 C 966.02 920.96 964.73 924.12 967.11 925.07 C 969.42 926.41 970.55 923.20 971.83 921.88 C 977.09 913.98 983.10 906.55 990.16 900.19 C 991.49 899.37 992.58 896.55 990.16 896.41 C 981.71 899.26 976.74 907.33 970.91 913.55 C 970.60 910.30 970.41 907.07 970.06 903.84 C 969.61 903.59 968.71 903.09 968.26 902.84 C 967.44 900.64 966.79 898.36 965.64 896.31 C 964.51 895.16 962.55 895.39 961.97 896.95 M 611.22 896.90 C 611.63 901.92 609.65 908.25 614.08 912.01 C 617.11 914.28 620.33 917.08 624.30 917.20 C 622.87 911.83 615.13 910.95 614.44 905.16 C 614.26 902.09 613.39 899.14 611.22 896.90 M 44.25 901.10 C 42.17 902.57 39.30 905.94 41.83 908.26 C 43.57 910.17 45.71 907.87 47.12 906.76 C 48.21 908.24 49.44 909.60 51.02 910.59 C 53.73 908.23 58.00 906.10 58.00 902.08 C 55.49 900.82 53.05 902.00 50.90 903.36 C 48.91 902.14 46.74 899.20 44.25 901.10 M 92.47 905.38 C 88.16 909.09 84.01 913.15 81.08 918.08 C 80.10 919.86 79.12 922.42 80.82 924.12 C 82.39 925.88 85.05 925.28 86.97 924.49 C 92.72 922.06 98.06 918.70 102.94 914.82 C 104.17 913.97 104.83 912.64 105.15 911.23 C 98.52 913.47 92.25 916.61 86.03 919.78 C 86.09 919.41 86.20 918.67 86.26 918.30 C 90.08 913.47 94.36 908.98 98.61 904.52 C 99.75 903.44 100.42 902.01 100.70 900.49 C 97.29 900.76 94.93 903.32 92.47 905.38 M 436.69 900.42 C 437.06 905.61 438.32 910.69 438.67 915.89 C 439.07 917.78 438.56 920.68 441.07 921.22 C 441.64 918.96 441.48 916.66 441.25 914.39 C 448.91 913.61 456.84 913.24 463.91 909.89 C 465.31 909.16 467.37 908.27 466.80 906.25 C 463.44 906.31 460.22 907.27 457.00 908.07 C 451.57 909.45 445.97 909.88 440.49 910.94 C 439.28 907.56 440.37 902.24 436.69 900.42 M 643.80 911.94 C 642.71 913.59 641.28 915.42 641.68 917.54 C 644.01 918.99 645.47 915.37 647.15 914.20 C 652.40 908.04 661.00 906.88 667.03 901.95 C 665.40 901.37 663.66 900.95 662.00 901.59 C 655.20 903.31 648.07 906.06 643.80 911.94 M 553.00 908.01 C 546.89 912.67 541.57 919.26 540.40 927.06 C 540.29 928.72 542.98 929.70 543.60 927.98 C 546.69 920.84 551.34 914.37 557.31 909.36 C 559.00 907.82 561.14 906.58 561.98 904.35 C 558.53 903.80 555.74 906.34 553.00 908.01 M 752.04 907.39 C 752.60 910.79 756.43 912.72 759.49 913.49 C 759.57 913.20 759.72 912.62 759.79 912.34 C 757.78 909.92 754.73 908.81 752.04 907.39 M 521.40 914.42 C 518.31 918.19 513.21 918.48 508.98 920.08 C 508.75 922.75 512.23 922.10 513.98 922.32 C 520.26 922.48 524.94 917.75 527.84 912.68 C 532.15 913.47 535.54 917.01 540.01 916.97 C 539.73 915.75 539.61 914.39 538.45 913.67 C 535.04 910.76 530.59 908.76 526.09 908.67 C 523.72 909.56 523.22 912.73 521.40 914.42 M 902.92 911.31 C 906.25 914.16 910.50 917.92 915.15 916.89 C 911.66 914.10 907.47 911.53 902.92 911.31 M 803.09 916.19 C 799.72 916.76 795.38 916.82 793.33 920.01 C 792.77 922.68 795.51 924.44 797.60 925.38 C 803.53 927.52 809.80 928.59 816.06 929.19 C 828.60 930.59 841.32 932.19 853.92 930.68 C 856.53 930.49 860.33 928.11 858.13 925.19 C 853.29 921.33 846.91 920.25 841.07 918.73 C 828.59 916.40 815.79 914.95 803.09 916.19 M 116.14 918.16 C 112.29 919.75 116.40 925.93 119.60 923.51 C 122.74 921.46 118.80 917.41 116.14 918.16 M 378.65 919.90 C 378.67 920.45 378.71 921.55 378.73 922.11 C 381.31 926.25 388.16 923.66 389.54 919.59 C 385.90 919.44 382.29 920.06 378.65 919.90 M 289.58 922.59 C 287.61 924.34 289.08 928.83 292.02 927.86 C 294.81 926.26 292.55 921.53 289.58 922.59 M 320.53 929.64 C 320.15 934.26 325.48 935.74 329.07 936.43 C 333.38 936.96 338.87 937.74 342.24 934.37 C 335.35 931.59 327.90 930.33 320.53 929.64 M 895.98 932.20 C 896.11 932.56 896.36 933.27 896.49 933.63 C 904.45 938.11 913.93 938.89 922.19 942.72 C 914.15 942.24 906.11 941.97 898.07 941.63 C 871.98 940.72 846.15 935.95 820.02 935.56 C 818.81 935.62 816.14 935.72 817.53 937.55 C 836.55 940.40 855.94 940.18 874.97 943.03 C 865.34 943.66 855.69 943.99 846.09 944.96 C 842.32 945.35 838.24 944.88 834.87 946.96 C 837.19 948.66 840.15 948.45 842.88 948.47 C 853.79 948.26 864.63 946.82 875.48 945.73 C 879.98 945.32 884.42 944.10 888.97 944.23 C 915.92 946.10 942.93 946.89 969.90 948.41 C 974.45 948.58 979.07 949.28 983.60 948.48 C 983.57 948.22 983.51 947.70 983.49 947.45 C 978.38 946.32 973.14 946.03 967.95 945.67 C 954.63 944.43 941.27 943.78 927.92 942.96 C 926.62 942.82 925.51 942.09 924.38 941.56 C 918.51 938.45 912.26 936.14 905.98 934.03 C 902.73 933.02 899.43 931.83 895.98 932.20 M 153.42 936.93 C 155.53 941.42 161.15 943.10 165.75 942.55 C 164.36 939.22 160.36 938.43 157.86 936.13 C 156.43 934.57 153.07 933.68 153.42 936.93 M 709.78 937.33 C 711.03 939.45 713.82 939.01 715.92 939.45 C 724.68 939.93 733.54 939.83 742.21 938.35 C 743.84 938.03 745.66 937.85 746.88 936.59 C 738.59 935.83 730.26 936.53 721.96 936.42 C 717.90 936.68 713.76 936.34 709.78 937.33 M 754.21 937.18 C 752.04 937.89 752.24 941.01 754.43 941.51 C 758.51 942.66 762.89 940.94 765.72 937.92 C 763.43 933.88 757.57 935.37 754.21 937.18 M 468.43 938.33 C 465.37 939.95 467.78 943.81 469.72 945.34 C 471.46 947.05 474.85 944.64 473.66 942.46 C 472.41 940.71 470.81 938.28 468.43 938.33 M 490.52 950.78 C 488.13 950.71 488.70 954.31 490.91 953.67 C 503.96 954.01 517.02 953.88 530.07 953.72 C 531.12 953.26 533.93 954.25 533.64 952.40 C 526.75 949.72 519.14 950.29 511.89 949.75 C 504.77 949.86 497.54 949.31 490.52 950.78 Z" />
<path fill="rgba(0,0,0,0)" opacity="1.00" d=" M 795.36 921.68 C 796.32 919.40 799.12 919.97 801.04 920.44 C 812.04 923.70 823.56 924.51 834.94 925.54 C 842.28 926.24 849.69 925.36 857.01 926.28 C 855.56 928.05 853.31 928.70 851.13 928.93 C 839.05 929.83 827.00 928.30 815.01 927.00 C 808.25 926.14 801.61 924.39 795.36 921.68 Z" />
</g>
<g id="Group-000000" fill="#333F70">
<path fill="#333F70" opacity="1.00" d=" M 475.13 221.34 C 491.42 215.72 509.08 216.03 525.92 218.62 C 540.26 221.12 555.08 225.88 565.30 236.79 C 576.65 248.45 579.91 265.95 577.13 281.58 C 585.49 285.72 593.36 291.87 597.73 300.28 C 601.25 306.97 600.36 315.64 595.31 321.32 C 588.07 329.45 576.67 332.50 566.08 331.95 C 569.17 340.05 572.04 348.29 573.62 356.84 C 577.80 377.35 576.24 398.56 572.73 419.04 C 574.91 418.69 577.11 418.80 579.29 419.20 C 584.78 417.86 590.50 420.03 595.23 422.78 C 603.37 427.89 607.03 437.80 606.95 447.09 C 606.71 462.97 598.24 478.23 585.60 487.68 C 576.18 494.67 563.50 498.31 552.04 494.72 C 546.99 493.31 542.74 489.98 539.50 485.95 C 526.71 499.97 511.53 512.16 494.10 519.88 C 479.49 526.36 462.84 528.51 447.20 524.80 C 448.17 528.33 449.10 531.96 451.20 535.04 C 451.26 536.45 451.16 537.93 451.72 539.28 C 462.60 565.94 473.87 592.45 484.97 619.02 C 505.82 614.93 526.57 610.29 547.09 604.77 C 549.98 603.96 551.82 600.49 555.15 601.11 C 556.56 601.71 557.75 602.67 559.01 603.53 C 568.53 594.68 579.01 586.86 590.16 580.18 C 595.09 577.41 600.19 574.13 606.03 574.04 C 610.14 573.96 614.92 576.56 615.29 581.05 C 615.61 583.72 613.44 588.12 617.61 588.42 C 618.01 584.36 618.51 580.16 620.53 576.54 C 621.93 575.71 623.72 576.22 625.29 576.03 C 625.88 566.66 625.91 557.09 623.13 548.02 C 621.59 546.69 618.90 545.55 619.55 543.06 C 620.30 541.69 622.12 540.44 623.61 541.56 C 625.80 542.49 625.24 545.12 624.97 546.98 C 628.38 556.60 628.49 566.92 627.69 576.98 C 630.17 577.92 632.67 578.79 635.21 579.61 C 639.14 574.76 642.86 569.45 648.42 566.32 C 653.01 563.24 658.69 562.42 663.24 559.25 C 664.95 560.10 667.36 561.61 666.09 563.88 C 664.95 566.80 661.77 564.59 660.03 563.59 C 651.27 566.19 644.00 572.21 638.94 579.71 C 640.65 580.84 643.98 581.17 643.62 583.88 C 642.86 587.93 641.70 592.29 638.34 594.99 C 643.75 596.21 649.30 596.48 654.79 597.20 C 664.07 598.73 670.89 607.81 670.62 617.07 C 670.30 624.02 667.26 631.12 661.63 635.40 C 661.01 643.75 656.73 651.95 649.32 656.17 C 648.43 661.76 646.21 667.21 642.50 671.54 C 639.47 674.95 635.07 676.67 630.76 677.83 C 628.04 682.16 623.67 685.37 618.73 686.67 C 615.86 687.20 612.84 687.04 610.12 688.23 C 605.59 690.07 600.50 690.34 595.77 689.26 C 593.13 688.69 590.74 687.21 588.07 686.89 C 583.64 688.35 579.44 690.46 574.85 691.43 C 573.67 695.21 569.11 694.51 566.02 694.97 C 565.35 697.14 563.82 699.33 564.24 701.66 C 581.53 714.59 595.23 733.30 599.33 754.77 C 605.33 786.26 591.57 819.84 566.93 839.86 C 554.40 849.98 540.40 858.19 525.82 864.98 C 509.17 872.71 490.79 875.15 472.87 878.26 C 458.75 880.44 444.59 882.54 430.37 883.96 C 430.50 884.14 430.43 884.64 430.79 884.58 C 439.47 883.43 448.25 884.09 456.99 883.84 C 502.27 883.91 547.55 883.81 592.83 883.94 C 590.65 882.35 588.35 880.92 586.45 879.00 C 586.28 877.04 588.29 876.21 589.79 877.30 C 593.01 879.01 596.41 880.83 598.46 883.99 C 613.75 884.24 629.04 883.95 644.33 883.77 C 639.71 881.76 634.95 880.00 630.66 877.32 C 623.43 872.94 615.94 868.73 609.75 862.90 C 614.54 864.34 618.34 867.83 622.82 869.97 C 630.49 873.88 638.10 878.13 646.31 880.80 C 645.73 878.45 645.15 876.04 643.74 874.04 C 640.94 869.88 638.38 865.57 635.62 861.39 C 633.44 857.91 629.94 855.38 628.39 851.50 C 636.01 856.44 640.40 864.81 645.76 871.90 C 645.11 863.29 645.29 854.63 645.20 846.00 C 645.25 841.12 644.52 836.23 645.27 831.38 C 645.84 832.48 646.41 833.64 646.50 834.91 C 647.81 848.50 648.04 862.16 649.03 875.78 C 655.57 871.38 661.51 865.83 668.89 862.86 C 663.94 869.93 655.91 873.95 649.95 880.03 C 649.79 881.41 649.72 882.81 649.75 884.22 C 651.17 883.88 652.67 883.68 654.02 883.05 C 663.65 878.33 673.15 872.50 683.89 870.84 C 676.86 876.32 668.27 879.28 660.70 883.92 C 671.75 884.32 682.82 884.08 693.89 884.13 C 693.48 865.41 693.07 846.69 693.10 827.97 C 693.31 813.79 692.45 799.59 693.08 785.43 C 714.66 785.53 736.24 785.38 757.82 785.92 C 757.89 778.52 757.67 771.13 757.84 763.74 C 753.78 763.64 749.67 764.12 745.66 763.41 C 744.95 761.00 745.26 758.45 745.23 755.99 C 745.51 739.94 744.46 723.91 744.79 707.86 C 758.42 707.58 772.04 708.17 785.67 708.24 C 784.37 706.62 782.21 705.29 782.03 703.07 C 781.80 699.99 785.66 699.51 787.93 699.13 C 797.25 698.20 807.30 698.59 815.60 703.43 C 818.81 705.25 821.68 707.79 825.43 708.49 C 822.47 695.54 818.45 682.87 814.77 670.11 C 803.75 673.24 792.00 672.90 780.86 670.62 C 769.08 667.97 757.59 662.69 748.93 654.15 C 746.44 651.45 743.18 648.19 744.23 644.16 C 748.51 639.75 755.26 639.34 761.03 638.80 C 778.55 638.27 797.89 642.42 810.01 656.04 C 805.29 642.99 801.16 629.65 794.62 617.36 C 792.63 613.56 790.01 610.03 788.92 605.83 C 790.14 606.22 791.74 606.19 792.46 607.49 C 798.99 616.50 803.22 626.88 807.67 637.02 C 807.29 625.92 808.04 614.74 810.34 603.86 C 813.64 588.77 820.35 573.62 832.50 563.59 C 834.98 561.75 837.61 559.37 840.88 559.35 C 844.24 560.71 844.45 565.07 845.30 568.12 C 848.06 585.15 845.64 602.80 840.13 619.06 C 834.76 634.41 826.21 648.53 815.95 661.10 C 819.39 669.06 821.32 677.57 824.77 685.50 C 826.15 676.33 829.22 667.48 832.99 659.03 C 839.45 645.44 849.23 632.69 862.94 625.86 C 866.71 624.28 870.83 622.62 875.00 623.25 C 878.49 624.99 877.89 629.69 877.43 632.90 C 875.04 645.66 868.45 657.33 860.26 667.26 C 850.99 678.39 839.29 687.42 826.19 693.57 C 827.85 698.42 828.81 703.47 830.59 708.29 C 832.16 707.31 833.37 705.91 834.49 704.45 C 838.33 699.18 844.82 696.58 851.09 695.69 C 853.85 695.38 857.29 695.24 859.07 697.83 C 856.62 703.74 850.12 706.18 844.69 708.64 C 867.39 708.23 890.08 709.24 912.78 709.42 C 913.58 714.25 912.79 719.12 912.83 723.98 C 912.72 737.45 912.50 750.92 912.17 764.39 C 907.24 764.59 902.31 764.30 897.39 764.14 C 897.95 789.07 897.83 814.02 897.55 838.96 C 902.32 838.73 905.17 843.00 907.67 846.39 C 912.36 853.25 916.82 860.32 920.28 867.91 C 923.73 858.11 928.50 848.37 936.26 841.25 C 938.66 839.04 943.27 836.95 945.30 840.75 C 947.92 846.53 944.45 852.77 941.92 857.98 C 937.18 867.15 929.66 874.44 921.94 881.12 C 921.93 881.89 921.89 883.42 921.87 884.18 C 955.91 884.24 989.96 884.35 1024.00 884.48 L 1024.00 888.06 C 966.33 888.25 908.66 888.30 850.99 888.21 C 821.34 888.12 791.68 888.43 762.03 888.08 C 761.62 888.36 760.81 888.90 760.40 889.17 C 758.73 888.32 756.91 887.92 755.06 888.07 C 627.36 888.37 499.63 887.92 371.92 888.31 C 368.88 888.29 365.74 887.75 362.81 888.86 C 354.89 891.43 346.22 892.41 338.11 890.18 C 335.01 889.50 332.14 888.05 329.04 887.44 C 323.71 887.19 318.35 887.83 313.02 887.26 C 307.00 894.23 296.90 895.18 288.50 892.73 C 283.64 891.75 279.43 889.07 274.91 887.23 C 270.97 886.93 266.98 887.15 263.04 887.33 C 260.52 889.40 258.35 892.05 255.17 893.16 C 244.42 897.31 232.53 895.21 221.76 892.21 C 216.09 890.86 211.10 886.74 205.02 887.39 C 136.68 887.59 68.34 887.07 0.00 887.14 L 0.00 883.65 C 37.98 883.41 75.97 883.80 113.95 883.68 C 127.65 883.58 141.36 884.03 155.06 883.55 C 137.99 882.41 120.73 878.23 106.36 868.63 C 97.75 863.33 90.38 855.61 87.10 845.90 C 83.09 844.86 77.33 844.15 76.78 838.98 C 75.82 822.84 78.31 806.73 81.21 790.90 C 85.58 767.91 91.82 745.31 98.98 723.05 C 106.55 699.02 115.40 675.40 125.10 652.16 C 139.75 617.73 156.29 583.99 176.48 552.44 C 196.43 521.17 219.18 491.65 244.67 464.68 C 261.69 446.97 282.87 433.58 305.60 424.43 C 317.63 419.63 329.86 415.28 342.27 411.59 C 341.81 407.78 341.43 403.92 342.32 400.14 C 340.76 400.80 338.66 400.92 338.10 398.91 C 333.48 387.17 330.81 374.60 330.43 361.98 C 330.08 347.75 333.46 332.86 342.73 321.73 C 347.43 315.47 354.44 310.51 356.46 302.59 C 358.07 296.22 354.83 290.14 352.82 284.27 C 349.83 276.10 348.85 266.69 352.53 258.57 C 356.45 250.02 365.06 244.53 373.92 242.21 C 386.69 238.66 400.90 241.62 411.48 249.52 C 408.72 242.61 405.89 235.54 405.52 228.03 C 405.55 225.66 406.03 222.17 408.96 221.82 C 413.02 222.29 415.96 225.59 418.46 228.54 C 425.29 237.52 427.78 249.31 426.48 260.41 C 438.01 242.71 454.92 228.05 475.13 221.34 M 453.77 302.76 C 444.99 312.80 441.46 326.11 439.08 338.94 C 435.72 357.51 433.74 377.07 424.01 393.65 C 439.19 400.69 454.01 408.53 468.05 417.64 C 474.97 407.06 485.98 398.93 498.53 396.62 C 509.69 394.36 522.31 398.63 528.76 408.26 C 535.61 417.88 535.91 430.83 532.01 441.68 C 535.49 441.11 538.86 442.30 542.19 443.11 C 544.33 440.90 545.87 438.20 547.61 435.69 C 545.18 435.72 542.73 435.85 540.34 435.40 C 538.86 434.62 539.47 433.08 539.93 431.88 C 542.97 431.78 546.37 431.64 548.73 433.95 C 554.28 427.83 561.26 423.15 568.95 420.16 C 569.91 412.99 571.09 405.84 571.83 398.63 C 570.23 398.77 568.53 399.14 567.11 398.18 C 562.96 396.17 559.34 392.55 558.01 388.07 C 556.99 385.34 559.17 381.95 562.15 382.08 C 566.84 383.28 566.80 391.45 572.59 390.06 C 572.78 383.01 572.47 375.97 571.96 368.95 C 570.61 356.09 566.73 343.65 561.75 331.78 C 546.94 330.19 532.86 324.10 521.01 315.17 C 509.22 307.01 498.26 296.52 484.00 292.92 C 473.08 289.86 461.15 294.48 453.77 302.76 M 348.60 392.18 C 353.03 397.44 359.22 401.19 362.55 407.33 C 361.48 407.59 360.41 407.82 359.34 408.03 C 355.22 404.18 351.47 399.97 347.67 395.82 C 343.66 405.55 345.32 417.20 350.78 426.07 C 354.33 432.22 361.11 435.79 367.95 436.94 C 374.19 437.57 380.08 434.69 385.18 431.41 C 386.49 430.30 387.64 433.22 386.52 434.03 C 381.36 438.74 374.09 441.34 367.11 440.44 C 362.31 440.01 357.99 437.74 353.99 435.21 C 358.42 448.75 364.08 461.89 370.51 474.59 C 377.44 487.96 384.80 501.64 396.22 511.75 C 399.98 515.06 406.15 518.54 410.70 514.73 C 412.34 513.02 415.85 510.03 413.02 507.88 C 406.80 501.70 401.00 494.91 397.11 487.02 C 395.72 485.37 398.72 483.01 399.86 484.73 C 402.53 488.18 404.42 492.20 407.26 495.55 C 418.25 510.44 435.87 519.69 454.05 522.04 C 470.03 524.39 486.38 520.15 500.34 512.38 C 514.25 504.50 526.69 494.13 537.30 482.20 C 534.32 476.24 534.37 469.35 535.04 462.88 C 535.65 456.96 538.28 451.55 540.19 445.99 C 537.37 445.39 534.37 444.86 531.55 445.67 C 529.99 446.82 529.34 448.82 528.30 450.40 C 522.80 460.60 513.93 469.08 503.04 473.27 C 493.67 477.48 482.14 477.27 473.39 471.63 C 466.69 467.53 462.32 460.39 460.46 452.88 C 458.00 441.71 460.78 430.00 466.34 420.19 C 452.11 411.74 437.54 403.91 422.65 396.70 C 417.58 403.50 412.02 409.97 405.17 415.08 C 402.24 409.20 400.69 402.63 396.69 397.29 C 390.68 388.50 380.82 381.89 370.03 381.22 C 361.59 380.70 352.92 384.78 348.60 392.18 M 496.57 400.71 C 488.19 402.67 480.82 407.76 475.15 414.13 C 468.94 421.40 464.17 430.31 463.42 439.97 C 462.22 449.98 465.83 460.84 473.87 467.19 C 480.87 472.76 490.73 473.73 499.09 471.04 C 518.02 465.10 531.32 445.65 530.96 425.97 C 530.36 418.12 527.02 410.18 520.75 405.20 C 514.02 399.91 504.74 398.63 496.57 400.71 M 314.84 424.78 C 319.15 431.10 321.62 438.42 324.32 445.52 C 331.74 466.01 338.51 486.73 345.37 507.40 C 346.34 509.92 346.41 513.58 349.50 514.50 C 358.65 518.21 367.98 521.55 376.94 525.72 C 378.88 526.70 381.65 528.39 380.80 530.99 C 379.43 533.72 376.80 535.50 374.46 537.34 C 370.37 540.25 366.38 543.29 362.43 546.38 C 368.08 553.88 373.70 561.42 378.74 569.35 C 385.67 579.30 393.35 588.70 401.05 598.06 C 403.02 600.48 404.80 603.12 407.26 605.09 C 407.22 599.34 411.14 593.41 408.03 587.97 C 392.49 550.72 377.09 513.42 361.95 476.01 C 354.10 456.34 345.58 436.66 342.22 415.60 C 332.97 418.29 323.90 421.54 314.84 424.78 M 572.39 423.19 C 571.19 427.95 569.39 432.54 568.13 437.29 C 580.02 443.77 590.91 451.93 601.57 460.24 C 602.50 456.52 603.57 452.80 603.72 448.94 C 604.08 441.12 601.34 432.92 595.46 427.58 C 589.16 422.26 580.20 421.25 572.39 423.19 M 543.97 446.84 C 546.53 446.82 549.21 446.58 551.64 447.54 C 552.59 447.96 553.96 448.29 553.72 449.64 C 550.37 451.15 546.53 449.64 543.11 448.97 C 538.79 458.17 536.71 468.83 539.78 478.73 C 541.30 478.71 541.80 476.71 542.82 475.81 C 553.94 460.21 563.34 443.03 568.03 424.34 C 557.79 429.02 549.70 437.27 543.97 446.84 M 261.99 453.89 C 248.48 464.71 237.51 478.20 226.25 491.24 C 211.38 508.90 197.66 527.51 184.91 546.75 C 162.58 580.03 144.34 615.90 128.78 652.80 C 113.98 688.15 101.25 724.41 91.60 761.52 C 85.60 786.30 79.83 811.52 80.15 837.15 C 80.34 841.24 85.46 841.00 88.37 841.78 C 90.01 838.71 91.60 835.53 94.17 833.12 C 103.97 823.32 116.58 817.21 128.49 810.44 C 164.55 790.15 200.70 770.04 236.77 749.77 C 253.57 740.52 269.63 729.54 288.04 723.63 C 310.04 716.41 332.25 709.85 354.53 703.56 C 353.73 702.71 352.95 701.85 352.02 701.17 C 329.47 685.40 309.26 666.52 290.39 646.56 C 277.04 632.37 264.20 617.56 253.86 600.99 C 253.27 600.01 252.82 598.98 252.48 597.91 C 252.50 596.03 255.30 595.12 256.06 597.03 C 261.58 605.71 267.48 614.16 274.08 622.05 C 297.14 649.89 323.19 675.42 352.40 696.77 C 366.14 706.52 381.06 715.71 397.91 718.64 C 413.92 721.52 429.91 716.96 445.11 712.29 C 484.00 700.05 521.05 682.73 557.45 664.54 C 559.85 663.45 562.33 661.88 562.91 659.11 C 565.78 652.23 563.83 644.72 561.87 637.90 C 558.72 627.43 554.80 617.09 549.10 607.74 C 534.54 612.02 519.69 615.19 504.94 618.72 C 481.64 623.66 458.15 628.61 434.26 629.21 C 431.62 638.50 429.72 647.96 427.91 657.45 C 425.78 657.47 424.27 656.26 424.65 654.01 C 425.83 645.37 428.01 636.90 430.28 628.50 C 428.81 628.82 426.41 627.98 425.90 630.01 C 420.16 641.51 415.36 653.52 412.56 666.09 C 412.28 667.89 411.15 671.02 408.87 669.03 C 407.63 666.13 409.25 662.96 409.80 660.04 C 412.91 648.83 417.46 638.01 423.01 627.80 C 416.61 622.96 411.96 616.28 406.46 610.52 C 394.29 596.24 382.03 581.92 371.87 566.11 C 361.46 550.59 349.24 536.32 335.78 523.37 C 333.92 522.14 334.88 520.27 336.26 519.17 C 345.18 526.13 352.59 534.83 359.84 543.46 C 365.17 538.71 371.25 534.92 376.63 530.26 C 366.27 524.70 355.00 521.10 344.16 516.61 C 336.88 495.06 330.18 473.28 322.29 451.93 C 319.04 443.19 316.04 434.29 311.49 426.11 C 293.70 432.76 276.81 441.98 261.99 453.89 M 542.12 483.02 C 547.52 490.91 557.92 493.81 567.02 492.04 C 582.21 489.16 594.75 477.21 600.20 462.99 C 589.34 455.07 578.66 446.77 566.90 440.23 C 560.84 455.62 552.20 469.93 542.12 483.02 M 425.19 516.55 C 419.98 547.31 414.45 578.06 410.29 608.98 C 412.68 612.11 415.69 614.70 418.21 617.74 C 420.48 620.10 422.28 623.34 425.67 624.21 C 432.99 609.02 438.25 592.92 442.32 576.59 C 442.51 575.09 443.37 573.45 442.55 572.03 C 438.56 563.10 431.71 555.60 428.79 546.18 C 428.11 544.03 427.54 540.93 430.10 539.78 C 435.19 537.44 440.65 535.87 446.06 534.41 C 445.11 530.75 444.09 526.92 442.03 523.74 C 436.14 522.00 430.76 519.04 425.19 516.55 M 431.94 543.12 C 435.18 553.07 442.20 561.17 446.44 570.66 C 447.13 572.00 446.99 573.54 446.70 574.98 C 442.78 592.22 436.89 608.97 429.54 625.04 C 446.96 625.85 464.23 622.60 481.33 619.71 C 469.71 592.60 458.29 565.40 447.07 538.14 C 441.96 539.57 437.00 541.49 431.94 543.12 M 599.34 579.40 C 585.23 586.59 572.59 596.34 560.70 606.72 C 566.39 619.83 570.90 633.67 572.19 647.97 C 579.16 650.41 586.70 651.58 594.06 650.57 C 599.93 649.66 605.90 645.95 607.79 640.07 C 608.68 638.02 606.39 635.13 608.80 633.75 C 615.56 629.34 619.75 621.94 622.00 614.35 C 617.29 613.32 612.81 611.48 608.16 610.24 C 604.82 609.14 601.25 608.52 598.18 606.76 C 598.10 606.32 597.93 605.44 597.85 605.00 C 603.75 599.94 608.22 593.32 610.83 585.99 C 611.48 584.04 611.25 581.97 611.16 579.97 C 607.92 576.73 603.03 577.32 599.34 579.40 M 622.94 579.81 C 622.27 582.16 619.70 585.22 621.48 587.46 C 626.37 589.49 631.62 590.90 636.77 591.93 C 638.86 589.81 639.45 586.73 640.04 583.93 C 634.12 583.49 628.81 580.47 622.94 579.81 M 829.05 586.04 C 824.22 595.49 820.58 605.49 817.47 615.62 C 814.80 624.27 812.62 633.10 811.81 642.13 C 811.74 644.19 810.91 646.71 812.55 648.39 C 814.80 642.08 815.36 635.36 817.19 628.94 C 821.25 613.56 826.31 598.35 833.42 584.09 C 833.81 583.01 834.08 581.90 834.24 580.77 C 831.24 580.77 830.21 583.84 829.05 586.04 M 612.49 590.75 C 610.91 596.11 607.64 600.80 603.86 604.86 C 607.23 605.92 610.64 606.82 614.02 607.88 C 617.28 608.85 620.45 610.60 623.98 610.04 C 623.83 608.34 623.66 606.66 623.47 604.98 L 624.76 605.58 C 624.69 604.96 624.55 603.70 624.48 603.07 C 623.99 603.59 623.52 604.11 623.05 604.65 C 622.17 602.44 622.17 600.14 622.33 597.83 C 621.95 598.43 621.58 599.05 621.22 599.67 C 619.70 595.79 617.08 591.20 612.49 590.75 M 621.37 592.01 C 622.90 594.45 623.66 597.41 625.85 599.40 L 626.07 597.10 C 626.57 597.49 627.57 598.29 628.07 598.69 C 627.70 598.31 626.96 597.56 626.59 597.18 C 626.70 595.81 626.80 594.45 626.89 593.10 C 625.13 592.33 623.28 591.85 621.37 592.01 M 627.89 602.03 C 630.41 603.16 633.16 603.63 635.88 604.07 C 635.98 601.78 636.21 599.48 635.91 597.21 C 634.50 595.12 631.88 594.93 629.66 594.39 C 629.13 596.95 628.90 599.59 627.89 602.03 M 639.27 598.89 C 639.52 608.39 637.01 617.61 634.64 626.72 C 633.36 630.14 631.02 633.05 628.57 635.70 C 624.12 639.77 617.75 640.22 612.02 639.85 C 610.23 644.94 606.89 649.67 601.89 652.00 C 592.66 656.45 582.00 654.67 572.45 652.27 C 572.06 656.88 570.20 661.30 570.59 665.98 C 570.97 673.29 570.02 680.89 572.39 687.94 C 576.48 687.30 580.65 686.27 584.05 683.79 C 581.44 682.17 578.48 680.94 576.41 678.62 C 575.17 677.54 575.36 675.54 576.99 675.06 C 579.80 675.85 581.84 678.18 584.27 679.71 C 591.17 684.70 600.52 688.40 608.85 684.79 C 612.08 683.72 613.56 680.22 613.73 677.07 C 613.11 672.01 609.09 668.16 608.43 663.11 C 607.82 658.20 608.23 652.59 611.64 648.70 C 614.86 645.52 619.83 645.02 624.03 646.19 C 625.19 640.13 631.07 635.23 637.34 636.11 C 635.43 630.85 638.42 625.60 641.59 621.56 C 643.63 618.80 647.21 618.47 650.22 617.43 C 647.67 616.89 644.35 616.59 643.31 613.73 C 640.58 609.29 643.16 604.15 645.02 599.92 C 643.51 598.58 641.12 599.22 639.27 598.89 M 648.51 600.46 C 645.89 603.52 644.90 607.90 646.18 611.74 C 647.67 614.42 651.63 613.10 653.41 615.51 C 656.92 620.25 660.07 625.41 661.37 631.24 C 666.67 624.85 669.20 615.15 664.26 607.84 C 661.14 602.28 654.63 599.93 648.51 600.46 M 627.18 606.71 C 627.01 608.25 626.84 609.79 626.66 611.34 C 629.08 611.93 631.49 612.59 633.97 612.91 C 635.40 612.19 635.03 610.31 635.47 609.04 C 632.68 608.35 629.84 607.81 627.18 606.71 M 625.10 615.94 C 625.02 616.73 624.84 618.30 624.76 619.08 C 627.33 619.64 629.90 620.42 632.56 620.53 C 633.75 619.86 634.09 618.54 634.09 617.27 C 631.07 616.97 628.15 616.00 625.10 615.94 M 640.69 631.09 C 639.73 635.99 643.96 639.24 646.16 643.02 C 647.96 645.75 648.44 649.04 649.14 652.17 C 656.83 646.64 659.94 635.43 656.24 626.71 C 654.84 623.91 652.47 620.64 648.92 621.12 C 644.35 622.10 641.75 626.91 640.69 631.09 M 619.71 627.11 C 622.80 627.65 625.83 628.61 628.96 628.92 C 630.41 628.10 632.44 626.87 632.03 624.90 C 629.57 624.64 627.09 624.74 624.66 624.35 C 624.59 625.03 624.46 626.40 624.39 627.08 C 624.40 626.24 624.42 624.58 624.43 623.74 C 621.69 622.53 620.62 625.13 619.71 627.11 M 611.30 636.54 C 612.54 636.22 613.60 636.64 614.48 637.80 C 614.39 637.13 613.95 635.89 615.08 635.97 C 618.98 635.08 623.90 636.15 626.91 632.96 C 625.06 632.36 623.15 632.04 621.26 631.77 C 620.73 631.37 619.69 630.57 619.16 630.16 C 616.92 632.71 614.56 635.31 611.30 636.54 M 858.36 637.22 C 848.98 645.40 841.78 655.81 835.47 666.47 C 832.53 672.11 829.09 677.62 827.55 683.86 C 831.70 679.68 834.28 674.32 837.48 669.44 C 841.57 662.61 846.34 656.23 851.22 649.96 C 854.63 645.65 858.81 642.04 862.31 637.81 C 863.14 635.01 859.35 636.18 858.36 637.22 M 627.86 647.98 C 629.95 652.15 633.06 656.00 633.36 660.85 C 634.40 665.20 633.49 669.57 632.57 673.84 C 642.49 670.48 647.59 658.16 644.36 648.50 C 642.87 645.26 641.16 641.73 638.07 639.75 C 632.83 637.46 627.72 643.06 627.86 647.98 M 612.54 655.03 C 611.06 660.32 612.96 665.72 615.80 670.18 C 618.42 674.27 617.56 679.24 616.33 683.64 C 620.60 682.40 624.94 680.13 627.23 676.15 C 630.88 669.91 630.72 661.87 627.58 655.46 C 626.19 652.74 624.11 650.01 621.01 649.24 C 617.18 648.32 613.28 651.29 612.54 655.03 M 760.00 649.24 C 760.54 650.65 761.02 652.34 762.89 652.29 C 772.64 653.94 782.40 655.65 792.09 657.64 C 799.43 659.11 806.21 662.33 812.89 665.58 C 812.69 662.48 810.01 660.76 807.57 659.43 C 796.30 653.36 783.52 651.23 771.04 649.16 C 767.39 648.77 763.51 647.60 760.00 649.24 M 486.08 701.57 C 492.53 707.10 497.60 714.36 500.25 722.46 C 521.49 713.24 542.65 703.78 563.33 693.34 C 560.82 684.92 561.09 676.08 560.29 667.43 C 535.92 679.58 511.32 691.31 486.08 701.57 M 748.77 711.80 C 748.69 727.91 748.65 744.01 748.87 760.12 C 776.69 760.08 804.52 760.55 832.34 760.16 C 832.41 744.05 829.71 728.10 826.37 712.39 C 800.52 711.61 774.64 711.85 748.77 711.80 M 831.08 712.26 C 834.37 728.03 836.52 744.05 836.95 760.17 C 860.68 760.52 884.42 760.20 908.16 760.25 C 908.63 744.48 909.42 728.69 908.95 712.91 C 882.99 712.53 857.03 712.63 831.08 712.26 M 413.15 732.00 C 414.49 740.26 414.27 749.03 410.72 756.75 C 405.65 769.11 394.85 778.00 383.53 784.48 C 366.41 793.93 347.73 800.08 329.01 805.47 C 309.93 810.96 290.64 815.69 271.19 819.68 C 245.92 825.14 220.50 829.94 195.00 834.23 C 189.99 835.19 184.55 835.16 180.06 837.87 C 181.33 838.69 182.32 840.27 183.94 840.43 C 226.57 833.50 269.08 825.50 310.94 814.80 C 331.84 809.28 352.70 803.23 372.52 794.51 C 384.99 788.85 397.33 781.94 406.41 771.46 C 415.67 760.84 419.98 745.70 416.50 731.94 C 416.20 729.74 413.19 729.46 413.15 732.00 M 760.40 763.73 C 760.84 771.17 760.92 778.62 761.05 786.07 C 765.02 786.58 769.76 785.84 773.09 788.39 C 769.24 789.52 765.21 789.37 761.25 789.39 C 761.67 808.61 762.00 827.82 761.88 847.04 C 761.70 859.42 762.40 871.80 761.89 884.18 C 805.67 884.24 849.46 884.24 893.24 884.17 C 893.09 844.14 894.05 804.12 894.48 764.10 C 875.30 763.90 856.11 763.70 836.93 763.94 C 836.75 770.64 836.96 777.34 836.63 784.04 C 836.48 790.54 835.54 796.98 835.51 803.48 C 851.68 803.79 867.86 803.89 884.02 804.55 C 887.06 804.74 890.38 804.22 893.08 805.98 C 891.84 806.78 890.50 807.18 889.06 807.17 C 871.00 807.39 852.93 807.22 834.86 807.63 C 834.51 814.82 833.61 821.96 832.80 829.11 C 831.59 838.68 830.76 848.35 828.57 857.76 C 828.23 857.81 827.54 857.92 827.19 857.97 C 826.55 855.16 827.04 852.27 827.22 849.45 C 828.19 835.49 829.81 821.59 830.89 807.64 C 821.07 807.59 811.24 807.29 801.42 807.33 C 799.41 810.88 797.77 814.62 796.60 818.54 C 796.17 819.39 795.98 821.10 794.64 820.50 C 793.38 815.70 796.27 810.79 798.90 806.90 C 793.39 806.71 787.79 806.96 782.36 805.87 C 782.25 805.48 782.03 804.70 781.92 804.31 C 784.29 804.02 786.67 803.78 789.07 803.77 C 803.12 803.76 817.16 803.29 831.21 803.29 C 831.86 790.15 832.66 777.00 832.40 763.84 C 808.40 763.60 784.39 763.77 760.40 763.73 M 535.79 770.56 C 531.97 785.29 521.04 797.27 508.06 804.74 C 492.74 813.54 474.97 817.20 457.46 817.81 C 454.40 818.53 451.77 820.44 448.92 821.74 C 455.36 822.04 461.85 821.73 468.24 820.92 C 468.35 820.50 468.57 819.64 468.68 819.21 C 468.64 819.64 468.56 820.51 468.52 820.94 C 487.35 818.55 506.41 812.51 521.01 799.94 C 529.68 792.39 537.08 782.43 538.94 770.87 C 539.29 768.71 535.89 768.36 535.79 770.56 M 696.82 789.75 C 696.62 804.31 696.91 818.86 696.82 833.42 C 708.01 833.58 719.20 833.57 730.39 833.37 C 730.75 828.26 729.88 822.13 734.03 818.28 C 736.32 817.46 737.02 820.40 737.74 821.97 C 738.18 823.97 739.81 827.05 737.60 828.52 C 735.79 829.25 734.37 827.60 732.88 826.90 C 732.40 829.07 732.10 831.28 731.93 833.51 C 740.60 833.54 749.29 833.62 757.96 833.22 C 758.44 818.74 758.00 804.23 758.14 789.74 C 737.70 789.19 717.26 789.83 696.82 789.75 M 732.45 824.25 L 732.54 824.53 C 733.56 824.82 734.59 825.84 735.72 825.53 C 736.04 824.49 735.76 823.64 734.91 822.98 C 733.91 823.01 733.09 823.43 732.45 824.25 M 696.82 837.49 C 696.84 853.06 696.35 868.65 696.74 884.22 C 700.55 883.68 704.67 884.88 708.33 883.63 C 706.07 882.83 704.12 881.48 702.16 880.16 C 702.94 878.90 703.70 877.62 704.46 876.35 C 703.75 875.60 703.05 874.86 702.36 874.14 C 704.32 873.03 706.06 871.64 704.50 869.25 C 707.67 870.07 706.35 867.67 705.65 865.91 L 708.18 867.05 C 707.71 865.66 707.29 864.25 706.94 862.84 C 708.52 863.81 710.00 864.91 711.49 866.06 C 711.21 864.14 710.97 862.24 710.76 860.34 C 711.96 861.55 713.07 862.85 714.22 864.15 C 714.25 862.42 714.30 860.69 714.37 858.98 C 715.67 860.44 716.44 862.27 717.33 864.01 C 718.08 862.18 717.19 859.13 719.43 858.36 C 719.53 859.93 719.60 861.52 719.67 863.12 C 721.94 860.73 724.28 858.21 725.14 854.94 C 726.76 849.27 728.10 843.52 729.23 837.74 C 718.43 837.34 707.62 837.53 696.82 837.49 M 725.47 860.01 C 726.98 860.16 728.49 860.36 730.00 860.60 C 727.39 862.86 722.54 862.85 721.89 867.11 C 722.93 866.59 723.97 866.05 725.01 865.51 C 728.07 865.46 730.91 864.03 734.01 864.13 C 732.91 865.87 731.60 867.46 730.17 868.93 C 731.25 868.40 732.33 867.88 733.42 867.36 C 733.47 868.29 733.57 870.14 733.61 871.06 C 733.00 870.85 731.76 870.41 731.14 870.19 C 734.02 871.18 731.77 874.02 731.59 876.08 C 733.77 876.02 733.24 873.40 733.86 871.99 C 734.42 871.78 735.55 871.35 736.12 871.14 C 736.24 869.92 736.38 868.71 736.55 867.51 C 736.60 865.97 735.57 863.73 737.72 863.28 C 737.63 864.55 737.46 867.08 737.37 868.35 C 737.56 865.55 739.92 866.36 741.55 866.12 C 742.92 865.30 744.13 864.22 745.51 863.40 C 745.70 865.04 744.94 866.57 744.46 868.11 C 745.31 867.40 746.17 866.71 747.04 866.02 C 747.43 866.44 748.20 867.29 748.59 867.72 C 749.40 866.57 749.99 865.14 751.46 864.65 C 751.30 866.54 750.55 868.29 749.90 870.06 C 752.04 868.39 754.72 868.07 757.34 867.80 C 756.58 869.62 755.65 871.36 754.69 873.09 C 755.39 872.94 756.80 872.64 757.50 872.50 C 757.29 874.31 756.48 875.84 754.90 876.80 C 758.95 875.59 756.51 877.93 755.58 878.63 C 756.04 878.56 756.98 878.42 757.45 878.35 C 757.21 879.10 756.72 880.61 756.47 881.36 C 754.02 881.76 751.59 882.26 749.13 882.57 C 747.84 882.78 746.54 882.96 745.26 883.11 L 745.55 882.41 C 744.27 883.00 742.99 883.57 741.80 884.33 C 747.14 883.12 752.58 884.31 757.97 884.16 C 757.80 879.10 757.33 874.04 757.69 868.98 C 758.47 858.54 757.97 848.07 758.18 837.62 C 749.37 837.79 740.55 837.60 731.73 837.78 C 730.11 845.28 729.87 853.44 725.47 860.01 M 160.01 840.95 C 163.14 851.01 168.19 861.37 177.15 867.41 C 177.83 864.70 175.50 862.91 174.12 860.95 C 168.68 854.30 164.48 846.74 161.00 838.91 C 160.75 839.42 160.26 840.44 160.01 840.95 M 166.27 841.95 C 170.46 849.37 175.36 856.46 181.55 862.37 C 193.32 873.94 207.36 883.69 223.17 888.75 C 232.13 891.26 241.82 893.15 250.99 890.68 C 255.63 889.23 261.29 885.76 260.40 880.10 C 259.12 875.65 256.64 871.60 254.03 867.81 C 239.80 870.40 224.79 869.83 211.16 864.70 C 199.75 860.53 188.68 852.98 183.92 841.38 C 181.98 841.45 179.98 841.23 178.11 841.84 C 176.52 842.62 175.46 844.12 174.03 845.14 C 170.89 846.00 169.32 841.86 166.27 841.95 M 898.95 841.45 C 898.94 847.83 901.16 854.10 904.52 859.47 C 908.30 865.96 914.23 870.68 919.50 875.88 C 918.65 866.53 912.69 858.88 907.73 851.30 C 905.14 847.77 902.99 843.51 898.95 841.45 M 939.46 843.38 C 931.41 850.31 926.71 860.14 922.65 869.76 C 921.53 872.12 922.00 874.80 922.06 877.33 C 928.66 871.47 934.44 864.56 938.84 856.89 C 941.02 852.60 943.40 847.95 943.04 843.01 C 942.49 840.78 940.48 842.64 939.46 843.38 M 897.30 849.90 C 897.25 859.06 896.91 868.24 897.38 877.39 C 901.14 878.95 904.88 880.61 908.40 882.69 C 911.75 885.01 916.04 883.96 919.86 884.13 C 920.81 878.67 915.53 876.00 912.32 872.68 C 905.50 866.52 899.92 858.79 897.30 849.90 M 260.05 869.51 C 263.30 874.09 268.00 877.34 272.45 880.66 C 280.09 886.23 289.19 890.75 298.88 890.30 C 303.46 889.89 309.29 887.90 310.45 882.87 C 310.48 879.83 309.46 876.21 306.99 874.31 C 291.30 875.42 274.89 875.35 260.05 869.51 M 315.71 873.23 C 321.99 877.74 328.08 882.78 335.46 885.39 C 342.31 888.07 349.88 887.85 357.02 886.60 C 346.17 883.13 334.95 879.02 327.08 870.37 C 323.43 871.88 319.35 871.75 315.71 873.23 M 729.33 883.51 C 730.06 883.90 730.80 884.31 731.55 884.73 C 731.92 883.49 732.30 882.28 732.63 881.05 C 731.23 881.39 730.32 882.55 729.33 883.51 M 897.10 882.61 C 895.88 884.55 900.76 885.08 900.75 883.25 C 899.83 882.36 898.22 882.00 897.10 882.61 Z" />
<path fill="#333F70" opacity="1.00" d=" M 497.54 367.67 C 501.06 365.73 504.56 370.96 501.82 373.68 C 497.92 377.21 492.66 378.80 487.89 380.83 C 483.63 382.04 478.56 384.21 474.39 381.74 C 471.53 380.24 472.65 375.30 475.89 375.41 C 483.83 375.76 490.82 371.28 497.54 367.67 Z" />
<path fill="#333F70" opacity="1.00" d=" M 358.20 396.65 C 362.11 393.01 367.71 390.48 373.09 392.09 C 382.18 394.62 388.12 403.95 388.72 413.05 C 389.14 414.96 386.75 415.75 385.40 414.73 C 384.26 411.65 384.07 408.28 382.64 405.30 C 380.57 400.89 376.76 397.06 371.97 395.79 C 367.82 394.77 363.91 396.99 360.38 398.87 C 359.84 398.32 358.75 397.21 358.20 396.65 Z" />
<path fill="#333F70" opacity="1.00" d=" M 367.13 411.26 C 372.45 410.35 377.89 411.02 383.26 411.07 C 383.24 412.35 383.21 414.21 381.49 414.28 C 377.43 414.78 373.32 414.49 369.24 414.80 C 368.33 418.90 367.04 422.90 366.20 427.01 C 367.82 429.22 370.89 429.47 372.93 431.17 C 373.59 433.12 371.09 434.67 369.50 433.55 C 366.60 432.10 363.19 430.85 361.35 428.05 C 363.55 422.56 363.81 416.21 367.13 411.26 Z" />
<path fill="#333F70" opacity="1.00" d=" M 484.05 431.71 C 483.84 429.90 484.92 428.27 486.96 428.90 C 494.96 430.54 503.03 431.85 511.01 433.60 C 512.08 433.93 514.53 434.28 513.70 436.00 C 513.09 438.11 510.44 437.01 508.93 436.89 C 500.66 435.07 492.20 434.04 484.05 431.71 Z" />
<path fill="#333F70" opacity="1.00" d=" M 435.36 435.51 C 437.17 433.94 440.19 434.94 441.05 437.08 C 442.67 440.02 439.39 444.14 436.15 442.74 C 433.11 441.73 432.97 437.28 435.36 435.51 Z" />
<path fill="#333F70" opacity="1.00" d=" M 531.05 450.70 C 531.82 450.77 533.37 450.90 534.14 450.96 C 533.44 456.30 532.30 461.60 532.23 467.00 C 531.97 470.94 532.59 475.06 531.19 478.84 C 524.37 480.15 517.69 482.21 510.85 483.42 C 509.03 483.34 509.06 481.66 508.87 480.30 C 515.28 478.85 521.54 476.71 528.05 475.76 C 528.57 467.37 529.00 458.89 531.05 450.70 Z" />
<path fill="#333F70" opacity="1.00" d=" M 444.86 457.95 C 444.03 456.14 445.53 453.16 447.69 454.41 C 449.73 457.97 449.84 462.25 451.29 466.05 C 455.51 478.19 463.03 489.68 474.25 496.37 C 473.56 497.27 473.22 498.66 472.00 498.99 C 470.05 498.61 468.51 497.26 466.94 496.16 C 454.98 486.91 447.58 472.64 444.86 457.95 Z" />
<path fill="#333F70" opacity="1.00" d=" M 263.07 472.82 C 273.53 469.53 285.63 473.03 292.99 481.06 C 295.05 482.68 291.90 485.83 290.32 483.69 C 284.39 478.71 276.84 475.11 268.92 476.00 C 257.89 477.05 248.26 484.16 242.20 493.17 C 238.01 499.08 235.73 506.03 233.55 512.87 C 232.93 512.86 231.68 512.84 231.06 512.83 C 229.69 509.79 231.82 506.58 232.57 503.63 C 237.39 489.53 248.38 476.85 263.07 472.82 Z" />
<path fill="#333F70" opacity="1.00" d=" M 750.34 520.21 C 752.32 516.88 753.07 511.66 757.01 510.26 C 760.02 513.01 761.74 516.81 763.62 520.36 C 766.89 527.04 769.41 534.69 767.79 542.18 C 766.05 549.45 760.83 555.02 756.70 560.98 C 764.45 560.83 772.21 560.59 779.97 560.25 C 784.82 560.10 789.54 558.17 794.43 558.86 C 794.10 560.18 793.47 561.64 791.96 561.90 C 788.57 563.05 784.98 563.42 781.45 563.89 C 784.21 570.50 786.39 577.76 785.48 584.99 C 784.72 590.51 780.03 596.16 773.96 595.09 C 762.15 593.15 751.31 587.35 742.02 579.95 C 743.13 588.62 743.12 597.40 742.37 606.10 C 741.72 611.24 741.15 616.75 737.89 621.00 C 734.49 624.87 728.65 625.90 723.91 624.11 C 716.91 621.47 711.45 615.78 707.91 609.30 C 705.18 612.64 703.49 617.02 700.04 619.64 C 699.56 619.27 698.61 618.53 698.14 618.16 C 699.49 614.81 702.23 612.31 704.38 609.46 C 709.65 602.53 714.85 595.42 718.51 587.47 C 719.95 584.59 722.31 582.36 724.42 579.97 C 718.48 583.63 712.06 587.66 704.92 587.98 C 696.32 587.00 690.73 579.40 685.89 572.98 C 683.34 569.24 680.20 565.69 679.08 561.20 C 680.66 560.77 682.27 560.36 683.93 560.30 C 698.85 559.77 714.01 559.87 728.49 563.90 C 728.25 564.28 727.75 565.05 727.51 565.44 C 725.41 566.04 723.22 566.48 721.11 565.73 C 721.57 564.68 723.06 564.93 724.00 564.59 C 721.40 564.13 718.98 562.79 716.24 563.39 C 717.35 563.61 721.46 564.08 719.61 565.68 C 715.24 564.14 710.61 563.90 706.05 563.44 C 705.01 563.48 702.98 562.76 703.28 564.53 C 704.53 566.49 706.85 567.31 708.88 568.22 C 717.00 571.08 725.61 572.51 734.23 572.25 C 732.38 573.05 730.51 573.80 728.65 574.53 C 728.33 576.42 727.12 578.10 725.11 578.37 L 725.22 579.04 C 726.48 578.46 728.04 578.17 728.86 576.92 C 730.29 574.93 732.90 574.74 735.00 573.84 C 736.22 573.73 736.78 572.09 735.79 571.31 C 733.20 568.97 730.00 567.39 726.52 566.95 C 726.77 566.61 727.25 565.91 727.49 565.57 C 729.46 565.03 731.48 564.85 733.54 564.92 C 732.60 563.69 731.72 562.03 729.99 561.90 C 723.48 561.50 718.22 553.80 720.96 547.74 C 723.26 550.57 722.64 554.91 725.55 557.38 C 726.67 558.75 728.47 559.02 730.07 559.56 C 732.43 560.25 734.48 561.73 736.93 562.20 C 736.80 561.60 736.55 560.40 736.42 559.80 C 733.16 558.70 733.45 554.83 733.72 552.06 C 734.40 547.81 731.88 543.97 731.90 539.77 C 733.11 540.03 734.27 540.67 734.60 541.98 C 736.20 546.03 735.77 550.47 736.71 554.66 C 733.94 554.27 736.22 557.16 736.59 558.22 C 736.42 557.51 736.08 556.10 735.91 555.39 C 736.37 555.32 737.28 555.18 737.74 555.10 C 741.41 543.30 745.23 531.49 750.34 520.21 M 755.10 517.59 C 753.96 521.35 752.02 524.77 750.40 528.33 C 749.13 530.57 751.41 532.43 752.45 534.20 C 755.51 532.35 757.50 529.30 760.01 526.83 C 758.55 523.66 756.84 520.61 755.10 517.59 M 752.69 538.05 C 750.82 543.38 749.81 549.00 747.44 554.18 L 748.99 554.43 C 748.54 554.40 747.66 554.34 747.22 554.31 C 746.37 557.30 745.16 560.16 743.97 563.02 L 742.82 562.15 C 745.25 554.87 746.89 547.36 749.24 540.05 C 750.02 537.96 749.41 535.78 748.74 533.76 C 745.15 542.60 742.79 551.87 739.58 560.85 C 739.14 562.49 738.24 564.83 740.06 565.95 C 741.79 566.33 742.21 564.74 742.70 563.48 C 743.10 563.44 743.92 563.36 744.33 563.32 C 748.48 559.80 751.85 555.46 755.96 551.89 C 759.02 549.06 762.96 546.78 764.32 542.58 C 761.00 543.36 758.17 545.34 754.99 546.44 C 754.55 546.17 753.68 545.63 753.24 545.36 C 756.10 542.14 760.25 540.74 764.28 539.67 C 763.71 535.98 762.57 532.41 761.29 528.91 C 759.17 532.63 755.84 535.30 752.69 538.05 M 742.93 570.99 C 747.31 568.32 752.31 565.12 753.62 559.82 C 749.75 563.09 743.43 565.22 742.93 570.99 M 684.92 563.51 C 689.44 569.23 692.64 575.97 697.89 581.10 C 700.34 583.58 704.26 585.56 707.66 583.72 C 714.08 580.50 721.09 578.34 727.08 574.32 C 723.40 574.04 719.72 573.97 716.04 573.79 C 712.90 575.53 709.39 576.50 706.37 578.48 C 704.86 579.31 703.33 580.63 701.46 580.11 C 704.48 575.48 710.41 574.32 715.29 572.56 C 711.65 572.29 708.03 571.78 704.39 571.83 C 704.84 572.26 705.31 572.70 705.79 573.13 L 703.74 574.03 C 704.02 573.60 704.58 572.76 704.86 572.34 C 703.99 572.17 702.26 571.82 701.39 571.64 C 701.44 572.24 701.53 573.44 701.57 574.04 C 701.50 573.60 701.36 572.73 701.29 572.29 C 698.54 572.65 695.75 573.19 693.00 572.53 C 696.93 570.90 701.15 570.36 705.35 569.95 C 703.77 567.39 700.61 567.19 697.92 567.37 C 696.25 567.20 693.49 568.06 693.25 565.50 C 695.52 565.09 697.83 564.92 700.12 564.59 C 695.49 561.97 689.93 564.70 684.92 563.51 M 752.58 567.45 C 751.06 568.51 749.42 569.41 747.82 570.34 C 748.06 570.66 748.53 571.32 748.76 571.64 C 748.41 571.51 747.70 571.23 747.34 571.10 C 746.23 572.04 745.13 572.98 744.03 573.93 C 745.86 575.85 748.63 575.07 750.95 574.86 C 755.90 573.74 758.59 568.87 759.93 564.37 C 759.34 564.26 758.15 564.04 757.56 563.93 C 757.56 564.68 757.58 566.18 757.58 566.93 C 757.47 565.85 757.37 564.78 757.28 563.71 C 755.03 563.96 754.09 566.10 752.58 567.45 M 765.39 563.91 C 764.78 565.69 764.32 567.67 762.77 568.91 C 763.32 570.00 763.91 571.08 764.57 572.13 C 764.00 571.88 762.85 571.37 762.28 571.12 C 761.29 573.18 757.43 574.94 758.75 577.32 C 762.28 579.44 765.61 581.87 768.90 584.34 C 769.19 582.16 769.49 579.98 769.59 577.79 C 769.07 578.21 768.02 579.05 767.49 579.47 C 764.93 577.41 761.54 577.42 758.50 576.61 C 761.60 573.68 766.06 577.03 769.80 576.29 C 769.67 572.54 769.96 568.78 769.60 565.04 C 769.50 562.84 766.76 564.00 765.39 563.91 M 730.34 578.20 C 725.27 580.83 720.95 585.55 719.86 591.27 C 722.23 590.39 723.95 588.48 725.75 586.80 C 728.61 583.82 731.92 581.28 734.51 578.05 C 734.78 578.20 735.33 578.52 735.60 578.67 C 735.51 578.02 735.32 576.71 735.23 576.06 C 733.60 576.78 731.98 577.51 730.34 578.20 M 746.94 578.75 C 749.44 581.54 752.98 582.99 756.20 584.77 C 759.74 586.46 763.23 588.51 767.19 589.04 C 765.83 583.23 759.09 581.52 755.03 577.96 C 752.31 578.01 749.61 578.30 746.94 578.75 M 727.81 587.81 C 725.74 589.43 723.20 590.57 721.81 592.91 C 724.73 593.01 727.87 592.85 730.51 591.46 C 734.49 588.44 738.17 584.03 738.10 578.77 C 734.63 581.74 731.58 585.20 727.81 587.81 M 775.39 578.85 C 774.46 582.08 773.47 585.39 773.85 588.80 C 777.03 586.97 780.43 580.39 775.39 578.85 M 733.02 594.08 C 733.97 595.14 735.13 595.77 736.51 595.98 C 736.50 596.05 736.49 596.19 736.48 596.27 L 735.09 596.12 C 734.94 599.73 735.58 603.31 736.84 606.70 C 739.61 606.32 739.54 603.15 739.74 600.99 C 739.73 595.53 740.09 590.06 739.97 584.60 C 737.74 587.82 736.60 592.02 733.02 594.08 M 712.87 603.09 C 719.11 608.30 727.98 608.32 735.65 607.41 C 734.47 603.65 732.42 600.01 732.30 595.91 C 729.12 597.48 729.15 601.86 727.85 604.82 C 725.27 602.92 727.27 599.42 727.13 596.84 C 725.60 595.14 723.89 598.98 721.99 597.85 C 720.63 596.90 719.64 595.41 718.03 594.88 C 715.65 597.11 714.39 600.26 712.87 603.09 M 723.89 613.15 C 722.09 615.84 725.99 616.79 727.96 616.77 C 729.86 616.83 733.66 616.92 733.16 613.99 C 730.22 612.90 726.97 612.65 723.89 613.15 Z" />
<path fill="#333F70" opacity="1.00" d=" M 236.20 592.78 C 236.88 592.40 238.24 591.63 238.91 591.25 C 240.50 592.72 241.42 594.73 242.48 596.59 C 248.21 607.35 255.28 617.46 263.86 626.16 C 265.01 627.39 266.24 628.58 267.14 630.04 C 267.47 632.04 264.61 633.42 263.44 631.61 C 252.23 620.40 242.36 607.47 236.20 592.78 Z" />
<path fill="#333F70" opacity="1.00" d=" M 221.04 647.13 C 228.29 645.28 235.65 647.79 242.84 648.78 C 250.14 650.40 257.77 650.59 264.89 652.93 C 270.64 655.02 275.83 660.59 275.01 667.07 C 274.20 674.76 272.61 682.36 271.82 690.06 C 271.44 693.64 270.87 697.53 268.32 700.28 C 265.50 703.43 261.03 704.17 257.01 704.28 C 246.12 704.55 235.24 702.99 224.63 700.61 C 219.82 699.25 214.34 697.91 211.30 693.57 C 208.59 689.58 209.61 684.48 210.20 680.03 C 211.65 671.72 212.06 663.25 213.97 655.02 C 214.66 651.35 217.50 648.25 221.04 647.13 M 223.54 650.69 C 220.36 650.82 218.18 653.57 217.68 656.52 C 216.16 663.88 215.65 671.40 214.31 678.80 C 213.71 682.74 212.65 686.95 214.18 690.82 C 215.76 693.68 219.03 694.87 221.97 695.83 C 232.36 698.86 243.18 700.24 253.97 700.62 C 257.70 700.48 262.02 700.64 264.97 697.97 C 267.87 695.06 267.69 690.69 268.18 686.92 C 268.86 679.89 270.65 673.00 271.16 665.96 C 271.29 660.45 265.87 656.74 260.95 655.83 C 253.82 654.47 246.58 653.75 239.46 652.25 C 234.18 651.61 228.89 649.72 223.54 650.69 Z" />
<path fill="#333F70" opacity="1.00" d=" M 850.00 779.12 C 852.33 779.21 853.49 781.58 854.75 783.22 C 856.81 786.26 858.37 789.80 857.89 793.56 C 854.44 791.67 853.87 787.28 851.52 784.39 C 850.89 782.76 848.06 780.70 850.00 779.12 Z" />
<path fill="#333F70" opacity="1.00" d=" M 804.90 790.05 C 807.11 785.97 810.32 781.58 815.12 780.57 C 814.88 782.27 814.37 783.97 813.01 785.14 C 810.46 787.62 808.64 790.67 806.63 793.58 C 804.12 795.35 804.00 791.45 804.90 790.05 Z" />
<path fill="#333F70" opacity="1.00" d=" M 731.04 807.98 C 732.32 808.13 734.09 807.71 734.68 809.26 C 735.58 810.86 734.64 812.77 734.03 814.33 C 731.46 813.23 730.02 810.68 731.04 807.98 Z" />
<path fill="#333F70" opacity="1.00" d=" M 735.82 810.29 C 738.70 810.81 742.52 811.23 744.14 814.00 C 744.80 816.42 741.55 816.18 740.06 816.50 C 737.31 815.87 735.46 813.07 735.82 810.29 Z" />
<path fill="#333F70" opacity="1.00" d=" M 855.43 811.92 C 855.30 809.48 858.29 811.00 858.75 812.29 C 862.78 818.56 865.95 825.65 866.71 833.13 C 864.19 832.15 864.18 829.09 863.03 827.02 C 861.15 821.66 857.55 817.14 855.43 811.92 Z" />
<path fill="#333F70" opacity="1.00" d=" M 722.52 816.58 C 724.23 815.52 725.83 813.78 728.01 813.93 C 729.71 813.65 730.82 815.25 732.13 816.05 C 731.81 817.61 731.49 819.17 731.18 820.74 C 730.39 820.89 728.82 821.20 728.03 821.35 C 727.12 820.41 726.16 819.56 725.06 818.90 C 725.57 819.38 726.58 820.34 727.09 820.82 C 725.94 822.40 724.92 824.11 723.53 825.52 C 722.34 826.60 720.76 825.29 719.52 825.05 C 719.87 824.26 720.23 823.48 720.59 822.72 C 720.11 822.31 719.14 821.51 718.65 821.11 C 718.66 818.77 720.96 817.81 722.52 816.58 Z" />
<path fill="#333F70" opacity="1.00" d=" M 984.85 819.88 C 985.84 816.96 989.70 817.39 992.12 816.73 C 995.23 816.57 999.55 815.16 1001.80 817.94 C 996.34 819.57 990.55 820.81 984.85 819.88 Z" />
<path fill="#333F70" opacity="1.00" d=" M 822.04 822.96 C 822.29 821.48 822.89 820.11 823.71 818.87 C 827.10 820.44 825.36 824.10 824.63 826.72 C 821.80 835.48 818.81 844.68 812.52 851.64 C 811.62 852.65 808.77 854.51 808.59 851.99 C 809.92 849.59 812.20 847.89 813.61 845.53 C 817.96 838.68 820.19 830.77 822.04 822.96 Z" />
<path fill="#333F70" opacity="1.00" d=" M 741.18 821.30 C 745.14 819.87 746.70 825.59 747.38 828.49 C 745.89 828.13 743.44 828.94 742.78 827.07 C 741.91 825.27 740.89 823.35 741.18 821.30 Z" />
<path fill="#333F70" opacity="1.00" d=" M 835.53 823.49 C 836.13 823.50 837.34 823.51 837.94 823.52 C 840.45 829.71 841.15 836.52 841.70 843.13 C 839.44 842.56 839.34 839.85 838.65 838.06 C 837.58 833.21 835.84 828.46 835.53 823.49 Z" />
<path fill="#333F70" opacity="1.00" d=" M 925.08 827.26 C 927.80 825.67 933.08 830.64 928.83 832.30 C 925.82 834.14 922.14 829.55 925.08 827.26 Z" />
<path fill="#333F70" opacity="1.00" d=" M 911.46 839.48 C 913.37 837.31 916.68 840.50 914.59 842.49 C 912.69 843.43 910.51 841.39 911.46 839.48 Z" />
<path fill="#333F70" opacity="1.00" d=" M 742.80 847.60 C 743.11 847.26 743.73 846.59 744.04 846.25 C 744.69 852.80 742.95 859.41 741.13 865.66 C 740.54 865.04 739.96 864.43 739.40 863.82 C 740.74 858.46 741.62 852.98 742.80 847.60 Z" />
<path fill="#333F70" opacity="1.00" d=" M 539.98 875.19 C 541.95 874.65 543.48 876.27 545.09 877.09 C 546.72 878.17 548.74 878.93 549.74 880.74 C 548.21 883.47 544.83 881.44 542.97 880.14 C 541.63 878.89 538.70 877.35 539.98 875.19 Z" />
<path fill="#333F70" opacity="1.00" d=" M 961.97 896.95 C 962.55 895.39 964.51 895.16 965.64 896.31 C 966.79 898.36 967.44 900.64 968.26 902.84 C 968.71 903.09 969.61 903.59 970.06 903.84 C 970.41 907.07 970.60 910.30 970.91 913.55 C 976.74 907.33 981.71 899.26 990.16 896.41 C 992.58 896.55 991.49 899.37 990.16 900.19 C 983.10 906.55 977.09 913.98 971.83 921.88 C 970.55 923.20 969.42 926.41 967.11 925.07 C 964.73 924.12 966.02 920.96 965.92 919.06 C 966.29 915.20 965.67 911.35 965.17 907.54 C 963.36 908.03 961.11 907.52 960.47 905.57 C 959.59 902.68 960.62 899.52 961.97 896.95 Z" />
<path fill="#333F70" opacity="1.00" d=" M 611.22 896.90 C 613.39 899.14 614.26 902.09 614.44 905.16 C 615.13 910.95 622.87 911.83 624.30 917.20 C 620.33 917.08 617.11 914.28 614.08 912.01 C 609.65 908.25 611.63 901.92 611.22 896.90 Z" />
<path fill="#333F70" opacity="1.00" d=" M 44.25 901.10 C 46.74 899.20 48.91 902.14 50.90 903.36 C 53.05 902.00 55.49 900.82 58.00 902.08 C 58.00 906.10 53.73 908.23 51.02 910.59 C 49.44 909.60 48.21 908.24 47.12 906.76 C 45.71 907.87 43.57 910.17 41.83 908.26 C 39.30 905.94 42.17 902.57 44.25 901.10 Z" />
<path fill="#333F70" opacity="1.00" d=" M 92.47 905.38 C 94.93 903.32 97.29 900.76 100.70 900.49 C 100.42 902.01 99.75 903.44 98.61 904.52 C 94.36 908.98 90.08 913.47 86.26 918.30 C 86.20 918.67 86.09 919.41 86.03 919.78 C 92.25 916.61 98.52 913.47 105.15 911.23 C 104.83 912.64 104.17 913.97 102.94 914.82 C 98.06 918.70 92.72 922.06 86.97 924.49 C 85.05 925.28 82.39 925.88 80.82 924.12 C 79.12 922.42 80.10 919.86 81.08 918.08 C 84.01 913.15 88.16 909.09 92.47 905.38 Z" />
<path fill="#333F70" opacity="1.00" d=" M 436.69 900.42 C 440.37 902.24 439.28 907.56 440.49 910.94 C 445.97 909.88 451.57 909.45 457.00 908.07 C 460.22 907.27 463.44 906.31 466.80 906.25 C 467.37 908.27 465.31 909.16 463.91 909.89 C 456.84 913.24 448.91 913.61 441.25 914.39 C 441.48 916.66 441.64 918.96 441.07 921.22 C 438.56 920.68 439.07 917.78 438.67 915.89 C 438.32 910.69 437.06 905.61 436.69 900.42 Z" />
<path fill="#333F70" opacity="1.00" d=" M 643.80 911.94 C 648.07 906.06 655.20 903.31 662.00 901.59 C 663.66 900.95 665.40 901.37 667.03 901.95 C 661.00 906.88 652.40 908.04 647.15 914.20 C 645.47 915.37 644.01 918.99 641.68 917.54 C 641.28 915.42 642.71 913.59 643.80 911.94 Z" />
<path fill="#333F70" opacity="1.00" d=" M 553.00 908.01 C 555.74 906.34 558.53 903.80 561.98 904.35 C 561.14 906.58 559.00 907.82 557.31 909.36 C 551.34 914.37 546.69 920.84 543.60 927.98 C 542.98 929.70 540.29 928.72 540.40 927.06 C 541.57 919.26 546.89 912.67 553.00 908.01 Z" />
<path fill="#333F70" opacity="1.00" d=" M 752.04 907.39 C 754.73 908.81 757.78 909.92 759.79 912.34 C 759.72 912.62 759.57 913.20 759.49 913.49 C 756.43 912.72 752.60 910.79 752.04 907.39 Z" />
<path fill="#333F70" opacity="1.00" d=" M 521.40 914.42 C 523.22 912.73 523.72 909.56 526.09 908.67 C 530.59 908.76 535.04 910.76 538.45 913.67 C 539.61 914.39 539.73 915.75 540.01 916.97 C 535.54 917.01 532.15 913.47 527.84 912.68 C 524.94 917.75 520.26 922.48 513.98 922.32 C 512.23 922.10 508.75 922.75 508.98 920.08 C 513.21 918.48 518.31 918.19 521.40 914.42 Z" />
<path fill="#333F70" opacity="1.00" d=" M 902.92 911.31 C 907.47 911.53 911.66 914.10 915.15 916.89 C 910.50 917.92 906.25 914.16 902.92 911.31 Z" />
<path fill="#333F70" opacity="1.00" d=" M 803.09 916.19 C 815.79 914.95 828.59 916.40 841.07 918.73 C 846.91 920.25 853.29 921.33 858.13 925.19 C 860.33 928.11 856.53 930.49 853.92 930.68 C 841.32 932.19 828.60 930.59 816.06 929.19 C 809.80 928.59 803.53 927.52 797.60 925.38 C 795.51 924.44 792.77 922.68 793.33 920.01 C 795.38 916.82 799.72 916.76 803.09 916.19 M 795.36 921.68 C 801.61 924.39 808.25 926.14 815.01 927.00 C 827.00 928.30 839.05 929.83 851.13 928.93 C 853.31 928.70 855.56 928.05 857.01 926.28 C 849.69 925.36 842.28 926.24 834.94 925.54 C 823.56 924.51 812.04 923.70 801.04 920.44 C 799.12 919.97 796.32 919.40 795.36 921.68 Z" />
<path fill="#333F70" opacity="1.00" d=" M 116.14 918.16 C 118.80 917.41 122.74 921.46 119.60 923.51 C 116.40 925.93 112.29 919.75 116.14 918.16 Z" />
<path fill="#333F70" opacity="1.00" d=" M 378.65 919.90 C 382.29 920.06 385.90 919.44 389.54 919.59 C 388.16 923.66 381.31 926.25 378.73 922.11 C 378.71 921.55 378.67 920.45 378.65 919.90 Z" />
<path fill="#333F70" opacity="1.00" d=" M 289.58 922.59 C 292.55 921.53 294.81 926.26 292.02 927.86 C 289.08 928.83 287.61 924.34 289.58 922.59 Z" />
<path fill="#333F70" opacity="1.00" d=" M 320.53 929.64 C 327.90 930.33 335.35 931.59 342.24 934.37 C 338.87 937.74 333.38 936.96 329.07 936.43 C 325.48 935.74 320.15 934.26 320.53 929.64 Z" />
<path fill="#333F70" opacity="1.00" d=" M 895.98 932.20 C 899.43 931.83 902.73 933.02 905.98 934.03 C 912.26 936.14 918.51 938.45 924.38 941.56 C 925.51 942.09 926.62 942.82 927.92 942.96 C 941.27 943.78 954.63 944.43 967.95 945.67 C 973.14 946.03 978.38 946.32 983.49 947.45 C 983.51 947.70 983.57 948.22 983.60 948.48 C 979.07 949.28 974.45 948.58 969.90 948.41 C 942.93 946.89 915.92 946.10 888.97 944.23 C 884.42 944.10 879.98 945.32 875.48 945.73 C 864.63 946.82 853.79 948.26 842.88 948.47 C 840.15 948.45 837.19 948.66 834.87 946.96 C 838.24 944.88 842.32 945.35 846.09 944.96 C 855.69 943.99 865.34 943.66 874.97 943.03 C 855.94 940.18 836.55 940.40 817.53 937.55 C 816.14 935.72 818.81 935.62 820.02 935.56 C 846.15 935.95 871.98 940.72 898.07 941.63 C 906.11 941.97 914.15 942.24 922.19 942.72 C 913.93 938.89 904.45 938.11 896.49 933.63 C 896.36 933.27 896.11 932.56 895.98 932.20 Z" />
<path fill="#333F70" opacity="1.00" d=" M 153.42 936.93 C 153.07 933.68 156.43 934.57 157.86 936.13 C 160.36 938.43 164.36 939.22 165.75 942.55 C 161.15 943.10 155.53 941.42 153.42 936.93 Z" />
<path fill="#333F70" opacity="1.00" d=" M 709.78 937.33 C 713.76 936.34 717.90 936.68 721.96 936.42 C 730.26 936.53 738.59 935.83 746.88 936.59 C 745.66 937.85 743.84 938.03 742.21 938.35 C 733.54 939.83 724.68 939.93 715.92 939.45 C 713.82 939.01 711.03 939.45 709.78 937.33 Z" />
<path fill="#333F70" opacity="1.00" d=" M 754.21 937.18 C 757.57 935.37 763.43 933.88 765.72 937.92 C 762.89 940.94 758.51 942.66 754.43 941.51 C 752.24 941.01 752.04 937.89 754.21 937.18 Z" />
<path fill="#333F70" opacity="1.00" d=" M 468.43 938.33 C 470.81 938.28 472.41 940.71 473.66 942.46 C 474.85 944.64 471.46 947.05 469.72 945.34 C 467.78 943.81 465.37 939.95 468.43 938.33 Z" />
<path fill="#333F70" opacity="1.00" d=" M 490.52 950.78 C 497.54 949.31 504.77 949.86 511.89 949.75 C 519.14 950.29 526.75 949.72 533.64 952.40 C 533.93 954.25 531.12 953.26 530.07 953.72 C 517.02 953.88 503.96 954.01 490.91 953.67 C 488.70 954.31 488.13 950.71 490.52 950.78 Z" />
</g>
</g></svg>